999
DXF from OpenSCAD
  0
SECTION
  2
HEADER
  9
$ACADVER
  1
AC1006
  9
$INSBASE
 10
0.0
 20
0.0
 30
0.0
  9
$EXTMIN
 10
-45.946
 20
0.000988349
  9
$EXTMAX
 10
45.95
 20
110.499
  9
$LINMIN
 10
-45.946
 20
0.000988349
  9
$LINMAX
 10
45.95
 20
110.499
  0
ENDSEC
  0
SECTION
  2
TABLES
  0
TABLE
  2
LTYPE
 70
1
  0
LTYPE
  2
CONTINUOUS
 70
64
  3
Solid line
 72
65
 73
0
 40
0.000000
  0
ENDTAB
  0
TABLE
  2
LAYER
 70
6
  0
LAYER
  2
0
 70
64
 62
7
  6
CONTINUOUS
  0
ENDTAB
  0
TABLE
  2
STYLE
 70
0
  0
ENDTAB
  0
ENDSEC
  0
SECTION
  2
BLOCKS
  0
ENDSEC
  0
SECTION
  2
ENTITIES
  0
LWPOLYLINE
100
AcDbEntity
  8
0
100
AcDbPolyline
 90
82
 70
1
 10
41.2481
 20
0.00889282
 10
41.6437
 20
0.0483527
 10
42.0349
 20
0.119118
 10
42.4193
 20
0.220743
 10
42.7943
 20
0.352583
 10
43.1577
 20
0.513806
 10
43.5072
 20
0.703392
 10
43.8405
 20
0.920142
 10
44.1555
 20
1.16269
 10
44.4502
 20
1.42949
 10
44.7228
 20
1.71887
 10
44.9716
 20
2.02899
 10
45.1949
 20
2.3579
 10
45.3914
 20
2.70351
 10
45.5598
 20
3.06364
 10
45.6991
 20
3.43602
 10
45.8083
 20
3.81828
 10
45.8869
 20
4.20801
 10
45.9342
 20
4.60275
 10
45.95
 20
5
 10
45.95
 20
105.5
 10
45.9342
 20
105.897
 10
45.8869
 20
106.292
 10
45.8083
 20
106.682
 10
45.6991
 20
107.064
 10
45.5598
 20
107.436
 10
45.3914
 20
107.796
 10
45.1949
 20
108.142
 10
44.9716
 20
108.471
 10
44.7228
 20
108.781
 10
44.4502
 20
109.071
 10
44.1555
 20
109.337
 10
43.8405
 20
109.58
 10
43.5072
 20
109.797
 10
43.1577
 20
109.986
 10
42.7943
 20
110.147
 10
42.4193
 20
110.279
 10
42.0349
 20
110.381
 10
41.6437
 20
110.452
 10
41.2481
 20
110.491
 10
40.8506
 20
110.499
 10
-41.0494
 20
110.499
 10
-41.4463
 20
110.475
 10
-41.84
 20
110.42
 10
-42.2281
 20
110.334
 10
-42.6081
 20
110.217
 10
-42.9776
 20
110.07
 10
-43.3343
 20
109.895
 10
-43.676
 20
109.692
 10
-44.0004
 20
109.462
 10
-44.3055
 20
109.207
 10
-44.5894
 20
108.929
 10
-44.8503
 20
108.629
 10
-45.0865
 20
108.309
 10
-45.2966
 20
107.971
 10
-45.4792
 20
107.618
 10
-45.6332
 20
107.252
 10
-45.7575
 20
106.874
 10
-45.8515
 20
106.488
 10
-45.9145
 20
106.095
 10
-45.946
 20
105.699
 10
-45.946
 20
4.80122
 10
-45.9145
 20
4.40491
 10
-45.8515
 20
4.01236
 10
-45.7575
 20
3.62606
 10
-45.6332
 20
3.24845
 10
-45.4792
 20
2.8819
 10
-45.2966
 20
2.52875
 10
-45.0865
 20
2.19123
 10
-44.8503
 20
1.87146
 10
-44.5894
 20
1.57147
 10
-44.3055
 20
1.29316
 10
-44.0004
 20
1.03828
 10
-43.676
 20
0.808453
 10
-43.3343
 20
0.605124
 10
-42.9776
 20
0.429581
 10
-42.6081
 20
0.282934
 10
-42.2281
 20
0.166109
 10
-41.84
 20
0.0798457
 10
-41.4463
 20
0.0246892
 10
-41.0494
 20
0.000988349
 10
40.8506
 20
0.000988349
  0
LWPOLYLINE
100
AcDbEntity
  8
0
100
AcDbPolyline
 90
28
 70
1
 10
-36.95
 20
103.5
 10
-37.3382
 20
103.551
 10
-37.7
 20
103.701
 10
-38.0107
 20
103.939
 10
-38.249
 20
104.25
 10
-38.3989
 20
104.612
 10
-38.45
 20
105
 10
-38.45
 20
106.5
 10
-38.3989
 20
106.888
 10
-38.249
 20
107.25
 10
-38.0107
 20
107.561
 10
-37.7
 20
107.799
 10
-37.3382
 20
107.949
 10
-36.95
 20
108
 10
33.65
 20
108
 10
34.0382
 20
107.949
 10
34.4
 20
107.799
 10
34.7107
 20
107.561
 10
34.949
 20
107.25
 10
35.0989
 20
106.888
 10
35.15
 20
106.5
 10
35.15
 20
105
 10
35.0989
 20
104.612
 10
34.949
 20
104.25
 10
34.7107
 20
103.939
 10
34.4
 20
103.701
 10
34.0382
 20
103.551
 10
33.65
 20
103.5
  0
LWPOLYLINE
100
AcDbEntity
  8
0
100
AcDbPolyline
 90
66
 70
1
 10
-42.1492
 20
8.11425
 10
-42.5316
 20
8.22652
 10
-42.8668
 20
8.44195
 10
-43.1278
 20
8.7431
 10
-43.2933
 20
9.10557
 10
-43.35
 20
9.5
 10
-43.2933
 20
9.89443
 10
-43.1278
 20
10.2569
 10
-42.8668
 20
10.558
 10
-42.5316
 20
10.7735
 10
-42.45
 20
10.7974
 10
-42.45
 20
99.7026
 10
-42.5316
 20
99.7265
 10
-42.8668
 20
99.942
 10
-43.1278
 20
100.243
 10
-43.2933
 20
100.606
 10
-43.35
 20
101
 10
-43.2933
 20
101.394
 10
-43.1278
 20
101.757
 10
-42.8668
 20
102.058
 10
-42.5316
 20
102.273
 10
-42.1492
 20
102.386
 10
-41.7508
 20
102.386
 10
-41.3684
 20
102.273
 10
-41.0332
 20
102.058
 10
-40.7722
 20
101.757
 10
-40.6549
 20
101.5
 10
34.2549
 20
101.5
 10
34.3722
 20
101.757
 10
34.6332
 20
102.058
 10
34.9684
 20
102.273
 10
35.3508
 20
102.386
 10
35.7492
 20
102.386
 10
36.1316
 20
102.273
 10
36.4668
 20
102.058
 10
36.7278
 20
101.757
 10
36.8451
 20
101.5
 10
37.65
 20
101.5
 10
38.0382
 20
101.449
 10
38.4
 20
101.299
 10
38.7107
 20
101.061
 10
38.949
 20
100.75
 10
39.0989
 20
100.388
 10
39.15
 20
100
 10
39.15
 20
10.5
 10
39.0989
 20
10.1118
 10
38.949
 20
9.75
 10
38.7107
 20
9.43934
 10
38.4
 20
9.20096
 10
38.0382
 20
9.05111
 10
37.65
 20
9
 10
36.8451
 20
9
 10
36.7278
 20
8.7431
 10
36.4668
 20
8.44195
 10
36.1316
 20
8.22652
 10
35.7492
 20
8.11425
 10
35.3508
 20
8.11425
 10
34.9684
 20
8.22652
 10
34.6332
 20
8.44195
 10
34.3722
 20
8.7431
 10
34.2549
 20
9
 10
-40.6549
 20
9
 10
-40.7722
 20
8.7431
 10
-41.0332
 20
8.44195
 10
-41.3684
 20
8.22652
 10
-41.7508
 20
8.11425
  0
LWPOLYLINE
100
AcDbEntity
  8
0
100
AcDbPolyline
 90
28
 70
1
 10
-36.95
 20
2.5
 10
-37.3382
 20
2.55111
 10
-37.7
 20
2.70096
 10
-38.0107
 20
2.93934
 10
-38.249
 20
3.25
 10
-38.3989
 20
3.61177
 10
-38.45
 20
4
 10
-38.45
 20
5.5
 10
-38.3989
 20
5.88823
 10
-38.249
 20
6.25
 10
-38.0107
 20
6.56066
 10
-37.7
 20
6.79904
 10
-37.3382
 20
6.94889
 10
-36.95
 20
7
 10
-14.15
 20
7
 10
-13.7618
 20
6.94889
 10
-13.4
 20
6.79904
 10
-13.0893
 20
6.56066
 10
-12.851
 20
6.25
 10
-12.7011
 20
5.88823
 10
-12.65
 20
5.5
 10
-12.65
 20
4
 10
-12.7011
 20
3.61177
 10
-12.851
 20
3.25
 10
-13.0893
 20
2.93934
 10
-13.4
 20
2.70096
 10
-13.7618
 20
2.55111
 10
-14.15
 20
2.5
  0
LWPOLYLINE
100
AcDbEntity
  8
0
100
AcDbPolyline
 90
28
 70
1
 10
14.15
 20
2.5
 10
13.7618
 20
2.55111
 10
13.4
 20
2.70096
 10
13.0893
 20
2.93934
 10
12.851
 20
3.25
 10
12.7011
 20
3.61177
 10
12.65
 20
4
 10
12.65
 20
5.5
 10
12.7011
 20
5.88823
 10
12.851
 20
6.25
 10
13.0893
 20
6.56066
 10
13.4
 20
6.79904
 10
13.7618
 20
6.94889
 10
14.15
 20
7
 10
33.65
 20
7
 10
34.0382
 20
6.94889
 10
34.4
 20
6.79904
 10
34.7107
 20
6.56066
 10
34.949
 20
6.25
 10
35.0989
 20
5.88823
 10
35.15
 20
5.5
 10
35.15
 20
4
 10
35.0989
 20
3.61177
 10
34.949
 20
3.25
 10
34.7107
 20
2.93934
 10
34.4
 20
2.70096
 10
34.0382
 20
2.55111
 10
33.65
 20
2.5
  0
ENDSEC
  0
EOF
