999
DXF from OpenSCAD
  0
SECTION
  2
HEADER
  9
$ACADVER
  1
AC1006
  9
$INSBASE
 10
0.0
 20
0.0
 30
0.0
  9
$EXTMIN
 10
-43.3
 20
1.9
  9
$EXTMAX
 10
40
 20
102.35
  9
$LINMIN
 10
-43.3
 20
1.9
  9
$LINMAX
 10
40
 20
102.35
  0
ENDSEC
  0
SECTION
  2
TABLES
  0
TABLE
  2
LTYPE
 70
1
  0
LTYPE
  2
CONTINUOUS
 70
64
  3
Solid line
 72
65
 73
0
 40
0.000000
  0
ENDTAB
  0
TABLE
  2
LAYER
 70
6
  0
LAYER
  2
0
 70
64
 62
7
  6
CONTINUOUS
  0
ENDTAB
  0
TABLE
  2
STYLE
 70
0
  0
ENDTAB
  0
ENDSEC
  0
SECTION
  2
BLOCKS
  0
ENDSEC
  0
SECTION
  2
ENTITIES
  0
LWPOLYLINE
100
AcDbEntity
  8
0
100
AcDbPolyline
 90
48
 70
1
 10
10.5
 20
8.15
 10
37.5
 20
8.15
 10
37.8911
 20
8.18078
 10
38.2725
 20
8.27236
 10
38.635
 20
8.42248
 10
38.9695
 20
8.62746
 10
39.2678
 20
8.88223
 10
39.5225
 20
9.18054
 10
39.7275
 20
9.51502
 10
39.8776
 20
9.87746
 10
39.9692
 20
10.2589
 10
40
 20
10.65
 10
40
 20
99.85
 10
39.9692
 20
100.241
 10
39.8776
 20
100.623
 10
39.7275
 20
100.985
 10
39.5225
 20
101.319
 10
39.2678
 20
101.618
 10
38.9695
 20
101.873
 10
38.635
 20
102.078
 10
38.2725
 20
102.228
 10
37.8911
 20
102.319
 10
37.5
 20
102.35
 10
-40.8
 20
102.35
 10
-41.1911
 20
102.319
 10
-41.5725
 20
102.228
 10
-41.935
 20
102.078
 10
-42.2695
 20
101.873
 10
-42.5678
 20
101.618
 10
-42.8225
 20
101.319
 10
-43.0275
 20
100.985
 10
-43.1776
 20
100.623
 10
-43.2692
 20
100.241
 10
-43.3
 20
99.85
 10
-43.3
 20
10.65
 10
-43.2692
 20
10.2589
 10
-43.1776
 20
9.87746
 10
-43.0275
 20
9.51502
 10
-42.8225
 20
9.18054
 10
-42.5678
 20
8.88223
 10
-42.2695
 20
8.62746
 10
-41.935
 20
8.42248
 10
-41.5725
 20
8.27236
 10
-41.1911
 20
8.18078
 10
-40.8
 20
8.15
 10
-10.5
 20
8.15
 10
-10.5
 20
1.9
 10
10.5
 20
1.9
  0
LWPOLYLINE
100
AcDbEntity
  8
0
100
AcDbPolyline
 90
65
 70
1
 10
-27.897
 20
88.0108
 10
-28.2903
 20
88.0585
 10
-28.6771
 20
88.144
 10
-29.0539
 20
88.2664
 10
-29.4171
 20
88.4246
 10
-29.7633
 20
88.6172
 10
-30.0894
 20
88.8422
 10
-30.3922
 20
89.0977
 10
-30.6689
 20
89.3812
 10
-30.917
 20
89.6901
 10
-31.1341
 20
90.0215
 10
-31.3182
 20
90.3723
 10
-31.4676
 20
90.7392
 10
-31.5809
 20
91.1188
 10
-31.657
 20
91.5076
 10
-31.6952
 20
91.9019
 10
-31.6952
 20
92.2981
 10
-31.657
 20
92.6924
 10
-31.5809
 20
93.0812
 10
-31.4676
 20
93.4608
 10
-31.3182
 20
93.8277
 10
-31.1341
 20
94.1785
 10
-30.917
 20
94.5099
 10
-30.6689
 20
94.8188
 10
-30.3922
 20
95.1023
 10
-30.0894
 20
95.3578
 10
-29.7633
 20
95.5828
 10
-29.4171
 20
95.7754
 10
-29.0539
 20
95.9336
 10
-28.6771
 20
96.056
 10
-28.2903
 20
96.1415
 10
-27.897
 20
96.1892
 10
-27.5009
 20
96.1988
 10
-27.1058
 20
96.1701
 10
-26.7153
 20
96.1034
 10
-26.333
 20
95.9993
 10
-25.9626
 20
95.8588
 10
-25.6075
 20
95.6833
 10
-25.2709
 20
95.4742
 10
-24.9561
 20
95.2337
 10
-24.666
 20
94.9639
 10
-24.4033
 20
94.6674
 10
-24.1705
 20
94.3469
 10
-23.9696
 20
94.0054
 10
-23.8027
 20
93.6461
 10
-23.6712
 20
93.2724
 10
-23.5764
 20
92.8877
 10
-23.5191
 20
92.4957
 10
-23.5
 20
92.1
 10
-23.5191
 20
91.7043
 10
-23.5764
 20
91.3123
 10
-23.6712
 20
90.9276
 10
-23.8027
 20
90.5539
 10
-23.9696
 20
90.1946
 10
-24.1705
 20
89.8531
 10
-24.4033
 20
89.5326
 10
-24.666
 20
89.2361
 10
-24.9561
 20
88.9663
 10
-25.2709
 20
88.7258
 10
-25.6075
 20
88.5167
 10
-25.9626
 20
88.3412
 10
-26.333
 20
88.2007
 10
-26.7153
 20
88.0966
 10
-27.1058
 20
88.0299
 10
-27.5009
 20
88.0012
  0
LWPOLYLINE
100
AcDbEntity
  8
0
100
AcDbPolyline
 90
4
 70
1
 10
-12.75
 20
89
 10
-12.75
 20
95
 10
2.75
 20
95
 10
2.75
 20
89
  0
LWPOLYLINE
100
AcDbEntity
  8
0
100
AcDbPolyline
 90
23
 70
1
 10
9.16442
 20
91.2837
 10
8.81381
 20
91.4654
 10
8.52522
 20
91.7349
 10
8.32004
 20
92.0723
 10
8.21351
 20
92.4526
 10
8.21351
 20
92.8474
 10
8.32004
 20
93.2277
 10
8.52522
 20
93.5651
 10
8.81381
 20
93.8346
 10
9.16442
 20
94.0163
 10
9.55105
 20
94.0966
 10
9.94501
 20
94.0697
 10
10.3171
 20
93.9374
 10
10.6397
 20
93.7097
 10
10.8889
 20
93.4034
 10
11.0462
 20
93.0412
 10
11.1
 20
92.65
 10
11.0462
 20
92.2588
 10
10.8889
 20
91.8966
 10
10.6397
 20
91.5903
 10
10.3171
 20
91.3626
 10
9.94501
 20
91.2303
 10
9.55105
 20
91.2034
  0
LWPOLYLINE
100
AcDbEntity
  8
0
100
AcDbPolyline
 90
23
 70
1
 10
34.1644
 20
91.2837
 10
33.8138
 20
91.4654
 10
33.5252
 20
91.7349
 10
33.32
 20
92.0723
 10
33.2135
 20
92.4526
 10
33.2135
 20
92.8474
 10
33.32
 20
93.2277
 10
33.5252
 20
93.5651
 10
33.8138
 20
93.8346
 10
34.1644
 20
94.0163
 10
34.551
 20
94.0966
 10
34.945
 20
94.0697
 10
35.3171
 20
93.9374
 10
35.6397
 20
93.7097
 10
35.8889
 20
93.4034
 10
36.0462
 20
93.0412
 10
36.1
 20
92.65
 10
36.0462
 20
92.2588
 10
35.8889
 20
91.8966
 10
35.6397
 20
91.5903
 10
35.3171
 20
91.3626
 10
34.945
 20
91.2303
 10
34.551
 20
91.2034
  0
LWPOLYLINE
100
AcDbEntity
  8
0
100
AcDbPolyline
 90
65
 70
1
 10
27.303
 20
78.9108
 10
26.9097
 20
78.9585
 10
26.5229
 20
79.044
 10
26.1461
 20
79.1664
 10
25.7829
 20
79.3246
 10
25.4367
 20
79.5172
 10
25.1106
 20
79.7422
 10
24.8078
 20
79.9977
 10
24.5311
 20
80.2812
 10
24.283
 20
80.5901
 10
24.0659
 20
80.9215
 10
23.8818
 20
81.2723
 10
23.7324
 20
81.6392
 10
23.6191
 20
82.0188
 10
23.543
 20
82.4076
 10
23.5048
 20
82.8019
 10
23.5048
 20
83.1981
 10
23.543
 20
83.5924
 10
23.6191
 20
83.9812
 10
23.7324
 20
84.3608
 10
23.8818
 20
84.7277
 10
24.0659
 20
85.0785
 10
24.283
 20
85.4099
 10
24.5311
 20
85.7188
 10
24.8078
 20
86.0023
 10
25.1106
 20
86.2578
 10
25.4367
 20
86.4828
 10
25.7829
 20
86.6754
 10
26.1461
 20
86.8336
 10
26.5229
 20
86.956
 10
26.9097
 20
87.0415
 10
27.303
 20
87.0892
 10
27.6991
 20
87.0988
 10
28.0942
 20
87.0701
 10
28.4847
 20
87.0034
 10
28.867
 20
86.8993
 10
29.2374
 20
86.7588
 10
29.5925
 20
86.5833
 10
29.9291
 20
86.3742
 10
30.2439
 20
86.1337
 10
30.534
 20
85.8639
 10
30.7967
 20
85.5674
 10
31.0295
 20
85.2469
 10
31.2304
 20
84.9054
 10
31.3973
 20
84.5461
 10
31.5288
 20
84.1724
 10
31.6236
 20
83.7877
 10
31.6809
 20
83.3957
 10
31.7
 20
83
 10
31.6809
 20
82.6043
 10
31.6236
 20
82.2123
 10
31.5288
 20
81.8276
 10
31.3973
 20
81.4539
 10
31.2304
 20
81.0946
 10
31.0295
 20
80.7531
 10
30.7967
 20
80.4326
 10
30.534
 20
80.1361
 10
30.2439
 20
79.8663
 10
29.9291
 20
79.6258
 10
29.5925
 20
79.4167
 10
29.2374
 20
79.2412
 10
28.867
 20
79.1007
 10
28.4847
 20
78.9966
 10
28.0942
 20
78.9299
 10
27.6991
 20
78.9012
  0
LWPOLYLINE
100
AcDbEntity
  8
0
100
AcDbPolyline
 90
23
 70
1
 10
9.16442
 20
71.9837
 10
8.81381
 20
72.1654
 10
8.52522
 20
72.4349
 10
8.32004
 20
72.7723
 10
8.21351
 20
73.1526
 10
8.21351
 20
73.5474
 10
8.32004
 20
73.9277
 10
8.52522
 20
74.2651
 10
8.81381
 20
74.5346
 10
9.16442
 20
74.7163
 10
9.55105
 20
74.7966
 10
9.94501
 20
74.7697
 10
10.3171
 20
74.6374
 10
10.6397
 20
74.4097
 10
10.8889
 20
74.1034
 10
11.0462
 20
73.7412
 10
11.1
 20
73.35
 10
11.0462
 20
72.9588
 10
10.8889
 20
72.5966
 10
10.6397
 20
72.2903
 10
10.3171
 20
72.0626
 10
9.94501
 20
71.9303
 10
9.55105
 20
71.9034
  0
LWPOLYLINE
100
AcDbEntity
  8
0
100
AcDbPolyline
 90
23
 70
1
 10
34.1644
 20
71.9837
 10
33.8138
 20
72.1654
 10
33.5252
 20
72.4349
 10
33.32
 20
72.7723
 10
33.2135
 20
73.1526
 10
33.2135
 20
73.5474
 10
33.32
 20
73.9277
 10
33.5252
 20
74.2651
 10
33.8138
 20
74.5346
 10
34.1644
 20
74.7163
 10
34.551
 20
74.7966
 10
34.945
 20
74.7697
 10
35.3171
 20
74.6374
 10
35.6397
 20
74.4097
 10
35.8889
 20
74.1034
 10
36.0462
 20
73.7412
 10
36.1
 20
73.35
 10
36.0462
 20
72.9588
 10
35.8889
 20
72.5966
 10
35.6397
 20
72.2903
 10
35.3171
 20
72.0626
 10
34.945
 20
71.9303
 10
34.551
 20
71.9034
  0
LWPOLYLINE
100
AcDbEntity
  8
0
100
AcDbPolyline
 90
20
 70
1
 10
-9
 20
11.3
 10
-9
 20
54
 10
-7
 20
54
 10
-7
 20
56.9566
 10
-9.1
 20
56.9566
 10
-9.1
 20
59.0434
 10
-7
 20
59.0434
 10
-7
 20
62
 10
-9
 20
62
 10
-9
 20
63.5
 10
9
 20
63.5
 10
9
 20
62
 10
7
 20
62
 10
7
 20
59.0434
 10
9.1
 20
59.0434
 10
9.1
 20
56.9566
 10
7
 20
56.9566
 10
7
 20
54
 10
9
 20
54
 10
9
 20
11.3
  0
ENDSEC
  0
EOF
