999
DXF from OpenSCAD
  0
SECTION
  2
HEADER
  9
$ACADVER
  1
AC1006
  9
$INSBASE
 10
0.0
 20
0.0
 30
0.0
  9
$EXTMIN
 10
-43.3
 20
1.9
  9
$EXTMAX
 10
40
 20
102.35
  9
$LINMIN
 10
-43.3
 20
1.9
  9
$LINMAX
 10
40
 20
102.35
  0
ENDSEC
  0
SECTION
  2
TABLES
  0
TABLE
  2
LTYPE
 70
1
  0
LTYPE
  2
CONTINUOUS
 70
64
  3
Solid line
 72
65
 73
0
 40
0.000000
  0
ENDTAB
  0
TABLE
  2
LAYER
 70
6
  0
LAYER
  2
0
 70
64
 62
7
  6
CONTINUOUS
  0
ENDTAB
  0
TABLE
  2
STYLE
 70
0
  0
ENDTAB
  0
ENDSEC
  0
SECTION
  2
BLOCKS
  0
ENDSEC
  0
SECTION
  2
ENTITIES
  0
LWPOLYLINE
100
AcDbEntity
  8
0
100
AcDbPolyline
 90
48
 70
1
 10
10.5
 20
8.15
 10
37.5
 20
8.15
 10
37.8911
 20
8.18078
 10
38.2725
 20
8.27236
 10
38.635
 20
8.42248
 10
38.9695
 20
8.62746
 10
39.2678
 20
8.88223
 10
39.5225
 20
9.18054
 10
39.7275
 20
9.51502
 10
39.8776
 20
9.87746
 10
39.9692
 20
10.2589
 10
40
 20
10.65
 10
40
 20
99.85
 10
39.9692
 20
100.241
 10
39.8776
 20
100.623
 10
39.7275
 20
100.985
 10
39.5225
 20
101.319
 10
39.2678
 20
101.618
 10
38.9695
 20
101.873
 10
38.635
 20
102.078
 10
38.2725
 20
102.228
 10
37.8911
 20
102.319
 10
37.5
 20
102.35
 10
-40.8
 20
102.35
 10
-41.1911
 20
102.319
 10
-41.5725
 20
102.228
 10
-41.935
 20
102.078
 10
-42.2695
 20
101.873
 10
-42.5678
 20
101.618
 10
-42.8225
 20
101.319
 10
-43.0275
 20
100.985
 10
-43.1776
 20
100.623
 10
-43.2692
 20
100.241
 10
-43.3
 20
99.85
 10
-43.3
 20
10.65
 10
-43.2692
 20
10.2589
 10
-43.1776
 20
9.87746
 10
-43.0275
 20
9.51502
 10
-42.8225
 20
9.18054
 10
-42.5678
 20
8.88223
 10
-42.2695
 20
8.62746
 10
-41.935
 20
8.42248
 10
-41.5725
 20
8.27236
 10
-41.1911
 20
8.18078
 10
-40.8
 20
8.15
 10
-10.5
 20
8.15
 10
-10.5
 20
1.9
 10
10.5
 20
1.9
  0
LWPOLYLINE
100
AcDbEntity
  8
0
100
AcDbPolyline
 90
4
 70
1
 10
-12.75
 20
89
 10
-12.75
 20
95
 10
2.75
 20
95
 10
2.75
 20
89
  0
LWPOLYLINE
100
AcDbEntity
  8
0
100
AcDbPolyline
 90
23
 70
1
 10
9.16442
 20
91.2837
 10
8.81381
 20
91.4654
 10
8.52522
 20
91.7349
 10
8.32004
 20
92.0723
 10
8.21351
 20
92.4526
 10
8.21351
 20
92.8474
 10
8.32004
 20
93.2277
 10
8.52522
 20
93.5651
 10
8.81381
 20
93.8346
 10
9.16442
 20
94.0163
 10
9.55105
 20
94.0966
 10
9.94501
 20
94.0697
 10
10.3171
 20
93.9374
 10
10.6397
 20
93.7097
 10
10.8889
 20
93.4034
 10
11.0462
 20
93.0412
 10
11.1
 20
92.65
 10
11.0462
 20
92.2588
 10
10.8889
 20
91.8966
 10
10.6397
 20
91.5903
 10
10.3171
 20
91.3626
 10
9.94501
 20
91.2303
 10
9.55105
 20
91.2034
  0
LWPOLYLINE
100
AcDbEntity
  8
0
100
AcDbPolyline
 90
23
 70
1
 10
34.1644
 20
91.2837
 10
33.8138
 20
91.4654
 10
33.5252
 20
91.7349
 10
33.32
 20
92.0723
 10
33.2135
 20
92.4526
 10
33.2135
 20
92.8474
 10
33.32
 20
93.2277
 10
33.5252
 20
93.5651
 10
33.8138
 20
93.8346
 10
34.1644
 20
94.0163
 10
34.551
 20
94.0966
 10
34.945
 20
94.0697
 10
35.3171
 20
93.9374
 10
35.6397
 20
93.7097
 10
35.8889
 20
93.4034
 10
36.0462
 20
93.0412
 10
36.1
 20
92.65
 10
36.0462
 20
92.2588
 10
35.8889
 20
91.8966
 10
35.6397
 20
91.5903
 10
35.3171
 20
91.3626
 10
34.945
 20
91.2303
 10
34.551
 20
91.2034
  0
LWPOLYLINE
100
AcDbEntity
  8
0
100
AcDbPolyline
 90
23
 70
1
 10
9.16442
 20
71.9837
 10
8.81381
 20
72.1654
 10
8.52522
 20
72.4349
 10
8.32004
 20
72.7723
 10
8.21351
 20
73.1526
 10
8.21351
 20
73.5474
 10
8.32004
 20
73.9277
 10
8.52522
 20
74.2651
 10
8.81381
 20
74.5346
 10
9.16442
 20
74.7163
 10
9.55105
 20
74.7966
 10
9.94501
 20
74.7697
 10
10.3171
 20
74.6374
 10
10.6397
 20
74.4097
 10
10.8889
 20
74.1034
 10
11.0462
 20
73.7412
 10
11.1
 20
73.35
 10
11.0462
 20
72.9588
 10
10.8889
 20
72.5966
 10
10.6397
 20
72.2903
 10
10.3171
 20
72.0626
 10
9.94501
 20
71.9303
 10
9.55105
 20
71.9034
  0
LWPOLYLINE
100
AcDbEntity
  8
0
100
AcDbPolyline
 90
23
 70
1
 10
34.1644
 20
71.9837
 10
33.8138
 20
72.1654
 10
33.5252
 20
72.4349
 10
33.32
 20
72.7723
 10
33.2135
 20
73.1526
 10
33.2135
 20
73.5474
 10
33.32
 20
73.9277
 10
33.5252
 20
74.2651
 10
33.8138
 20
74.5346
 10
34.1644
 20
74.7163
 10
34.551
 20
74.7966
 10
34.945
 20
74.7697
 10
35.3171
 20
74.6374
 10
35.6397
 20
74.4097
 10
35.8889
 20
74.1034
 10
36.0462
 20
73.7412
 10
36.1
 20
73.35
 10
36.0462
 20
72.9588
 10
35.8889
 20
72.5966
 10
35.6397
 20
72.2903
 10
35.3171
 20
72.0626
 10
34.945
 20
71.9303
 10
34.551
 20
71.9034
  0
LWPOLYLINE
100
AcDbEntity
  8
0
100
AcDbPolyline
 90
20
 70
1
 10
-9
 20
11.3
 10
-9
 20
54
 10
-7
 20
54
 10
-7
 20
56.9566
 10
-9.1
 20
56.9566
 10
-9.1
 20
59.0434
 10
-7
 20
59.0434
 10
-7
 20
62
 10
-9
 20
62
 10
-9
 20
63.5
 10
9
 20
63.5
 10
9
 20
62
 10
7
 20
62
 10
7
 20
59.0434
 10
9.1
 20
59.0434
 10
9.1
 20
56.9566
 10
7
 20
56.9566
 10
7
 20
54
 10
9
 20
54
 10
9
 20
11.3
  0
ENDSEC
  0
EOF
