999
DXF from OpenSCAD
  0
SECTION
  2
HEADER
  9
$ACADVER
  1
AC1006
  9
$INSBASE
 10
0.0
 20
0.0
 30
0.0
  9
$EXTMIN
 10
-45.358
 20
0.590502
  9
$EXTMAX
 10
45.36
 20
109.909
  9
$LINMIN
 10
-45.358
 20
0.590502
  9
$LINMAX
 10
45.36
 20
109.909
  0
ENDSEC
  0
SECTION
  2
TABLES
  0
TABLE
  2
LTYPE
 70
1
  0
LTYPE
  2
CONTINUOUS
 70
64
  3
Solid line
 72
65
 73
0
 40
0.000000
  0
ENDTAB
  0
TABLE
  2
LAYER
 70
6
  0
LAYER
  2
0
 70
64
 62
7
  6
CONTINUOUS
  0
ENDTAB
  0
TABLE
  2
STYLE
 70
0
  0
ENDTAB
  0
ENDSEC
  0
SECTION
  2
BLOCKS
  0
ENDSEC
  0
SECTION
  2
ENTITIES
  0
LWPOLYLINE
100
AcDbEntity
  8
0
100
AcDbPolyline
 90
130
 70
1
 10
41.04
 20
0.594515
 10
41.3155
 20
0.605338
 10
41.5892
 20
0.637741
 10
41.7077
 20
0.657717
 10
41.978
 20
0.711499
 10
42.2434
 20
0.78633
 10
42.3581
 20
0.821912
 10
42.6167
 20
0.917329
 10
42.8671
 20
1.03274
 10
42.976
 20
1.0833
 10
43.2165
 20
1.218
 10
43.3178
 20
1.28262
 10
43.547
 20
1.43578
 10
43.7635
 20
1.60645
 10
43.8552
 20
1.68399
 10
44.0576
 20
1.87113
 10
44.2448
 20
2.07356
 10
44.3253
 20
2.16263
 10
44.496
 20
2.37913
 10
44.564
 20
2.47814
 10
44.7171
 20
2.70736
 10
44.8518
 20
2.94789
 10
44.906
 20
3.05508
 10
45.0214
 20
3.30544
 10
45.1168
 20
3.56408
 10
45.1562
 20
3.67753
 10
45.231
 20
3.94286
 10
45.255
 20
4.06055
 10
45.3088
 20
4.33093
 10
45.3412
 20
4.6047
 10
45.3492
 20
4.72453
 10
45.36
 20
5
 10
45.36
 20
105.5
 10
45.3492
 20
105.775
 10
45.3412
 20
105.895
 10
45.3088
 20
106.169
 10
45.255
 20
106.439
 10
45.231
 20
106.557
 10
45.1562
 20
106.822
 10
45.1168
 20
106.936
 10
45.0214
 20
107.195
 10
44.906
 20
107.445
 10
44.8518
 20
107.552
 10
44.7171
 20
107.793
 10
44.564
 20
108.022
 10
44.496
 20
108.121
 10
44.3253
 20
108.337
 10
44.2448
 20
108.426
 10
44.0576
 20
108.629
 10
43.8552
 20
108.816
 10
43.7635
 20
108.894
 10
43.547
 20
109.064
 10
43.3178
 20
109.217
 10
43.2165
 20
109.282
 10
42.976
 20
109.417
 10
42.8671
 20
109.467
 10
42.6167
 20
109.583
 10
42.3581
 20
109.678
 10
42.2434
 20
109.714
 10
41.978
 20
109.789
 10
41.7077
 20
109.842
 10
41.5892
 20
109.862
 10
41.3155
 20
109.895
 10
41.04
 20
109.905
 10
40.92
 20
109.909
 10
-40.98
 20
109.909
 10
-41.2555
 20
109.899
 10
-41.375
 20
109.887
 10
-41.6488
 20
109.854
 10
-41.9192
 20
109.8
 10
-42.036
 20
109.773
 10
-42.3013
 20
109.698
 10
-42.5599
 20
109.602
 10
-42.672
 20
109.559
 10
-42.9224
 20
109.444
 10
-43.0277
 20
109.386
 10
-43.2682
 20
109.251
 10
-43.4974
 20
109.098
 10
-43.5941
 20
109.027
 10
-43.8106
 20
108.856
 10
-44.0131
 20
108.669
 10
-44.0994
 20
108.586
 10
-44.2865
 20
108.383
 10
-44.361
 20
108.289
 10
-44.5316
 20
108.072
 10
-44.6848
 20
107.843
 10
-44.746
 20
107.74
 10
-44.8807
 20
107.499
 10
-44.9961
 20
107.249
 10
-45.043
 20
107.138
 10
-45.1384
 20
106.88
 10
-45.2132
 20
106.615
 10
-45.245
 20
106.499
 10
-45.2988
 20
106.228
 10
-45.3148
 20
106.109
 10
-45.3472
 20
105.836
 10
-45.358
 20
105.56
 10
-45.358
 20
4.93995
 10
-45.3472
 20
4.66448
 10
-45.3148
 20
4.39072
 10
-45.2988
 20
4.27169
 10
-45.245
 20
4.00131
 10
-45.2132
 20
3.88547
 10
-45.1384
 20
3.62015
 10
-45.043
 20
3.36151
 10
-44.9961
 20
3.25094
 10
-44.8807
 20
3.00058
 10
-44.746
 20
2.76005
 10
-44.6848
 20
2.65672
 10
-44.5316
 20
2.4275
 10
-44.361
 20
2.21101
 10
-44.2865
 20
2.11675
 10
-44.0994
 20
1.91431
 10
-44.0131
 20
1.83082
 10
-43.8106
 20
1.64369
 10
-43.5941
 20
1.47302
 10
-43.4974
 20
1.40178
 10
-43.2682
 20
1.24862
 10
-43.0277
 20
1.11392
 10
-42.9224
 20
1.0562
 10
-42.672
 20
0.940785
 10
-42.5599
 20
0.89762
 10
-42.3013
 20
0.802203
 10
-42.036
 20
0.727373
 10
-41.9192
 20
0.699531
 10
-41.6488
 20
0.645749
 10
-41.375
 20
0.613347
 10
-41.2555
 20
0.601325
 10
-40.98
 20
0.590502
 10
40.92
 20
0.590502
  0
LWPOLYLINE
100
AcDbEntity
  8
0
100
AcDbPolyline
 90
23
 70
1
 10
-40.9356
 20
103.634
 10
-41.2862
 20
103.815
 10
-41.5748
 20
104.085
 10
-41.78
 20
104.422
 10
-41.8865
 20
104.803
 10
-41.8865
 20
105.197
 10
-41.78
 20
105.578
 10
-41.5748
 20
105.915
 10
-41.2862
 20
106.185
 10
-40.9356
 20
106.366
 10
-40.549
 20
106.447
 10
-40.155
 20
106.42
 10
-39.7829
 20
106.287
 10
-39.4603
 20
106.06
 10
-39.2111
 20
105.753
 10
-39.0538
 20
105.391
 10
-39
 20
105
 10
-39.0538
 20
104.609
 10
-39.2111
 20
104.247
 10
-39.4603
 20
103.94
 10
-39.7829
 20
103.713
 10
-40.155
 20
103.58
 10
-40.549
 20
103.553
  0
LWPOLYLINE
100
AcDbEntity
  8
0
100
AcDbPolyline
 90
23
 70
1
 10
39.9644
 20
103.634
 10
39.6138
 20
103.815
 10
39.3252
 20
104.085
 10
39.12
 20
104.422
 10
39.0135
 20
104.803
 10
39.0135
 20
105.197
 10
39.12
 20
105.578
 10
39.3252
 20
105.915
 10
39.6138
 20
106.185
 10
39.9644
 20
106.366
 10
40.351
 20
106.447
 10
40.745
 20
106.42
 10
41.1171
 20
106.287
 10
41.4397
 20
106.06
 10
41.6889
 20
105.753
 10
41.8462
 20
105.391
 10
41.9
 20
105
 10
41.8462
 20
104.609
 10
41.6889
 20
104.247
 10
41.4397
 20
103.94
 10
41.1171
 20
103.713
 10
40.745
 20
103.58
 10
40.351
 20
103.553
  0
LWPOLYLINE
100
AcDbEntity
  8
0
100
AcDbPolyline
 90
16
 70
1
 10
-11.55
 20
89.5
 10
-11.9027
 20
89.6146
 10
-12.1206
 20
89.9146
 10
-12.15
 20
90.1
 10
-12.15
 20
93.9
 10
-12.0354
 20
94.2527
 10
-11.7354
 20
94.4706
 10
-11.55
 20
94.5
 10
1.55
 20
94.5
 10
1.90267
 20
94.3854
 10
2.12063
 20
94.0854
 10
2.15
 20
93.9
 10
2.15
 20
90.1
 10
2.03541
 20
89.7473
 10
1.73541
 20
89.5294
 10
1.55
 20
89.5
  0
LWPOLYLINE
100
AcDbEntity
  8
0
100
AcDbPolyline
 90
23
 70
1
 10
-40.9356
 20
4.13372
 10
-41.2862
 20
4.31539
 10
-41.5748
 20
4.58492
 10
-41.78
 20
4.92232
 10
-41.8865
 20
5.30256
 10
-41.8865
 20
5.69744
 10
-41.78
 20
6.07768
 10
-41.5748
 20
6.41508
 10
-41.2862
 20
6.68461
 10
-40.9356
 20
6.86628
 10
-40.549
 20
6.94662
 10
-40.155
 20
6.91967
 10
-39.7829
 20
6.78743
 10
-39.4603
 20
6.55971
 10
-39.2111
 20
6.2534
 10
-39.0538
 20
5.89121
 10
-39
 20
5.5
 10
-39.0538
 20
5.10879
 10
-39.2111
 20
4.7466
 10
-39.4603
 20
4.44029
 10
-39.7829
 20
4.21257
 10
-40.155
 20
4.08033
 10
-40.549
 20
4.05338
  0
LWPOLYLINE
100
AcDbEntity
  8
0
100
AcDbPolyline
 90
23
 70
1
 10
39.9644
 20
4.13372
 10
39.6138
 20
4.31539
 10
39.3252
 20
4.58492
 10
39.12
 20
4.92232
 10
39.0135
 20
5.30256
 10
39.0135
 20
5.69744
 10
39.12
 20
6.07768
 10
39.3252
 20
6.41508
 10
39.6138
 20
6.68461
 10
39.9644
 20
6.86628
 10
40.351
 20
6.94662
 10
40.745
 20
6.91967
 10
41.1171
 20
6.78743
 10
41.4397
 20
6.55971
 10
41.6889
 20
6.2534
 10
41.8462
 20
5.89121
 10
41.9
 20
5.5
 10
41.8462
 20
5.10879
 10
41.6889
 20
4.7466
 10
41.4397
 20
4.44029
 10
41.1171
 20
4.21257
 10
40.745
 20
4.08033
 10
40.351
 20
4.05338
  0
ENDSEC
  0
EOF
