  0
SECTION
  2
BLOCKS
  0
ENDSEC
  0
SECTION
  2
ENTITIES
  0
LINE
  8
0
 10
10.5
 20
0.5905
 11
40.92
 21
0.5905
  0
LINE
  8
0
 10
40.92
 20
0.5905
 11
41.04
 21
0.594513
  0
LINE
  8
0
 10
41.04
 20
0.594513
 11
41.3154
 21
0.605331
  0
LINE
  8
0
 10
41.3154
 20
0.605331
 11
41.5892
 21
0.637741
  0
LINE
  8
0
 10
41.5892
 20
0.637741
 11
41.7076
 21
0.657715
  0
LINE
  8
0
 10
41.7076
 20
0.657715
 11
41.978
 21
0.711502
  0
LINE
  8
0
 10
41.978
 20
0.711502
 11
42.2433
 21
0.786331
  0
LINE
  8
0
 10
42.2433
 20
0.786331
 11
42.358
 21
0.821915
  0
LINE
  8
0
 10
42.358
 20
0.821915
 11
42.6167
 21
0.917328
  0
LINE
  8
0
 10
42.6167
 20
0.917328
 11
42.8671
 21
1.03275
  0
LINE
  8
0
 10
42.8671
 20
1.03275
 11
42.976
 21
1.0833
  0
LINE
  8
0
 10
42.976
 20
1.0833
 11
43.2165
 21
1.218
  0
LINE
  8
0
 10
43.2165
 20
1.218
 11
43.3177
 21
1.28262
  0
LINE
  8
0
 10
43.3177
 20
1.28262
 11
43.547
 21
1.43579
  0
LINE
  8
0
 10
43.547
 20
1.43579
 11
43.7635
 21
1.60646
  0
LINE
  8
0
 10
43.7635
 20
1.60646
 11
43.8552
 21
1.68399
  0
LINE
  8
0
 10
43.8552
 20
1.68399
 11
44.0576
 21
1.87112
  0
LINE
  8
0
 10
44.0576
 20
1.87112
 11
44.2448
 21
2.07356
  0
LINE
  8
0
 10
44.2448
 20
2.07356
 11
44.3253
 21
2.16263
  0
LINE
  8
0
 10
44.3253
 20
2.16263
 11
44.496
 21
2.37914
  0
LINE
  8
0
 10
44.496
 20
2.37914
 11
44.5639
 21
2.47815
  0
LINE
  8
0
 10
44.5639
 20
2.47815
 11
44.7171
 21
2.70737
  0
LINE
  8
0
 10
44.7171
 20
2.70737
 11
44.8518
 21
2.94789
  0
LINE
  8
0
 10
44.8518
 20
2.94789
 11
44.906
 21
3.05508
  0
LINE
  8
0
 10
44.906
 20
3.05508
 11
45.0214
 21
3.30544
  0
LINE
  8
0
 10
45.0214
 20
3.30544
 11
45.1168
 21
3.56407
  0
LINE
  8
0
 10
45.1168
 20
3.56407
 11
45.1562
 21
3.67752
  0
LINE
  8
0
 10
45.1562
 20
3.67752
 11
45.231
 21
3.94286
  0
LINE
  8
0
 10
45.231
 20
3.94286
 11
45.255
 21
4.06055
  0
LINE
  8
0
 10
45.255
 20
4.06055
 11
45.3087
 21
4.33093
  0
LINE
  8
0
 10
45.3087
 20
4.33093
 11
45.3411
 21
4.60471
  0
LINE
  8
0
 10
45.3411
 20
4.60471
 11
45.3492
 21
4.72453
  0
LINE
  8
0
 10
45.3492
 20
4.72453
 11
45.36
 21
5
  0
LINE
  8
0
 10
45.36
 20
5
 11
45.36
 21
105.5
  0
LINE
  8
0
 10
45.36
 20
105.5
 11
45.3492
 21
105.775
  0
LINE
  8
0
 10
45.3492
 20
105.775
 11
45.3411
 21
105.895
  0
LINE
  8
0
 10
45.3411
 20
105.895
 11
45.3087
 21
106.169
  0
LINE
  8
0
 10
45.3087
 20
106.169
 11
45.255
 21
106.439
  0
LINE
  8
0
 10
45.255
 20
106.439
 11
45.231
 21
106.557
  0
LINE
  8
0
 10
45.231
 20
106.557
 11
45.1562
 21
106.822
  0
LINE
  8
0
 10
45.1562
 20
106.822
 11
45.1168
 21
106.936
  0
LINE
  8
0
 10
45.1168
 20
106.936
 11
45.0214
 21
107.195
  0
LINE
  8
0
 10
45.0214
 20
107.195
 11
44.906
 21
107.445
  0
LINE
  8
0
 10
44.906
 20
107.445
 11
44.8518
 21
107.552
  0
LINE
  8
0
 10
44.8518
 20
107.552
 11
44.7171
 21
107.793
  0
LINE
  8
0
 10
44.7171
 20
107.793
 11
44.5639
 21
108.022
  0
LINE
  8
0
 10
44.5639
 20
108.022
 11
44.496
 21
108.121
  0
LINE
  8
0
 10
44.496
 20
108.121
 11
44.3253
 21
108.337
  0
LINE
  8
0
 10
44.3253
 20
108.337
 11
44.2448
 21
108.426
  0
LINE
  8
0
 10
44.2448
 20
108.426
 11
44.0576
 21
108.629
  0
LINE
  8
0
 10
44.0576
 20
108.629
 11
43.8552
 21
108.816
  0
LINE
  8
0
 10
43.8552
 20
108.816
 11
43.7635
 21
108.894
  0
LINE
  8
0
 10
43.7635
 20
108.894
 11
43.547
 21
109.064
  0
LINE
  8
0
 10
43.547
 20
109.064
 11
43.3177
 21
109.217
  0
LINE
  8
0
 10
43.3177
 20
109.217
 11
43.2165
 21
109.282
  0
LINE
  8
0
 10
43.2165
 20
109.282
 11
42.976
 21
109.417
  0
LINE
  8
0
 10
42.976
 20
109.417
 11
42.8671
 21
109.467
  0
LINE
  8
0
 10
42.8671
 20
109.467
 11
42.6167
 21
109.583
  0
LINE
  8
0
 10
42.6167
 20
109.583
 11
42.358
 21
109.678
  0
LINE
  8
0
 10
42.358
 20
109.678
 11
42.2433
 21
109.714
  0
LINE
  8
0
 10
42.2433
 20
109.714
 11
41.978
 21
109.788
  0
LINE
  8
0
 10
41.978
 20
109.788
 11
41.7076
 21
109.842
  0
LINE
  8
0
 10
41.7076
 20
109.842
 11
41.5892
 21
109.862
  0
LINE
  8
0
 10
41.5892
 20
109.862
 11
41.3154
 21
109.895
  0
LINE
  8
0
 10
41.3154
 20
109.895
 11
41.04
 21
109.905
  0
LINE
  8
0
 10
41.04
 20
109.905
 11
40.92
 21
109.909
  0
LINE
  8
0
 10
40.92
 20
109.909
 11
-40.98
 21
109.909
  0
LINE
  8
0
 10
-40.98
 20
109.909
 11
-41.2555
 21
109.899
  0
LINE
  8
0
 10
-41.2555
 20
109.899
 11
-41.375
 21
109.887
  0
LINE
  8
0
 10
-41.375
 20
109.887
 11
-41.6488
 21
109.854
  0
LINE
  8
0
 10
-41.6488
 20
109.854
 11
-41.9191
 21
109.8
  0
LINE
  8
0
 10
-41.9191
 20
109.8
 11
-42.036
 21
109.773
  0
LINE
  8
0
 10
-42.036
 20
109.773
 11
-42.3013
 21
109.698
  0
LINE
  8
0
 10
-42.3013
 20
109.698
 11
-42.5599
 21
109.602
  0
LINE
  8
0
 10
-42.5599
 20
109.602
 11
-42.672
 21
109.559
  0
LINE
  8
0
 10
-42.672
 20
109.559
 11
-42.9224
 21
109.444
  0
LINE
  8
0
 10
-42.9224
 20
109.444
 11
-43.0277
 21
109.386
  0
LINE
  8
0
 10
-43.0277
 20
109.386
 11
-43.2682
 21
109.251
  0
LINE
  8
0
 10
-43.2682
 20
109.251
 11
-43.4974
 21
109.098
  0
LINE
  8
0
 10
-43.4974
 20
109.098
 11
-43.5941
 21
109.027
  0
LINE
  8
0
 10
-43.5941
 20
109.027
 11
-43.8106
 21
108.856
  0
LINE
  8
0
 10
-43.8106
 20
108.856
 11
-44.013
 21
108.669
  0
LINE
  8
0
 10
-44.013
 20
108.669
 11
-44.0994
 21
108.586
  0
LINE
  8
0
 10
-44.0994
 20
108.586
 11
-44.2865
 21
108.383
  0
LINE
  8
0
 10
-44.2865
 20
108.383
 11
-44.3609
 21
108.289
  0
LINE
  8
0
 10
-44.3609
 20
108.289
 11
-44.5316
 21
108.072
  0
LINE
  8
0
 10
-44.5316
 20
108.072
 11
-44.6848
 21
107.843
  0
LINE
  8
0
 10
-44.6848
 20
107.843
 11
-44.746
 21
107.74
  0
LINE
  8
0
 10
-44.746
 20
107.74
 11
-44.8807
 21
107.499
  0
LINE
  8
0
 10
-44.8807
 20
107.499
 11
-44.9961
 21
107.249
  0
LINE
  8
0
 10
-44.9961
 20
107.249
 11
-45.043
 21
107.138
  0
LINE
  8
0
 10
-45.043
 20
107.138
 11
-45.1384
 21
106.88
  0
LINE
  8
0
 10
-45.1384
 20
106.88
 11
-45.2132
 21
106.615
  0
LINE
  8
0
 10
-45.2132
 20
106.615
 11
-45.245
 21
106.499
  0
LINE
  8
0
 10
-45.245
 20
106.499
 11
-45.2988
 21
106.228
  0
LINE
  8
0
 10
-45.2988
 20
106.228
 11
-45.3148
 21
106.109
  0
LINE
  8
0
 10
-45.3148
 20
106.109
 11
-45.3472
 21
105.836
  0
LINE
  8
0
 10
-45.3472
 20
105.836
 11
-45.358
 21
105.56
  0
LINE
  8
0
 10
-45.358
 20
105.56
 11
-45.358
 21
4.93994
  0
LINE
  8
0
 10
-45.358
 20
4.93994
 11
-45.3472
 21
4.66449
  0
LINE
  8
0
 10
-45.3472
 20
4.66449
 11
-45.3148
 21
4.39072
  0
LINE
  8
0
 10
-45.3148
 20
4.39072
 11
-45.2988
 21
4.27168
  0
LINE
  8
0
 10
-45.2988
 20
4.27168
 11
-45.245
 21
4.00131
  0
LINE
  8
0
 10
-45.245
 20
4.00131
 11
-45.2132
 21
3.88547
  0
LINE
  8
0
 10
-45.2132
 20
3.88547
 11
-45.1384
 21
3.62015
  0
LINE
  8
0
 10
-45.1384
 20
3.62015
 11
-45.043
 21
3.36151
  0
LINE
  8
0
 10
-45.043
 20
3.36151
 11
-44.9961
 21
3.25095
  0
LINE
  8
0
 10
-44.9961
 20
3.25095
 11
-44.8807
 21
3.00058
  0
LINE
  8
0
 10
-44.8807
 20
3.00058
 11
-44.746
 21
2.76006
  0
LINE
  8
0
 10
-44.746
 20
2.76006
 11
-44.6848
 21
2.65672
  0
LINE
  8
0
 10
-44.6848
 20
2.65672
 11
-44.5316
 21
2.42751
  0
LINE
  8
0
 10
-44.5316
 20
2.42751
 11
-44.3609
 21
2.211
  0
LINE
  8
0
 10
-44.3609
 20
2.211
 11
-44.2865
 21
2.11674
  0
LINE
  8
0
 10
-44.2865
 20
2.11674
 11
-44.0994
 21
1.91432
  0
LINE
  8
0
 10
-44.0994
 20
1.91432
 11
-44.013
 21
1.83083
  0
LINE
  8
0
 10
-44.013
 20
1.83083
 11
-43.8106
 21
1.64369
  0
LINE
  8
0
 10
-43.8106
 20
1.64369
 11
-43.5941
 21
1.47302
  0
LINE
  8
0
 10
-43.5941
 20
1.47302
 11
-43.4974
 21
1.40178
  0
LINE
  8
0
 10
-43.4974
 20
1.40178
 11
-43.2682
 21
1.24861
  0
LINE
  8
0
 10
-43.2682
 20
1.24861
 11
-43.0277
 21
1.11392
  0
LINE
  8
0
 10
-43.0277
 20
1.11392
 11
-42.9224
 21
1.0562
  0
LINE
  8
0
 10
-42.9224
 20
1.0562
 11
-42.672
 21
0.940781
  0
LINE
  8
0
 10
-42.672
 20
0.940781
 11
-42.5599
 21
0.897614
  0
LINE
  8
0
 10
-42.5599
 20
0.897614
 11
-42.3013
 21
0.8022
  0
LINE
  8
0
 10
-42.3013
 20
0.8022
 11
-42.036
 21
0.727371
  0
LINE
  8
0
 10
-42.036
 20
0.727371
 11
-41.9191
 21
0.699524
  0
LINE
  8
0
 10
-41.9191
 20
0.699524
 11
-41.6488
 21
0.645737
  0
LINE
  8
0
 10
-41.6488
 20
0.645737
 11
-41.375
 21
0.613342
  0
LINE
  8
0
 10
-41.375
 20
0.613342
 11
-41.2555
 21
0.601318
  0
LINE
  8
0
 10
-41.2555
 20
0.601318
 11
-40.98
 21
0.5905
  0
LINE
  8
0
 10
-40.98
 20
0.5905
 11
-10.5
 21
0.5905
  0
LINE
  8
0
 10
-10.5
 20
0.5905
 11
-10.5
 21
0.5
  0
LINE
  8
0
 10
-10.5
 20
0.5
 11
10.5
 21
0.5
  0
LINE
  8
0
 10
10.5
 20
0.5
 11
10.5
 21
0.5905
  0
LINE
  8
0
 10
-40.549
 20
103.553
 11
-40.9356
 21
103.634
  0
LINE
  8
0
 10
-40.9356
 20
103.634
 11
-41.2862
 21
103.815
  0
LINE
  8
0
 10
-41.2862
 20
103.815
 11
-41.5748
 21
104.085
  0
LINE
  8
0
 10
-41.5748
 20
104.085
 11
-41.78
 21
104.422
  0
LINE
  8
0
 10
-41.78
 20
104.422
 11
-41.8865
 21
104.803
  0
LINE
  8
0
 10
-41.8865
 20
104.803
 11
-41.8865
 21
105.197
  0
LINE
  8
0
 10
-41.8865
 20
105.197
 11
-41.78
 21
105.578
  0
LINE
  8
0
 10
-41.78
 20
105.578
 11
-41.5748
 21
105.915
  0
LINE
  8
0
 10
-41.5748
 20
105.915
 11
-41.2862
 21
106.185
  0
LINE
  8
0
 10
-41.2862
 20
106.185
 11
-40.9356
 21
106.366
  0
LINE
  8
0
 10
-40.9356
 20
106.366
 11
-40.549
 21
106.447
  0
LINE
  8
0
 10
-40.549
 20
106.447
 11
-40.155
 21
106.42
  0
LINE
  8
0
 10
-40.155
 20
106.42
 11
-39.7829
 21
106.287
  0
LINE
  8
0
 10
-39.7829
 20
106.287
 11
-39.4603
 21
106.06
  0
LINE
  8
0
 10
-39.4603
 20
106.06
 11
-39.2111
 21
105.753
  0
LINE
  8
0
 10
-39.2111
 20
105.753
 11
-39.0538
 21
105.391
  0
LINE
  8
0
 10
-39.0538
 20
105.391
 11
-39
 21
105
  0
LINE
  8
0
 10
-39
 20
105
 11
-39.0538
 21
104.609
  0
LINE
  8
0
 10
-39.0538
 20
104.609
 11
-39.2111
 21
104.247
  0
LINE
  8
0
 10
-39.2111
 20
104.247
 11
-39.4603
 21
103.94
  0
LINE
  8
0
 10
-39.4603
 20
103.94
 11
-39.7829
 21
103.713
  0
LINE
  8
0
 10
-39.7829
 20
103.713
 11
-40.155
 21
103.58
  0
LINE
  8
0
 10
-40.155
 20
103.58
 11
-40.549
 21
103.553
  0
LINE
  8
0
 10
40.351
 20
103.553
 11
39.9644
 21
103.634
  0
LINE
  8
0
 10
39.9644
 20
103.634
 11
39.6138
 21
103.815
  0
LINE
  8
0
 10
39.6138
 20
103.815
 11
39.3252
 21
104.085
  0
LINE
  8
0
 10
39.3252
 20
104.085
 11
39.12
 21
104.422
  0
LINE
  8
0
 10
39.12
 20
104.422
 11
39.0135
 21
104.803
  0
LINE
  8
0
 10
39.0135
 20
104.803
 11
39.0135
 21
105.197
  0
LINE
  8
0
 10
39.0135
 20
105.197
 11
39.12
 21
105.578
  0
LINE
  8
0
 10
39.12
 20
105.578
 11
39.3252
 21
105.915
  0
LINE
  8
0
 10
39.3252
 20
105.915
 11
39.6138
 21
106.185
  0
LINE
  8
0
 10
39.6138
 20
106.185
 11
39.9644
 21
106.366
  0
LINE
  8
0
 10
39.9644
 20
106.366
 11
40.351
 21
106.447
  0
LINE
  8
0
 10
40.351
 20
106.447
 11
40.745
 21
106.42
  0
LINE
  8
0
 10
40.745
 20
106.42
 11
41.1171
 21
106.287
  0
LINE
  8
0
 10
41.1171
 20
106.287
 11
41.4397
 21
106.06
  0
LINE
  8
0
 10
41.4397
 20
106.06
 11
41.6889
 21
105.753
  0
LINE
  8
0
 10
41.6889
 20
105.753
 11
41.8462
 21
105.391
  0
LINE
  8
0
 10
41.8462
 20
105.391
 11
41.9
 21
105
  0
LINE
  8
0
 10
41.9
 20
105
 11
41.8462
 21
104.609
  0
LINE
  8
0
 10
41.8462
 20
104.609
 11
41.6889
 21
104.247
  0
LINE
  8
0
 10
41.6889
 20
104.247
 11
41.4397
 21
103.94
  0
LINE
  8
0
 10
41.4397
 20
103.94
 11
41.1171
 21
103.713
  0
LINE
  8
0
 10
41.1171
 20
103.713
 11
40.745
 21
103.58
  0
LINE
  8
0
 10
40.745
 20
103.58
 11
40.351
 21
103.553
  0
LINE
  8
0
 10
-11.55
 20
89.6
 11
-11.9027
 21
89.7146
  0
LINE
  8
0
 10
-11.9027
 20
89.7146
 11
-12.15
 21
90.2
  0
LINE
  8
0
 10
-12.15
 20
90.2
 11
-12.15
 21
93.8
  0
LINE
  8
0
 10
-12.15
 20
93.8
 11
-12.0354
 21
94.1527
  0
LINE
  8
0
 10
-12.0354
 20
94.1527
 11
-11.55
 21
94.4
  0
LINE
  8
0
 10
-11.55
 20
94.4
 11
1.54999
 21
94.4
  0
LINE
  8
0
 10
1.54999
 20
94.4
 11
1.90266
 21
94.2854
  0
LINE
  8
0
 10
1.90266
 20
94.2854
 11
2.14999
 21
93.8
  0
LINE
  8
0
 10
2.14999
 20
93.8
 11
2.14999
 21
90.2
  0
LINE
  8
0
 10
2.14999
 20
90.2
 11
2.0354
 21
89.8473
  0
LINE
  8
0
 10
2.0354
 20
89.8473
 11
1.54999
 21
89.6
  0
LINE
  8
0
 10
1.54999
 20
89.6
 11
-11.55
 21
89.6
  0
LINE
  8
0
 10
-39.4603
 20
4.44028
 11
-39.7829
 21
4.21255
  0
LINE
  8
0
 10
-39.7829
 20
4.21255
 11
-40.155
 21
4.08032
  0
LINE
  8
0
 10
-40.155
 20
4.08032
 11
-40.549
 21
4.05338
  0
LINE
  8
0
 10
-40.549
 20
4.05338
 11
-40.9356
 21
4.13371
  0
LINE
  8
0
 10
-40.9356
 20
4.13371
 11
-41.2862
 21
4.31538
  0
LINE
  8
0
 10
-41.2862
 20
4.31538
 11
-41.5748
 21
4.58492
  0
LINE
  8
0
 10
-41.5748
 20
4.58492
 11
-41.78
 21
4.92232
  0
LINE
  8
0
 10
-41.78
 20
4.92232
 11
-41.8865
 21
5.30255
  0
LINE
  8
0
 10
-41.8865
 20
5.30255
 11
-41.8865
 21
5.69743
  0
LINE
  8
0
 10
-41.8865
 20
5.69743
 11
-41.78
 21
6.07767
  0
LINE
  8
0
 10
-41.78
 20
6.07767
 11
-41.5748
 21
6.41507
  0
LINE
  8
0
 10
-41.5748
 20
6.41507
 11
-41.2862
 21
6.6846
  0
LINE
  8
0
 10
-41.2862
 20
6.6846
 11
-40.9356
 21
6.86627
  0
LINE
  8
0
 10
-40.9356
 20
6.86627
 11
-40.549
 21
6.94661
  0
LINE
  8
0
 10
-40.549
 20
6.94661
 11
-40.155
 21
6.91966
  0
LINE
  8
0
 10
-40.155
 20
6.91966
 11
-39.7829
 21
6.78743
  0
LINE
  8
0
 10
-39.7829
 20
6.78743
 11
-39.4603
 21
6.55971
  0
LINE
  8
0
 10
-39.4603
 20
6.55971
 11
-39.2111
 21
6.25339
  0
LINE
  8
0
 10
-39.2111
 20
6.25339
 11
-39.0538
 21
5.8912
  0
LINE
  8
0
 10
-39.0538
 20
5.8912
 11
-39
 21
5.5
  0
LINE
  8
0
 10
-39
 20
5.5
 11
-39.0538
 21
5.10878
  0
LINE
  8
0
 10
-39.0538
 20
5.10878
 11
-39.2111
 21
4.7466
  0
LINE
  8
0
 10
-39.2111
 20
4.7466
 11
-39.4603
 21
4.44028
  0
LINE
  8
0
 10
40.351
 20
4.05338
 11
39.9644
 21
4.13371
  0
LINE
  8
0
 10
39.9644
 20
4.13371
 11
39.6138
 21
4.31538
  0
LINE
  8
0
 10
39.6138
 20
4.31538
 11
39.3252
 21
4.58492
  0
LINE
  8
0
 10
39.3252
 20
4.58492
 11
39.12
 21
4.92232
  0
LINE
  8
0
 10
39.12
 20
4.92232
 11
39.0135
 21
5.30255
  0
LINE
  8
0
 10
39.0135
 20
5.30255
 11
39.0135
 21
5.69743
  0
LINE
  8
0
 10
39.0135
 20
5.69743
 11
39.12
 21
6.07767
  0
LINE
  8
0
 10
39.12
 20
6.07767
 11
39.3252
 21
6.41507
  0
LINE
  8
0
 10
39.3252
 20
6.41507
 11
39.6138
 21
6.6846
  0
LINE
  8
0
 10
39.6138
 20
6.6846
 11
39.9644
 21
6.86627
  0
LINE
  8
0
 10
39.9644
 20
6.86627
 11
40.351
 21
6.94661
  0
LINE
  8
0
 10
40.351
 20
6.94661
 11
40.745
 21
6.91966
  0
LINE
  8
0
 10
40.745
 20
6.91966
 11
41.1171
 21
6.78743
  0
LINE
  8
0
 10
41.1171
 20
6.78743
 11
41.4397
 21
6.55971
  0
LINE
  8
0
 10
41.4397
 20
6.55971
 11
41.6889
 21
6.25339
  0
LINE
  8
0
 10
41.6889
 20
6.25339
 11
41.8462
 21
5.8912
  0
LINE
  8
0
 10
41.8462
 20
5.8912
 11
41.9
 21
5.5
  0
LINE
  8
0
 10
41.9
 20
5.5
 11
41.8462
 21
5.10878
  0
LINE
  8
0
 10
41.8462
 20
5.10878
 11
41.6889
 21
4.7466
  0
LINE
  8
0
 10
41.6889
 20
4.7466
 11
41.4397
 21
4.44028
  0
LINE
  8
0
 10
41.4397
 20
4.44028
 11
41.1171
 21
4.21255
  0
LINE
  8
0
 10
41.1171
 20
4.21255
 11
40.745
 21
4.08032
  0
LINE
  8
0
 10
40.745
 20
4.08032
 11
40.351
 21
4.05338
  0
ENDSEC
  0
SECTION
  2
OBJECTS
  0
DICTIONARY
  0
ENDSEC
  0
EOF
