999
DXF from OpenSCAD
  0
SECTION
  2
HEADER
  9
$ACADVER
  1
AC1006
  9
$INSBASE
 10
0.0
 20
0.0
 30
0.0
  9
$EXTMIN
 10
-43.3
 20
1.9
  9
$EXTMAX
 10
40
 20
102.35
  9
$LINMIN
 10
-43.3
 20
1.9
  9
$LINMAX
 10
40
 20
102.35
  0
ENDSEC
  0
SECTION
  2
TABLES
  0
TABLE
  2
LTYPE
 70
1
  0
LTYPE
  2
CONTINUOUS
 70
64
  3
Solid line
 72
65
 73
0
 40
0.000000
  0
ENDTAB
  0
TABLE
  2
LAYER
 70
6
  0
LAYER
  2
0
 70
64
 62
7
  6
CONTINUOUS
  0
ENDTAB
  0
TABLE
  2
STYLE
 70
0
  0
ENDTAB
  0
ENDSEC
  0
SECTION
  2
BLOCKS
  0
ENDSEC
  0
SECTION
  2
ENTITIES
  0
LWPOLYLINE
100
AcDbEntity
  8
0
100
AcDbPolyline
 90
48
 70
1
 10
10.5
 20
8.15
 10
37.5
 20
8.15
 10
37.8911
 20
8.18078
 10
38.2725
 20
8.27236
 10
38.635
 20
8.42248
 10
38.9695
 20
8.62746
 10
39.2678
 20
8.88223
 10
39.5225
 20
9.18054
 10
39.7275
 20
9.51502
 10
39.8776
 20
9.87746
 10
39.9692
 20
10.2589
 10
40
 20
10.65
 10
40
 20
99.85
 10
39.9692
 20
100.241
 10
39.8776
 20
100.623
 10
39.7275
 20
100.985
 10
39.5225
 20
101.319
 10
39.2678
 20
101.618
 10
38.9695
 20
101.873
 10
38.635
 20
102.078
 10
38.2725
 20
102.228
 10
37.8911
 20
102.319
 10
37.5
 20
102.35
 10
-40.8
 20
102.35
 10
-41.1911
 20
102.319
 10
-41.5725
 20
102.228
 10
-41.935
 20
102.078
 10
-42.2695
 20
101.873
 10
-42.5678
 20
101.618
 10
-42.8225
 20
101.319
 10
-43.0275
 20
100.985
 10
-43.1776
 20
100.623
 10
-43.2692
 20
100.241
 10
-43.3
 20
99.85
 10
-43.3
 20
10.65
 10
-43.2692
 20
10.2589
 10
-43.1776
 20
9.87746
 10
-43.0275
 20
9.51502
 10
-42.8225
 20
9.18054
 10
-42.5678
 20
8.88223
 10
-42.2695
 20
8.62746
 10
-41.935
 20
8.42248
 10
-41.5725
 20
8.27236
 10
-41.1911
 20
8.18078
 10
-40.8
 20
8.15
 10
-10.5
 20
8.15
 10
-10.5
 20
1.9
 10
10.5
 20
1.9
  0
LWPOLYLINE
100
AcDbEntity
  8
0
100
AcDbPolyline
 90
23
 70
1
 10
8.32942
 20
92.4437
 10
7.97881
 20
92.6254
 10
7.69022
 20
92.8949
 10
7.48504
 20
93.2323
 10
7.37851
 20
93.6126
 10
7.37851
 20
94.0074
 10
7.48504
 20
94.3877
 10
7.69022
 20
94.7251
 10
7.97881
 20
94.9946
 10
8.32942
 20
95.1763
 10
8.71605
 20
95.2566
 10
9.11001
 20
95.2297
 10
9.48209
 20
95.0974
 10
9.8047
 20
94.8697
 10
10.0539
 20
94.5634
 10
10.2112
 20
94.2012
 10
10.265
 20
93.81
 10
10.2112
 20
93.4188
 10
10.0539
 20
93.0566
 10
9.8047
 20
92.7503
 10
9.48209
 20
92.5226
 10
9.11001
 20
92.3903
 10
8.71605
 20
92.3634
  0
LWPOLYLINE
100
AcDbEntity
  8
0
100
AcDbPolyline
 90
23
 70
1
 10
34.9994
 20
92.4437
 10
34.6488
 20
92.6254
 10
34.3602
 20
92.8949
 10
34.155
 20
93.2323
 10
34.0485
 20
93.6126
 10
34.0485
 20
94.0074
 10
34.155
 20
94.3877
 10
34.3602
 20
94.7251
 10
34.6488
 20
94.9946
 10
34.9994
 20
95.1763
 10
35.386
 20
95.2566
 10
35.78
 20
95.2297
 10
36.1521
 20
95.0974
 10
36.4747
 20
94.8697
 10
36.7239
 20
94.5634
 10
36.8812
 20
94.2012
 10
36.935
 20
93.81
 10
36.8812
 20
93.4188
 10
36.7239
 20
93.0566
 10
36.4747
 20
92.7503
 10
36.1521
 20
92.5226
 10
35.78
 20
92.3903
 10
35.386
 20
92.3634
  0
LWPOLYLINE
100
AcDbEntity
  8
0
100
AcDbPolyline
 90
4
 70
1
 10
-12.4
 20
87.7
 10
-12.4
 20
95
 10
2.4
 20
95
 10
2.4
 20
87.7
  0
LWPOLYLINE
100
AcDbEntity
  8
0
100
AcDbPolyline
 90
23
 70
1
 10
8.32942
 20
72.1237
 10
7.97881
 20
72.3054
 10
7.69022
 20
72.5749
 10
7.48504
 20
72.9123
 10
7.37851
 20
73.2926
 10
7.37851
 20
73.6874
 10
7.48504
 20
74.0677
 10
7.69022
 20
74.4051
 10
7.97881
 20
74.6746
 10
8.32942
 20
74.8563
 10
8.71605
 20
74.9366
 10
9.11001
 20
74.9097
 10
9.48209
 20
74.7774
 10
9.8047
 20
74.5497
 10
10.0539
 20
74.2434
 10
10.2112
 20
73.8812
 10
10.265
 20
73.49
 10
10.2112
 20
73.0988
 10
10.0539
 20
72.7366
 10
9.8047
 20
72.4303
 10
9.48209
 20
72.2026
 10
9.11001
 20
72.0703
 10
8.71605
 20
72.0434
  0
LWPOLYLINE
100
AcDbEntity
  8
0
100
AcDbPolyline
 90
23
 70
1
 10
34.9994
 20
72.1237
 10
34.6488
 20
72.3054
 10
34.3602
 20
72.5749
 10
34.155
 20
72.9123
 10
34.0485
 20
73.2926
 10
34.0485
 20
73.6874
 10
34.155
 20
74.0677
 10
34.3602
 20
74.4051
 10
34.6488
 20
74.6746
 10
34.9994
 20
74.8563
 10
35.386
 20
74.9366
 10
35.78
 20
74.9097
 10
36.1521
 20
74.7774
 10
36.4747
 20
74.5497
 10
36.7239
 20
74.2434
 10
36.8812
 20
73.8812
 10
36.935
 20
73.49
 10
36.8812
 20
73.0988
 10
36.7239
 20
72.7366
 10
36.4747
 20
72.4303
 10
36.1521
 20
72.2026
 10
35.78
 20
72.0703
 10
35.386
 20
72.0434
  0
LWPOLYLINE
100
AcDbEntity
  8
0
100
AcDbPolyline
 90
20
 70
1
 10
-9
 20
11.3
 10
-9
 20
54
 10
-7
 20
54
 10
-7
 20
56.9566
 10
-9.1
 20
56.9566
 10
-9.1
 20
59.0434
 10
-7
 20
59.0434
 10
-7
 20
62
 10
-9
 20
62
 10
-9
 20
63.5
 10
9
 20
63.5
 10
9
 20
62
 10
7
 20
62
 10
7
 20
59.0434
 10
9.1
 20
59.0434
 10
9.1
 20
56.9566
 10
7
 20
56.9566
 10
7
 20
54
 10
9
 20
54
 10
9
 20
11.3
  0
ENDSEC
  0
EOF
