  0
SECTION
  2
BLOCKS
  0
ENDSEC
  0
SECTION
  2
ENTITIES
  0
LINE
  8
0
 10
-43.3
 20
10.65
 11
-43.2692
 21
10.2589
  0
LINE
  8
0
 10
-43.2692
 20
10.2589
 11
-43.1776
 21
9.87747
  0
LINE
  8
0
 10
-43.1776
 20
9.87747
 11
-43.0275
 21
9.51503
  0
LINE
  8
0
 10
-43.0275
 20
9.51503
 11
-42.8225
 21
9.18054
  0
LINE
  8
0
 10
-42.8225
 20
9.18054
 11
-42.5678
 21
8.88225
  0
LINE
  8
0
 10
-42.5678
 20
8.88225
 11
-42.2695
 21
8.62747
  0
LINE
  8
0
 10
-42.2695
 20
8.62747
 11
-41.935
 21
8.42249
  0
LINE
  8
0
 10
-41.935
 20
8.42249
 11
-41.5725
 21
8.27237
  0
LINE
  8
0
 10
-41.5725
 20
8.27237
 11
-41.1911
 21
8.18079
  0
LINE
  8
0
 10
-41.1911
 20
8.18079
 11
-40.8
 21
8.15001
  0
LINE
  8
0
 10
-40.8
 20
8.15001
 11
-10.5
 21
8.15001
  0
LINE
  8
0
 10
-10.5
 20
8.15001
 11
-10.5
 21
0.5
  0
LINE
  8
0
 10
-10.5
 20
0.5
 11
10.5
 21
0.5
  0
LINE
  8
0
 10
10.5
 20
0.5
 11
10.5
 21
8.15001
  0
LINE
  8
0
 10
10.5
 20
8.15001
 11
37.5
 21
8.15001
  0
LINE
  8
0
 10
37.5
 20
8.15001
 11
37.8911
 21
8.18079
  0
LINE
  8
0
 10
37.8911
 20
8.18079
 11
38.2725
 21
8.27237
  0
LINE
  8
0
 10
38.2725
 20
8.27237
 11
38.635
 21
8.42249
  0
LINE
  8
0
 10
38.635
 20
8.42249
 11
38.9695
 21
8.62747
  0
LINE
  8
0
 10
38.9695
 20
8.62747
 11
39.2678
 21
8.88225
  0
LINE
  8
0
 10
39.2678
 20
8.88225
 11
39.5225
 21
9.18054
  0
LINE
  8
0
 10
39.5225
 20
9.18054
 11
39.7275
 21
9.51503
  0
LINE
  8
0
 10
39.7275
 20
9.51503
 11
39.8776
 21
9.87747
  0
LINE
  8
0
 10
39.8776
 20
9.87747
 11
39.9692
 21
10.2589
  0
LINE
  8
0
 10
39.9692
 20
10.2589
 11
40
 21
10.65
  0
LINE
  8
0
 10
40
 20
10.65
 11
40
 21
99.85
  0
LINE
  8
0
 10
40
 20
99.85
 11
39.9692
 21
100.241
  0
LINE
  8
0
 10
39.9692
 20
100.241
 11
39.8776
 21
100.623
  0
LINE
  8
0
 10
39.8776
 20
100.623
 11
39.7275
 21
100.985
  0
LINE
  8
0
 10
39.7275
 20
100.985
 11
39.5225
 21
101.319
  0
LINE
  8
0
 10
39.5225
 20
101.319
 11
39.2678
 21
101.618
  0
LINE
  8
0
 10
39.2678
 20
101.618
 11
38.9695
 21
101.873
  0
LINE
  8
0
 10
38.9695
 20
101.873
 11
38.635
 21
102.078
  0
LINE
  8
0
 10
38.635
 20
102.078
 11
38.2725
 21
102.228
  0
LINE
  8
0
 10
38.2725
 20
102.228
 11
37.8911
 21
102.319
  0
LINE
  8
0
 10
37.8911
 20
102.319
 11
37.5
 21
102.35
  0
LINE
  8
0
 10
37.5
 20
102.35
 11
-40.8
 21
102.35
  0
LINE
  8
0
 10
-40.8
 20
102.35
 11
-41.1911
 21
102.319
  0
LINE
  8
0
 10
-41.1911
 20
102.319
 11
-41.5725
 21
102.228
  0
LINE
  8
0
 10
-41.5725
 20
102.228
 11
-41.935
 21
102.078
  0
LINE
  8
0
 10
-41.935
 20
102.078
 11
-42.2695
 21
101.873
  0
LINE
  8
0
 10
-42.2695
 20
101.873
 11
-42.5678
 21
101.618
  0
LINE
  8
0
 10
-42.5678
 20
101.618
 11
-42.8225
 21
101.319
  0
LINE
  8
0
 10
-42.8225
 20
101.319
 11
-43.0275
 21
100.985
  0
LINE
  8
0
 10
-43.0275
 20
100.985
 11
-43.1776
 21
100.623
  0
LINE
  8
0
 10
-43.1776
 20
100.623
 11
-43.2692
 21
100.241
  0
LINE
  8
0
 10
-43.2692
 20
100.241
 11
-43.3
 21
99.85
  0
LINE
  8
0
 10
-43.3
 20
99.85
 11
-43.3
 21
10.65
  0
LINE
  8
0
 10
-12.75
 20
89
 11
-12.75
 21
95
  0
LINE
  8
0
 10
-12.75
 20
95
 11
2.75
 21
95
  0
LINE
  8
0
 10
2.75
 20
95
 11
2.75
 21
89
  0
LINE
  8
0
 10
2.75
 20
89
 11
-12.75
 21
89
  0
LINE
  8
0
 10
-9.1
 20
56.9566
 11
-9.1
 21
59.0434
  0
LINE
  8
0
 10
-9.1
 20
59.0434
 11
-7
 21
59.0434
  0
LINE
  8
0
 10
-7
 20
59.0434
 11
-7
 21
62
  0
LINE
  8
0
 10
-7
 20
62
 11
-9
 21
62
  0
LINE
  8
0
 10
-9
 20
62
 11
-9
 21
63.5
  0
LINE
  8
0
 10
-9
 20
63.5
 11
9
 21
63.5
  0
LINE
  8
0
 10
9
 20
63.5
 11
9
 21
62
  0
LINE
  8
0
 10
9
 20
62
 11
7
 21
62
  0
LINE
  8
0
 10
7
 20
62
 11
7
 21
59.0434
  0
LINE
  8
0
 10
7
 20
59.0434
 11
9.1
 21
59.0434
  0
LINE
  8
0
 10
9.1
 20
59.0434
 11
9.1
 21
56.9566
  0
LINE
  8
0
 10
9.1
 20
56.9566
 11
7
 21
56.9566
  0
LINE
  8
0
 10
7
 20
56.9566
 11
7
 21
54
  0
LINE
  8
0
 10
7
 20
54
 11
9
 21
54
  0
LINE
  8
0
 10
9
 20
54
 11
9
 21
9.5
  0
LINE
  8
0
 10
9
 20
9.5
 11
-9
 21
9.5
  0
LINE
  8
0
 10
-9
 20
9.5
 11
-9
 21
54
  0
LINE
  8
0
 10
-9
 20
54
 11
-7
 21
54
  0
LINE
  8
0
 10
-7
 20
54
 11
-7
 21
56.9566
  0
LINE
  8
0
 10
-7
 20
56.9566
 11
-9.1
 21
56.9566
  0
ENDSEC
  0
SECTION
  2
OBJECTS
  0
DICTIONARY
  0
ENDSEC
  0
EOF
