  0
SECTION
  2
BLOCKS
  0
ENDSEC
  0
SECTION
  2
ENTITIES
  0
LINE
  8
0
 10
40.8506
 20
0.000991821
 11
41.2481
 21
0.00889587
  0
LINE
  8
0
 10
41.2481
 20
0.00889587
 11
41.6437
 21
0.0483551
  0
LINE
  8
0
 10
41.6437
 20
0.0483551
 11
42.0349
 21
0.119125
  0
LINE
  8
0
 10
42.0349
 20
0.119125
 11
42.4193
 21
0.220749
  0
LINE
  8
0
 10
42.4193
 20
0.220749
 11
42.7943
 21
0.352585
  0
LINE
  8
0
 10
42.7943
 20
0.352585
 11
43.1577
 21
0.513809
  0
LINE
  8
0
 10
43.1577
 20
0.513809
 11
43.5072
 21
0.7034
  0
LINE
  8
0
 10
43.5072
 20
0.7034
 11
43.8405
 21
0.920151
  0
LINE
  8
0
 10
43.8405
 20
0.920151
 11
44.1555
 21
1.16269
  0
LINE
  8
0
 10
44.1555
 20
1.16269
 11
44.4502
 21
1.4295
  0
LINE
  8
0
 10
44.4502
 20
1.4295
 11
44.7228
 21
1.71887
  0
LINE
  8
0
 10
44.7228
 20
1.71887
 11
44.9716
 21
2.02901
  0
LINE
  8
0
 10
44.9716
 20
2.02901
 11
45.1949
 21
2.35791
  0
LINE
  8
0
 10
45.1949
 20
2.35791
 11
45.3914
 21
2.70352
  0
LINE
  8
0
 10
45.3914
 20
2.70352
 11
45.5598
 21
3.06364
  0
LINE
  8
0
 10
45.5598
 20
3.06364
 11
45.6991
 21
3.43602
  0
LINE
  8
0
 10
45.6991
 20
3.43602
 11
45.8083
 21
3.81828
  0
LINE
  8
0
 10
45.8083
 20
3.81828
 11
45.8869
 21
4.20802
  0
LINE
  8
0
 10
45.8869
 20
4.20802
 11
45.9342
 21
4.60275
  0
LINE
  8
0
 10
45.9342
 20
4.60275
 11
45.95
 21
5
  0
LINE
  8
0
 10
45.95
 20
5
 11
45.95
 21
105.5
  0
LINE
  8
0
 10
45.95
 20
105.5
 11
45.9342
 21
105.897
  0
LINE
  8
0
 10
45.9342
 20
105.897
 11
45.8869
 21
106.292
  0
LINE
  8
0
 10
45.8869
 20
106.292
 11
45.8083
 21
106.682
  0
LINE
  8
0
 10
45.8083
 20
106.682
 11
45.6991
 21
107.064
  0
LINE
  8
0
 10
45.6991
 20
107.064
 11
45.5598
 21
107.436
  0
LINE
  8
0
 10
45.5598
 20
107.436
 11
45.3914
 21
107.796
  0
LINE
  8
0
 10
45.3914
 20
107.796
 11
45.1949
 21
108.142
  0
LINE
  8
0
 10
45.1949
 20
108.142
 11
44.9716
 21
108.471
  0
LINE
  8
0
 10
44.9716
 20
108.471
 11
44.7228
 21
108.781
  0
LINE
  8
0
 10
44.7228
 20
108.781
 11
44.4502
 21
109.07
  0
LINE
  8
0
 10
44.4502
 20
109.07
 11
44.1555
 21
109.337
  0
LINE
  8
0
 10
44.1555
 20
109.337
 11
43.8405
 21
109.58
  0
LINE
  8
0
 10
43.8405
 20
109.58
 11
43.5072
 21
109.797
  0
LINE
  8
0
 10
43.5072
 20
109.797
 11
43.1577
 21
109.986
  0
LINE
  8
0
 10
43.1577
 20
109.986
 11
42.7943
 21
110.147
  0
LINE
  8
0
 10
42.7943
 20
110.147
 11
42.4193
 21
110.279
  0
LINE
  8
0
 10
42.4193
 20
110.279
 11
42.0349
 21
110.381
  0
LINE
  8
0
 10
42.0349
 20
110.381
 11
41.6437
 21
110.452
  0
LINE
  8
0
 10
41.6437
 20
110.452
 11
41.2481
 21
110.491
  0
LINE
  8
0
 10
41.2481
 20
110.491
 11
40.8506
 21
110.499
  0
LINE
  8
0
 10
40.8506
 20
110.499
 11
-41.0494
 21
110.499
  0
LINE
  8
0
 10
-41.0494
 20
110.499
 11
-41.4463
 21
110.475
  0
LINE
  8
0
 10
-41.4463
 20
110.475
 11
-41.84
 21
110.42
  0
LINE
  8
0
 10
-41.84
 20
110.42
 11
-42.2281
 21
110.334
  0
LINE
  8
0
 10
-42.2281
 20
110.334
 11
-42.6081
 21
110.217
  0
LINE
  8
0
 10
-42.6081
 20
110.217
 11
-42.9776
 21
110.07
  0
LINE
  8
0
 10
-42.9776
 20
110.07
 11
-43.3343
 21
109.895
  0
LINE
  8
0
 10
-43.3343
 20
109.895
 11
-43.676
 21
109.692
  0
LINE
  8
0
 10
-43.676
 20
109.692
 11
-44.0004
 21
109.462
  0
LINE
  8
0
 10
-44.0004
 20
109.462
 11
-44.3055
 21
109.207
  0
LINE
  8
0
 10
-44.3055
 20
109.207
 11
-44.5894
 21
108.929
  0
LINE
  8
0
 10
-44.5894
 20
108.929
 11
-44.8503
 21
108.629
  0
LINE
  8
0
 10
-44.8503
 20
108.629
 11
-45.0865
 21
108.309
  0
LINE
  8
0
 10
-45.0865
 20
108.309
 11
-45.2966
 21
107.971
  0
LINE
  8
0
 10
-45.2966
 20
107.971
 11
-45.4792
 21
107.618
  0
LINE
  8
0
 10
-45.4792
 20
107.618
 11
-45.6332
 21
107.252
  0
LINE
  8
0
 10
-45.6332
 20
107.252
 11
-45.7575
 21
106.874
  0
LINE
  8
0
 10
-45.7575
 20
106.874
 11
-45.8515
 21
106.488
  0
LINE
  8
0
 10
-45.8515
 20
106.488
 11
-45.9145
 21
106.095
  0
LINE
  8
0
 10
-45.9145
 20
106.095
 11
-45.946
 21
105.699
  0
LINE
  8
0
 10
-45.946
 20
105.699
 11
-45.946
 21
4.80122
  0
LINE
  8
0
 10
-45.946
 20
4.80122
 11
-45.9145
 21
4.40492
  0
LINE
  8
0
 10
-45.9145
 20
4.40492
 11
-45.8515
 21
4.01237
  0
LINE
  8
0
 10
-45.8515
 20
4.01237
 11
-45.7575
 21
3.62607
  0
LINE
  8
0
 10
-45.7575
 20
3.62607
 11
-45.6332
 21
3.24846
  0
LINE
  8
0
 10
-45.6332
 20
3.24846
 11
-45.4792
 21
2.88191
  0
LINE
  8
0
 10
-45.4792
 20
2.88191
 11
-45.2966
 21
2.52876
  0
LINE
  8
0
 10
-45.2966
 20
2.52876
 11
-45.0865
 21
2.19124
  0
LINE
  8
0
 10
-45.0865
 20
2.19124
 11
-44.8503
 21
1.87146
  0
LINE
  8
0
 10
-44.8503
 20
1.87146
 11
-44.5894
 21
1.57147
  0
LINE
  8
0
 10
-44.5894
 20
1.57147
 11
-44.3055
 21
1.29317
  0
LINE
  8
0
 10
-44.3055
 20
1.29317
 11
-44.0004
 21
1.03828
  0
LINE
  8
0
 10
-44.0004
 20
1.03828
 11
-43.676
 21
0.808456
  0
LINE
  8
0
 10
-43.676
 20
0.808456
 11
-43.3343
 21
0.605133
  0
LINE
  8
0
 10
-43.3343
 20
0.605133
 11
-42.9776
 21
0.429596
  0
LINE
  8
0
 10
-42.9776
 20
0.429596
 11
-42.6081
 21
0.282944
  0
LINE
  8
0
 10
-42.6081
 20
0.282944
 11
-42.2281
 21
0.166122
  0
LINE
  8
0
 10
-42.2281
 20
0.166122
 11
-41.84
 21
0.0798492
  0
LINE
  8
0
 10
-41.84
 20
0.0798492
 11
-41.4463
 21
0.024704
  0
LINE
  8
0
 10
-41.4463
 20
0.024704
 11
-41.0494
 21
0.000991821
  0
LINE
  8
0
 10
-41.0494
 20
0.000991821
 11
40.8506
 21
0.000991821
  0
LINE
  8
0
 10
-29.5
 20
11.55
 11
-29.8916
 21
11.5757
  0
LINE
  8
0
 10
-29.8916
 20
11.5757
 11
-30.2764
 21
11.6522
  0
LINE
  8
0
 10
-30.2764
 20
11.6522
 11
-30.648
 21
11.7784
  0
LINE
  8
0
 10
-30.648
 20
11.7784
 11
-31
 21
11.9519
  0
LINE
  8
0
 10
-31
 20
11.9519
 11
-31.3263
 21
12.17
  0
LINE
  8
0
 10
-31.3263
 20
12.17
 11
-31.6213
 21
12.4287
  0
LINE
  8
0
 10
-31.6213
 20
12.4287
 11
-31.8801
 21
12.7237
  0
LINE
  8
0
 10
-31.8801
 20
12.7237
 11
-32.0981
 21
13.05
  0
LINE
  8
0
 10
-32.0981
 20
13.05
 11
-32.2716
 21
13.402
  0
LINE
  8
0
 10
-32.2716
 20
13.402
 11
-32.3978
 21
13.7735
  0
LINE
  8
0
 10
-32.3978
 20
13.7735
 11
-32.4743
 21
14.1584
  0
LINE
  8
0
 10
-32.4743
 20
14.1584
 11
-32.5
 21
14.55
  0
LINE
  8
0
 10
-32.5
 20
14.55
 11
-32.5
 21
95.95
  0
LINE
  8
0
 10
-32.5
 20
95.95
 11
-32.4743
 21
96.3416
  0
LINE
  8
0
 10
-32.4743
 20
96.3416
 11
-32.3978
 21
96.7265
  0
LINE
  8
0
 10
-32.3978
 20
96.7265
 11
-32.2716
 21
97.098
  0
LINE
  8
0
 10
-32.2716
 20
97.098
 11
-32.0981
 21
97.45
  0
LINE
  8
0
 10
-32.0981
 20
97.45
 11
-31.8801
 21
97.7763
  0
LINE
  8
0
 10
-31.8801
 20
97.7763
 11
-31.6213
 21
98.0713
  0
LINE
  8
0
 10
-31.6213
 20
98.0713
 11
-31.3263
 21
98.33
  0
LINE
  8
0
 10
-31.3263
 20
98.33
 11
-31
 21
98.5481
  0
LINE
  8
0
 10
-31
 20
98.5481
 11
-30.648
 21
98.7216
  0
LINE
  8
0
 10
-30.648
 20
98.7216
 11
-30.2764
 21
98.8478
  0
LINE
  8
0
 10
-30.2764
 20
98.8478
 11
-29.8916
 21
98.9243
  0
LINE
  8
0
 10
-29.8916
 20
98.9243
 11
-29.5
 21
98.95
  0
LINE
  8
0
 10
-29.5
 20
98.95
 11
29.5
 21
98.95
  0
LINE
  8
0
 10
29.5
 20
98.95
 11
29.8916
 21
98.9243
  0
LINE
  8
0
 10
29.8916
 20
98.9243
 11
30.2764
 21
98.8478
  0
LINE
  8
0
 10
30.2764
 20
98.8478
 11
30.648
 21
98.7216
  0
LINE
  8
0
 10
30.648
 20
98.7216
 11
31
 21
98.5481
  0
LINE
  8
0
 10
31
 20
98.5481
 11
31.3263
 21
98.33
  0
LINE
  8
0
 10
31.3263
 20
98.33
 11
31.6213
 21
98.0713
  0
LINE
  8
0
 10
31.6213
 20
98.0713
 11
31.8801
 21
97.7763
  0
LINE
  8
0
 10
31.8801
 20
97.7763
 11
32.0981
 21
97.45
  0
LINE
  8
0
 10
32.0981
 20
97.45
 11
32.2716
 21
97.098
  0
LINE
  8
0
 10
32.2716
 20
97.098
 11
32.3978
 21
96.7265
  0
LINE
  8
0
 10
32.3978
 20
96.7265
 11
32.4743
 21
96.3416
  0
LINE
  8
0
 10
32.4743
 20
96.3416
 11
32.5
 21
95.95
  0
LINE
  8
0
 10
32.5
 20
95.95
 11
32.5
 21
14.55
  0
LINE
  8
0
 10
32.5
 20
14.55
 11
32.4743
 21
14.1584
  0
LINE
  8
0
 10
32.4743
 20
14.1584
 11
32.3978
 21
13.7735
  0
LINE
  8
0
 10
32.3978
 20
13.7735
 11
32.2716
 21
13.402
  0
LINE
  8
0
 10
32.2716
 20
13.402
 11
32.0981
 21
13.05
  0
LINE
  8
0
 10
32.0981
 20
13.05
 11
31.8801
 21
12.7237
  0
LINE
  8
0
 10
31.8801
 20
12.7237
 11
31.6213
 21
12.4287
  0
LINE
  8
0
 10
31.6213
 20
12.4287
 11
31.3263
 21
12.17
  0
LINE
  8
0
 10
31.3263
 20
12.17
 11
31
 21
11.9519
  0
LINE
  8
0
 10
31
 20
11.9519
 11
30.648
 21
11.7784
  0
LINE
  8
0
 10
30.648
 20
11.7784
 11
30.2764
 21
11.6522
  0
LINE
  8
0
 10
30.2764
 20
11.6522
 11
29.8916
 21
11.5757
  0
LINE
  8
0
 10
29.8916
 20
11.5757
 11
29.5
 21
11.55
  0
LINE
  8
0
 10
29.5
 20
11.55
 11
-29.5
 21
11.55
  0
ENDSEC
  0
SECTION
  2
OBJECTS
  0
DICTIONARY
  0
ENDSEC
  0
EOF
