999
DXF from OpenSCAD
  0
SECTION
  2
HEADER
  9
$ACADVER
  1
AC1006
  9
$INSBASE
 10
0.0
 20
0.0
 30
0.0
  9
$EXTMIN
 10
-45.946
 20
0.000988349
  9
$EXTMAX
 10
45.95
 20
110.499
  9
$LINMIN
 10
-45.946
 20
0.000988349
  9
$LINMAX
 10
45.95
 20
110.499
  0
ENDSEC
  0
SECTION
  2
TABLES
  0
TABLE
  2
LTYPE
 70
1
  0
LTYPE
  2
CONTINUOUS
 70
64
  3
Solid line
 72
65
 73
0
 40
0.000000
  0
ENDTAB
  0
TABLE
  2
LAYER
 70
6
  0
LAYER
  2
0
 70
64
 62
7
  6
CONTINUOUS
  0
ENDTAB
  0
TABLE
  2
STYLE
 70
0
  0
ENDTAB
  0
ENDSEC
  0
SECTION
  2
BLOCKS
  0
ENDSEC
  0
SECTION
  2
ENTITIES
  0
LWPOLYLINE
100
AcDbEntity
  8
0
100
AcDbPolyline
 90
82
 70
1
 10
41.2481
 20
0.00889282
 10
41.6437
 20
0.0483527
 10
42.0349
 20
0.119118
 10
42.4193
 20
0.220743
 10
42.7943
 20
0.352583
 10
43.1577
 20
0.513806
 10
43.5072
 20
0.703392
 10
43.8405
 20
0.920142
 10
44.1555
 20
1.16269
 10
44.4502
 20
1.42949
 10
44.7228
 20
1.71887
 10
44.9716
 20
2.02899
 10
45.1949
 20
2.3579
 10
45.3914
 20
2.70351
 10
45.5598
 20
3.06364
 10
45.6991
 20
3.43602
 10
45.8083
 20
3.81828
 10
45.8869
 20
4.20801
 10
45.9342
 20
4.60275
 10
45.95
 20
5
 10
45.95
 20
105.5
 10
45.9342
 20
105.897
 10
45.8869
 20
106.292
 10
45.8083
 20
106.682
 10
45.6991
 20
107.064
 10
45.5598
 20
107.436
 10
45.3914
 20
107.796
 10
45.1949
 20
108.142
 10
44.9716
 20
108.471
 10
44.7228
 20
108.781
 10
44.4502
 20
109.071
 10
44.1555
 20
109.337
 10
43.8405
 20
109.58
 10
43.5072
 20
109.797
 10
43.1577
 20
109.986
 10
42.7943
 20
110.147
 10
42.4193
 20
110.279
 10
42.0349
 20
110.381
 10
41.6437
 20
110.452
 10
41.2481
 20
110.491
 10
40.8506
 20
110.499
 10
-41.0494
 20
110.499
 10
-41.4463
 20
110.475
 10
-41.84
 20
110.42
 10
-42.2281
 20
110.334
 10
-42.6081
 20
110.217
 10
-42.9776
 20
110.07
 10
-43.3343
 20
109.895
 10
-43.676
 20
109.692
 10
-44.0004
 20
109.462
 10
-44.3055
 20
109.207
 10
-44.5894
 20
108.929
 10
-44.8503
 20
108.629
 10
-45.0865
 20
108.309
 10
-45.2966
 20
107.971
 10
-45.4792
 20
107.618
 10
-45.6332
 20
107.252
 10
-45.7575
 20
106.874
 10
-45.8515
 20
106.488
 10
-45.9145
 20
106.095
 10
-45.946
 20
105.699
 10
-45.946
 20
4.80122
 10
-45.9145
 20
4.40491
 10
-45.8515
 20
4.01236
 10
-45.7575
 20
3.62606
 10
-45.6332
 20
3.24845
 10
-45.4792
 20
2.8819
 10
-45.2966
 20
2.52875
 10
-45.0865
 20
2.19123
 10
-44.8503
 20
1.87146
 10
-44.5894
 20
1.57147
 10
-44.3055
 20
1.29316
 10
-44.0004
 20
1.03828
 10
-43.676
 20
0.808453
 10
-43.3343
 20
0.605124
 10
-42.9776
 20
0.429581
 10
-42.6081
 20
0.282934
 10
-42.2281
 20
0.166109
 10
-41.84
 20
0.0798457
 10
-41.4463
 20
0.0246892
 10
-41.0494
 20
0.000988349
 10
40.8506
 20
0.000988349
  0
LWPOLYLINE
100
AcDbEntity
  8
0
100
AcDbPolyline
 90
3
 70
1
 10
-38.7982
 20
105.702
 10
-38.7193
 20
105.468
 10
-38.6921
 20
105.387
  0
LWPOLYLINE
100
AcDbEntity
  8
0
100
AcDbPolyline
 90
3
 70
1
 10
38.7348
 20
105.532
 10
38.7442
 20
105.575
 10
38.6964
 20
105.357
  0
LWPOLYLINE
100
AcDbEntity
  8
0
100
AcDbPolyline
 90
3
 70
1
 10
-38.6921
 20
104.613
 10
-38.7193
 20
104.532
 10
-38.7982
 20
104.298
  0
LWPOLYLINE
100
AcDbEntity
  8
0
100
AcDbPolyline
 90
3
 70
1
 10
42.2079
 20
104.613
 10
42.1807
 20
104.532
 10
42.1018
 20
104.298
  0
LWPOLYLINE
100
AcDbEntity
  8
0
100
AcDbPolyline
 90
3
 70
1
 10
38.7348
 20
104.468
 10
38.7207
 20
104.532
 10
38.7442
 20
104.425
  0
LWPOLYLINE
100
AcDbEntity
  8
0
100
AcDbPolyline
 90
3
 70
1
 10
39.8604
 20
103.307
 10
39.7838
 20
103.328
 10
40.1123
 20
103.237
  0
LWPOLYLINE
100
AcDbEntity
  8
0
100
AcDbPolyline
 90
3
 70
1
 10
-40.7412
 20
103.224
 10
-40.6599
 20
103.219
 10
-40.4249
 20
103.207
  0
LWPOLYLINE
100
AcDbEntity
  8
0
100
AcDbPolyline
 90
3
 70
1
 10
40.1588
 20
103.224
 10
40.2401
 20
103.219
 10
40.4751
 20
103.207
  0
LWPOLYLINE
100
AcDbEntity
  8
0
100
AcDbPolyline
 90
3
 70
1
 10
-40.7722
 20
101.757
 10
-40.6549
 20
101.5
 10
-40.6067
 20
101.394
  0
LWPOLYLINE
100
AcDbEntity
  8
0
100
AcDbPolyline
 90
3
 70
1
 10
36.7278
 20
101.757
 10
36.8451
 20
101.5
 10
36.8933
 20
101.394
  0
LWPOLYLINE
100
AcDbEntity
  8
0
100
AcDbPolyline
 90
52
 70
1
 10
-29.5
 20
11.55
 10
-29.8916
 20
11.5757
 10
-30.2765
 20
11.6522
 10
-30.6481
 20
11.7784
 10
-31
 20
11.9519
 10
-31.3263
 20
12.1699
 10
-31.6213
 20
12.4287
 10
-31.8801
 20
12.7237
 10
-32.0981
 20
13.05
 10
-32.2716
 20
13.4019
 10
-32.3978
 20
13.7735
 10
-32.4743
 20
14.1584
 10
-32.5
 20
14.55
 10
-32.5
 20
95.95
 10
-32.4743
 20
96.3416
 10
-32.3978
 20
96.7265
 10
-32.2716
 20
97.0981
 10
-32.0981
 20
97.45
 10
-31.8801
 20
97.7763
 10
-31.6213
 20
98.0713
 10
-31.3263
 20
98.3301
 10
-31
 20
98.5481
 10
-30.6481
 20
98.7216
 10
-30.2765
 20
98.8478
 10
-29.8916
 20
98.9243
 10
-29.5
 20
98.95
 10
29.5
 20
98.95
 10
29.8916
 20
98.9243
 10
30.2765
 20
98.8478
 10
30.6481
 20
98.7216
 10
31
 20
98.5481
 10
31.3263
 20
98.3301
 10
31.6213
 20
98.0713
 10
31.8801
 20
97.7763
 10
32.0981
 20
97.45
 10
32.2716
 20
97.0981
 10
32.3978
 20
96.7265
 10
32.4743
 20
96.3416
 10
32.5
 20
95.95
 10
32.5
 20
14.55
 10
32.4743
 20
14.1584
 10
32.3978
 20
13.7735
 10
32.2716
 20
13.4019
 10
32.0981
 20
13.05
 10
31.8801
 20
12.7237
 10
31.6213
 20
12.4287
 10
31.3263
 20
12.1699
 10
31
 20
11.9519
 10
30.6481
 20
11.7784
 10
30.2765
 20
11.6522
 10
29.8916
 20
11.5757
 10
29.5
 20
11.55
  0
LWPOLYLINE
100
AcDbEntity
  8
0
100
AcDbPolyline
 90
3
 70
1
 10
-40.6067
 20
9.10557
 10
-40.6549
 20
9
 10
-40.7722
 20
8.7431
  0
LWPOLYLINE
100
AcDbEntity
  8
0
100
AcDbPolyline
 90
3
 70
1
 10
36.8933
 20
9.10557
 10
36.8451
 20
9
 10
36.7278
 20
8.7431
  0
LWPOLYLINE
100
AcDbEntity
  8
0
100
AcDbPolyline
 90
3
 70
1
 10
-38.7982
 20
6.20185
 10
-38.7193
 20
5.96787
 10
-38.6921
 20
5.88695
  0
LWPOLYLINE
100
AcDbEntity
  8
0
100
AcDbPolyline
 90
3
 70
1
 10
42.1018
 20
6.20185
 10
42.1807
 20
5.96787
 10
42.2079
 20
5.88695
  0
LWPOLYLINE
100
AcDbEntity
  8
0
100
AcDbPolyline
 90
3
 70
1
 10
38.7348
 20
6.03205
 10
38.7442
 20
6.07474
 10
38.6964
 20
5.85745
  0
LWPOLYLINE
100
AcDbEntity
  8
0
100
AcDbPolyline
 90
3
 70
1
 10
-38.6921
 20
5.11305
 10
-38.7193
 20
5.03213
 10
-38.7982
 20
4.79815
  0
LWPOLYLINE
100
AcDbEntity
  8
0
100
AcDbPolyline
 90
3
 70
1
 10
42.2079
 20
5.11305
 10
42.1807
 20
5.03213
 10
42.1018
 20
4.79815
  0
LWPOLYLINE
100
AcDbEntity
  8
0
100
AcDbPolyline
 90
3
 70
1
 10
39.8604
 20
3.80656
 10
39.7838
 20
3.82784
 10
40.1123
 20
3.73661
  0
LWPOLYLINE
100
AcDbEntity
  8
0
100
AcDbPolyline
 90
3
 70
1
 10
-40.7412
 20
3.72371
 10
-40.6599
 20
3.7193
 10
-40.4249
 20
3.70656
  0
LWPOLYLINE
100
AcDbEntity
  8
0
100
AcDbPolyline
 90
3
 70
1
 10
40.1588
 20
3.72371
 10
40.2401
 20
3.7193
 10
40.4751
 20
3.70656
  0
ENDSEC
  0
EOF
