999
DXF from OpenSCAD
  0
SECTION
  2
HEADER
  9
$ACADVER
  1
AC1006
  9
$INSBASE
 10
0.0
 20
0.0
 30
0.0
  9
$EXTMIN
 10
-44.95
 20
10.25
  9
$EXTMAX
 10
38.15
 20
100.25
  9
$LINMIN
 10
-44.95
 20
10.25
  9
$LINMAX
 10
38.15
 20
100.25
  0
ENDSEC
  0
SECTION
  2
TABLES
  0
TABLE
  2
LTYPE
 70
1
  0
LTYPE
  2
CONTINUOUS
 70
64
  3
Solid line
 72
65
 73
0
 40
0.000000
  0
ENDTAB
  0
TABLE
  2
LAYER
 70
6
  0
LAYER
  2
0
 70
64
 62
7
  6
CONTINUOUS
  0
ENDTAB
  0
TABLE
  2
STYLE
 70
0
  0
ENDTAB
  0
ENDSEC
  0
SECTION
  2
BLOCKS
  0
ENDSEC
  0
SECTION
  2
ENTITIES
  0
LWPOLYLINE
100
AcDbEntity
  8
0
100
AcDbPolyline
 90
16
 70
1
 10
34.8
 20
18.7
 10
36.35
 20
18.7
 10
36.35
 20
67.7
 10
34.8
 20
67.7
 10
34.8
 20
70.5
 10
38.15
 20
70.5
 10
38.15
 20
96.8
 10
34.8
 20
96.8
 10
34.8
 20
100.25
 10
-41.2
 20
100.25
 10
-41.2
 20
84.5
 10
-41.45
 20
84.5
 10
-41.45
 20
14.5
 10
-41.2
 20
14.5
 10
-41.2
 20
10.25
 10
34.8
 20
10.25
  0
LWPOLYLINE
100
AcDbEntity
  8
0
100
AcDbPolyline
 90
20
 70
1
 10
-41.1
 20
14.5
 10
-11.45
 20
14.5
 10
-11.45
 20
84.5
 10
-22.45
 20
84.5
 10
-22.45
 20
97.75
 10
-40.45
 20
97.75
 10
-40.45
 20
84.5
 10
-41.1
 20
84.5
 10
-41.1
 20
100.15
 10
34.7
 20
100.15
 10
34.7
 20
96.8
 10
6.15
 20
96.8
 10
6.15
 20
70.5
 10
34.7
 20
70.5
 10
34.7
 20
67.7
 10
-7.65
 20
67.7
 10
-7.65
 20
18.7
 10
34.7
 20
18.7
 10
34.7
 20
10.35
 10
-41.1
 20
10.35
  0
LWPOLYLINE
100
AcDbEntity
  8
0
100
AcDbPolyline
 90
4
 70
1
 10
1.65
 20
94.25
 10
-11.65
 20
94.25
 10
-11.65
 20
88.45
 10
1.65
 20
88.45
  0
LWPOLYLINE
100
AcDbEntity
  8
0
100
AcDbPolyline
 90
4
 70
1
 10
-11.55
 20
94.15
 10
1.55
 20
94.15
 10
1.55
 20
88.55
 10
-11.55
 20
88.55
  0
LWPOLYLINE
100
AcDbEntity
  8
0
100
AcDbPolyline
 90
4
 70
1
 10
-40.35
 20
84.5
 10
-40.35
 20
97.65
 10
-22.55
 20
97.65
 10
-22.55
 20
84.5
  0
LWPOLYLINE
100
AcDbEntity
  8
0
100
AcDbPolyline
 90
4
 70
1
 10
34.8
 20
96.7
 10
38.05
 20
96.7
 10
38.05
 20
70.6
 10
34.8
 20
70.6
  0
LWPOLYLINE
100
AcDbEntity
  8
0
100
AcDbPolyline
 90
4
 70
1
 10
6.25
 20
96.7
 10
34.7
 20
96.7
 10
34.7
 20
70.6
 10
6.25
 20
70.6
  0
LWPOLYLINE
100
AcDbEntity
  8
0
100
AcDbPolyline
 90
12
 70
1
 10
-41.1
 20
15.5
 10
-11.72
 20
15.5
 10
-11.72
 20
63.75
 10
-41.1
 20
63.75
 10
-41.1
 20
84.4
 10
-40.45
 20
84.4
 10
-40.45
 20
65.75
 10
-22.45
 20
65.75
 10
-22.45
 20
84.4
 10
-11.55
 20
84.4
 10
-11.55
 20
14.6
 10
-41.1
 20
14.6
  0
LWPOLYLINE
100
AcDbEntity
  8
0
100
AcDbPolyline
 90
4
 70
1
 10
-40.35
 20
84.4
 10
-22.55
 20
84.4
 10
-22.55
 20
65.85
 10
-40.35
 20
65.85
  0
LWPOLYLINE
100
AcDbEntity
  8
0
100
AcDbPolyline
 90
4
 70
1
 10
-41.35
 20
84.4
 10
-41.2
 20
84.4
 10
-41.2
 20
14.6
 10
-41.35
 20
14.6
  0
LWPOLYLINE
100
AcDbEntity
  8
0
100
AcDbPolyline
 90
4
 70
1
 10
34.8
 20
67.6
 10
36.25
 20
67.6
 10
36.25
 20
18.8
 10
34.8
 20
18.8
  0
LWPOLYLINE
100
AcDbEntity
  8
0
100
AcDbPolyline
 90
4
 70
1
 10
-7.55
 20
67.6
 10
34.7
 20
67.6
 10
34.7
 20
18.8
 10
-7.55
 20
18.8
  0
LWPOLYLINE
100
AcDbEntity
  8
0
100
AcDbPolyline
 90
4
 70
1
 10
-41.08
 20
63.65
 10
-11.82
 20
63.65
 10
-11.82
 20
15.6
 10
-41.08
 20
15.6
  0
LWPOLYLINE
100
AcDbEntity
  8
0
100
AcDbPolyline
 90
4
 70
1
 10
-41.95
 20
89.75
 10
-44.95
 20
89.75
 10
-44.95
 20
40.75
 10
-41.95
 20
40.75
  0
LWPOLYLINE
100
AcDbEntity
  8
0
100
AcDbPolyline
 90
4
 70
1
 10
-44.85
 20
89.65
 10
-42.05
 20
89.65
 10
-42.05
 20
40.85
 10
-44.85
 20
40.85
  0
ENDSEC
  0
EOF
