  0
SECTION
  2
BLOCKS
  0
ENDSEC
  0
SECTION
  2
ENTITIES
  0
LINE
  8
0
 10
34.8
 20
18.05
 11
36.35
 21
18.05
  0
LINE
  8
0
 10
36.35
 20
18.05
 11
36.35
 21
67.05
  0
LINE
  8
0
 10
36.35
 20
67.05
 11
34.8
 21
67.05
  0
LINE
  8
0
 10
34.8
 20
67.05
 11
34.8
 21
69.85
  0
LINE
  8
0
 10
34.8
 20
69.85
 11
38.15
 21
69.85
  0
LINE
  8
0
 10
38.15
 20
69.85
 11
38.15
 21
96.15
  0
LINE
  8
0
 10
38.15
 20
96.15
 11
34.8
 21
96.15
  0
LINE
  8
0
 10
34.8
 20
96.15
 11
34.8
 21
100.25
  0
LINE
  8
0
 10
34.8
 20
100.25
 11
-41.2
 21
100.25
  0
LINE
  8
0
 10
-41.2
 20
100.25
 11
-41.2
 21
84.5
  0
LINE
  8
0
 10
-41.2
 20
84.5
 11
-41.45
 21
84.5
  0
LINE
  8
0
 10
-41.45
 20
84.5
 11
-41.45
 21
14.5
  0
LINE
  8
0
 10
-41.45
 20
14.5
 11
-41.2
 21
14.5
  0
LINE
  8
0
 10
-41.2
 20
14.5
 11
-41.2
 21
10.25
  0
LINE
  8
0
 10
-41.2
 20
10.25
 11
34.8
 21
10.25
  0
LINE
  8
0
 10
34.8
 20
10.25
 11
34.8
 21
18.05
  0
LINE
  8
0
 10
-41.1
 20
10.35
 11
-41.1
 21
14.5
  0
LINE
  8
0
 10
-41.1
 20
14.5
 11
-11.45
 21
14.5
  0
LINE
  8
0
 10
-11.45
 20
14.5
 11
-11.45
 21
84.5
  0
LINE
  8
0
 10
-11.45
 20
84.5
 11
-22.45
 21
84.5
  0
LINE
  8
0
 10
-22.45
 20
84.5
 11
-22.45
 21
97.75
  0
LINE
  8
0
 10
-22.45
 20
97.75
 11
-40.45
 21
97.75
  0
LINE
  8
0
 10
-40.45
 20
97.75
 11
-40.45
 21
84.5
  0
LINE
  8
0
 10
-40.45
 20
84.5
 11
-41.1
 21
84.5
  0
LINE
  8
0
 10
-41.1
 20
84.5
 11
-41.1
 21
100.15
  0
LINE
  8
0
 10
-41.1
 20
100.15
 11
34.7
 21
100.15
  0
LINE
  8
0
 10
34.7
 20
100.15
 11
34.7
 21
96.15
  0
LINE
  8
0
 10
34.7
 20
96.15
 11
6.14999
 21
96.15
  0
LINE
  8
0
 10
6.14999
 20
96.15
 11
6.14999
 21
69.85
  0
LINE
  8
0
 10
6.14999
 20
69.85
 11
34.7
 21
69.85
  0
LINE
  8
0
 10
34.7
 20
69.85
 11
34.7
 21
67.05
  0
LINE
  8
0
 10
34.7
 20
67.05
 11
-7.64999
 21
67.05
  0
LINE
  8
0
 10
-7.64999
 20
67.05
 11
-7.64999
 21
18.05
  0
LINE
  8
0
 10
-7.64999
 20
18.05
 11
34.7
 21
18.05
  0
LINE
  8
0
 10
34.7
 20
18.05
 11
34.7
 21
10.35
  0
LINE
  8
0
 10
34.7
 20
10.35
 11
-41.1
 21
10.35
  0
LINE
  8
0
 10
2
 20
94.25
 11
-12
 21
94.25
  0
LINE
  8
0
 10
-12
 20
94.25
 11
-12
 21
89.75
  0
LINE
  8
0
 10
-12
 20
89.75
 11
2
 21
89.75
  0
LINE
  8
0
 10
2
 20
89.75
 11
2
 21
94.25
  0
LINE
  8
0
 10
-11.9
 20
89.85
 11
-11.9
 21
94.15
  0
LINE
  8
0
 10
-11.9
 20
94.15
 11
1.89999
 21
94.15
  0
LINE
  8
0
 10
1.89999
 20
94.15
 11
1.89999
 21
89.85
  0
LINE
  8
0
 10
1.89999
 20
89.85
 11
-11.9
 21
89.85
  0
LINE
  8
0
 10
-40.35
 20
84.5
 11
-40.35
 21
97.65
  0
LINE
  8
0
 10
-40.35
 20
97.65
 11
-22.55
 21
97.65
  0
LINE
  8
0
 10
-22.55
 20
97.65
 11
-22.55
 21
84.5
  0
LINE
  8
0
 10
-22.55
 20
84.5
 11
-40.35
 21
84.5
  0
LINE
  8
0
 10
6.25
 20
69.95
 11
6.25
 21
96.05
  0
LINE
  8
0
 10
6.25
 20
96.05
 11
34.7
 21
96.05
  0
LINE
  8
0
 10
34.7
 20
96.05
 11
34.7
 21
69.95
  0
LINE
  8
0
 10
34.7
 20
69.95
 11
6.25
 21
69.95
  0
LINE
  8
0
 10
34.8
 20
69.95
 11
34.8
 21
96.05
  0
LINE
  8
0
 10
34.8
 20
96.05
 11
38.05
 21
96.05
  0
LINE
  8
0
 10
38.05
 20
96.05
 11
38.05
 21
69.95
  0
LINE
  8
0
 10
38.05
 20
69.95
 11
34.8
 21
69.95
  0
LINE
  8
0
 10
-41.35
 20
14.6
 11
-41.35
 21
84.4
  0
LINE
  8
0
 10
-41.35
 20
84.4
 11
-41.2
 21
84.4
  0
LINE
  8
0
 10
-41.2
 20
84.4
 11
-41.2
 21
14.6
  0
LINE
  8
0
 10
-41.2
 20
14.6
 11
-41.35
 21
14.6
  0
LINE
  8
0
 10
-41.1
 20
14.6
 11
-41.1
 21
15.5
  0
LINE
  8
0
 10
-41.1
 20
15.5
 11
-11.72
 21
15.5
  0
LINE
  8
0
 10
-11.72
 20
15.5
 11
-11.72
 21
63.75
  0
LINE
  8
0
 10
-11.72
 20
63.75
 11
-41.1
 21
63.75
  0
LINE
  8
0
 10
-41.1
 20
63.75
 11
-41.1
 21
84.4
  0
LINE
  8
0
 10
-41.1
 20
84.4
 11
-40.45
 21
84.4
  0
LINE
  8
0
 10
-40.45
 20
84.4
 11
-40.45
 21
65.75
  0
LINE
  8
0
 10
-40.45
 20
65.75
 11
-22.45
 21
65.75
  0
LINE
  8
0
 10
-22.45
 20
65.75
 11
-22.45
 21
84.4
  0
LINE
  8
0
 10
-22.45
 20
84.4
 11
-11.55
 21
84.4
  0
LINE
  8
0
 10
-11.55
 20
84.4
 11
-11.55
 21
14.6
  0
LINE
  8
0
 10
-11.55
 20
14.6
 11
-41.1
 21
14.6
  0
LINE
  8
0
 10
-40.35
 20
65.85
 11
-40.35
 21
84.4
  0
LINE
  8
0
 10
-40.35
 20
84.4
 11
-22.55
 21
84.4
  0
LINE
  8
0
 10
-22.55
 20
84.4
 11
-22.55
 21
65.85
  0
LINE
  8
0
 10
-22.55
 20
65.85
 11
-40.35
 21
65.85
  0
LINE
  8
0
 10
-7.54999
 20
18.15
 11
-7.54999
 21
66.95
  0
LINE
  8
0
 10
-7.54999
 20
66.95
 11
34.7
 21
66.95
  0
LINE
  8
0
 10
34.7
 20
66.95
 11
34.7
 21
18.15
  0
LINE
  8
0
 10
34.7
 20
18.15
 11
-7.54999
 21
18.15
  0
LINE
  8
0
 10
34.8
 20
18.15
 11
34.8
 21
66.95
  0
LINE
  8
0
 10
34.8
 20
66.95
 11
36.25
 21
66.95
  0
LINE
  8
0
 10
36.25
 20
66.95
 11
36.25
 21
18.15
  0
LINE
  8
0
 10
36.25
 20
18.15
 11
34.8
 21
18.15
  0
LINE
  8
0
 10
-41.08
 20
15.6
 11
-41.08
 21
63.65
  0
LINE
  8
0
 10
-41.08
 20
63.65
 11
-11.82
 21
63.65
  0
LINE
  8
0
 10
-11.82
 20
63.65
 11
-11.82
 21
15.6
  0
LINE
  8
0
 10
-11.82
 20
15.6
 11
-41.08
 21
15.6
  0
LINE
  8
0
 10
-41.95
 20
89.75
 11
-44.95
 21
89.75
  0
LINE
  8
0
 10
-44.95
 20
89.75
 11
-44.95
 21
40.75
  0
LINE
  8
0
 10
-44.95
 20
40.75
 11
-41.95
 21
40.75
  0
LINE
  8
0
 10
-41.95
 20
40.75
 11
-41.95
 21
89.75
  0
LINE
  8
0
 10
-44.85
 20
40.85
 11
-44.85
 21
89.65
  0
LINE
  8
0
 10
-44.85
 20
89.65
 11
-42.05
 21
89.65
  0
LINE
  8
0
 10
-42.05
 20
89.65
 11
-42.05
 21
40.85
  0
LINE
  8
0
 10
-42.05
 20
40.85
 11
-44.85
 21
40.85
  0
ENDSEC
  0
SECTION
  2
OBJECTS
  0
DICTIONARY
  0
ENDSEC
  0
EOF
