  0
SECTION
  2
BLOCKS
  0
ENDSEC
  0
SECTION
  2
ENTITIES
  0
LINE
  8
0
 10
3.00124
 20
24
 11
9.5
 21
24
  0
LINE
  8
0
 10
9.5
 20
24
 11
17
 21
21
  0
LINE
  8
0
 10
17
 20
21
 11
57.65
 21
21
  0
LINE
  8
0
 10
57.65
 20
21
 11
57.65
 21
20.5
  0
LINE
  8
0
 10
57.65
 20
20.5
 11
57.6508
 21
20.4771
  0
LINE
  8
0
 10
57.6508
 20
20.4771
 11
57.653
 21
20.4543
  0
LINE
  8
0
 10
57.653
 20
20.4543
 11
57.6567
 21
20.4317
  0
LINE
  8
0
 10
57.6567
 20
20.4317
 11
57.6619
 21
20.4094
  0
LINE
  8
0
 10
57.6619
 20
20.4094
 11
57.6686
 21
20.3875
  0
LINE
  8
0
 10
57.6686
 20
20.3875
 11
57.6766
 21
20.3661
  0
LINE
  8
0
 10
57.6766
 20
20.3661
 11
57.6861
 21
20.3452
  0
LINE
  8
0
 10
57.6861
 20
20.3452
 11
57.6969
 21
20.325
  0
LINE
  8
0
 10
57.6969
 20
20.325
 11
57.709
 21
20.3056
  0
LINE
  8
0
 10
57.709
 20
20.3056
 11
57.7223
 21
20.2869
  0
LINE
  8
0
 10
57.7223
 20
20.2869
 11
57.7369
 21
20.2692
  0
LINE
  8
0
 10
57.7369
 20
20.2692
 11
57.7525
 21
20.2525
  0
LINE
  8
0
 10
57.7525
 20
20.2525
 11
57.7692
 21
20.2369
  0
LINE
  8
0
 10
57.7692
 20
20.2369
 11
57.7869
 21
20.2223
  0
LINE
  8
0
 10
57.7869
 20
20.2223
 11
57.8056
 21
20.209
  0
LINE
  8
0
 10
57.8056
 20
20.209
 11
57.825
 21
20.1969
  0
LINE
  8
0
 10
57.825
 20
20.1969
 11
57.8452
 21
20.1861
  0
LINE
  8
0
 10
57.8452
 20
20.1861
 11
57.8661
 21
20.1766
  0
LINE
  8
0
 10
57.8661
 20
20.1766
 11
57.8875
 21
20.1686
  0
LINE
  8
0
 10
57.8875
 20
20.1686
 11
57.9094
 21
20.1619
  0
LINE
  8
0
 10
57.9094
 20
20.1619
 11
57.9317
 21
20.1567
  0
LINE
  8
0
 10
57.9317
 20
20.1567
 11
57.9543
 21
20.153
  0
LINE
  8
0
 10
57.9543
 20
20.153
 11
57.9771
 21
20.1508
  0
LINE
  8
0
 10
57.9771
 20
20.1508
 11
58
 21
20.15
  0
LINE
  8
0
 10
58
 20
20.15
 11
58.0229
 21
20.1508
  0
LINE
  8
0
 10
58.0229
 20
20.1508
 11
58.0457
 21
20.153
  0
LINE
  8
0
 10
58.0457
 20
20.153
 11
58.0683
 21
20.1567
  0
LINE
  8
0
 10
58.0683
 20
20.1567
 11
58.0906
 21
20.1619
  0
LINE
  8
0
 10
58.0906
 20
20.1619
 11
58.1125
 21
20.1686
  0
LINE
  8
0
 10
58.1125
 20
20.1686
 11
58.1339
 21
20.1766
  0
LINE
  8
0
 10
58.1339
 20
20.1766
 11
58.1548
 21
20.1861
  0
LINE
  8
0
 10
58.1548
 20
20.1861
 11
58.175
 21
20.1969
  0
LINE
  8
0
 10
58.175
 20
20.1969
 11
58.1944
 21
20.209
  0
LINE
  8
0
 10
58.1944
 20
20.209
 11
58.2131
 21
20.2223
  0
LINE
  8
0
 10
58.2131
 20
20.2223
 11
58.2308
 21
20.2369
  0
LINE
  8
0
 10
58.2308
 20
20.2369
 11
58.2475
 21
20.2525
  0
LINE
  8
0
 10
58.2475
 20
20.2525
 11
58.2631
 21
20.2692
  0
LINE
  8
0
 10
58.2631
 20
20.2692
 11
58.2777
 21
20.2869
  0
LINE
  8
0
 10
58.2777
 20
20.2869
 11
58.291
 21
20.3056
  0
LINE
  8
0
 10
58.291
 20
20.3056
 11
58.3031
 21
20.325
  0
LINE
  8
0
 10
58.3031
 20
20.325
 11
58.3139
 21
20.3452
  0
LINE
  8
0
 10
58.3139
 20
20.3452
 11
58.3234
 21
20.3661
  0
LINE
  8
0
 10
58.3234
 20
20.3661
 11
58.3314
 21
20.3875
  0
LINE
  8
0
 10
58.3314
 20
20.3875
 11
58.3381
 21
20.4094
  0
LINE
  8
0
 10
58.3381
 20
20.4094
 11
58.3433
 21
20.4317
  0
LINE
  8
0
 10
58.3433
 20
20.4317
 11
58.347
 21
20.4543
  0
LINE
  8
0
 10
58.347
 20
20.4543
 11
58.3492
 21
20.4771
  0
LINE
  8
0
 10
58.3492
 20
20.4771
 11
58.35
 21
20.5
  0
LINE
  8
0
 10
58.35
 20
20.5
 11
58.35
 21
21
  0
LINE
  8
0
 10
58.35
 20
21
 11
58.9731
 21
21
  0
LINE
  8
0
 10
58.9731
 20
21
 11
59.1472
 21
20.7514
  0
LINE
  8
0
 10
59.1472
 20
20.7514
 11
59.161
 21
20.733
  0
LINE
  8
0
 10
59.161
 20
20.733
 11
59.1759
 21
20.7157
  0
LINE
  8
0
 10
59.1759
 20
20.7157
 11
59.1919
 21
20.6993
  0
LINE
  8
0
 10
59.1919
 20
20.6993
 11
59.209
 21
20.684
  0
LINE
  8
0
 10
59.209
 20
20.684
 11
59.227
 21
20.6699
  0
LINE
  8
0
 10
59.227
 20
20.6699
 11
59.2459
 21
20.6569
  0
LINE
  8
0
 10
59.2459
 20
20.6569
 11
59.2656
 21
20.6453
  0
LINE
  8
0
 10
59.2656
 20
20.6453
 11
59.286
 21
20.6349
  0
LINE
  8
0
 10
59.286
 20
20.6349
 11
59.3071
 21
20.6259
  0
LINE
  8
0
 10
59.3071
 20
20.6259
 11
59.3287
 21
20.6183
  0
LINE
  8
0
 10
59.3287
 20
20.6183
 11
59.3508
 21
20.6122
  0
LINE
  8
0
 10
59.3508
 20
20.6122
 11
59.3732
 21
20.6074
  0
LINE
  8
0
 10
59.3732
 20
20.6074
 11
59.3958
 21
20.6042
  0
LINE
  8
0
 10
59.3958
 20
20.6042
 11
59.4187
 21
20.6025
  0
LINE
  8
0
 10
59.4187
 20
20.6025
 11
59.4416
 21
20.6022
  0
LINE
  8
0
 10
59.4416
 20
20.6022
 11
59.4644
 21
20.6035
  0
LINE
  8
0
 10
59.4644
 20
20.6035
 11
59.4872
 21
20.6062
  0
LINE
  8
0
 10
59.4872
 20
20.6062
 11
59.5097
 21
20.6104
  0
LINE
  8
0
 10
59.5097
 20
20.6104
 11
59.5319
 21
20.6161
  0
LINE
  8
0
 10
59.5319
 20
20.6161
 11
59.5536
 21
20.6232
  0
LINE
  8
0
 10
59.5536
 20
20.6232
 11
59.5749
 21
20.6318
  0
LINE
  8
0
 10
59.5749
 20
20.6318
 11
59.5956
 21
20.6417
  0
LINE
  8
0
 10
59.5956
 20
20.6417
 11
59.6155
 21
20.6529
  0
LINE
  8
0
 10
59.6155
 20
20.6529
 11
59.6347
 21
20.6654
  0
LINE
  8
0
 10
59.6347
 20
20.6654
 11
59.653
 21
20.6792
  0
LINE
  8
0
 10
59.653
 20
20.6792
 11
59.6704
 21
20.6941
  0
LINE
  8
0
 10
59.6704
 20
20.6941
 11
59.6868
 21
20.7101
  0
LINE
  8
0
 10
59.6868
 20
20.7101
 11
59.7021
 21
20.7271
  0
LINE
  8
0
 10
59.7021
 20
20.7271
 11
59.7162
 21
20.7452
  0
LINE
  8
0
 10
59.7162
 20
20.7452
 11
59.7291
 21
20.7641
  0
LINE
  8
0
 10
59.7291
 20
20.7641
 11
59.7408
 21
20.7838
  0
LINE
  8
0
 10
59.7408
 20
20.7838
 11
59.7511
 21
20.8042
  0
LINE
  8
0
 10
59.7511
 20
20.8042
 11
59.7601
 21
20.8253
  0
LINE
  8
0
 10
59.7601
 20
20.8253
 11
59.7677
 21
20.8469
  0
LINE
  8
0
 10
59.7677
 20
20.8469
 11
59.7739
 21
20.8689
  0
LINE
  8
0
 10
59.7739
 20
20.8689
 11
59.7786
 21
20.8913
  0
LINE
  8
0
 10
59.7786
 20
20.8913
 11
59.7819
 21
20.914
  0
LINE
  8
0
 10
59.7819
 20
20.914
 11
59.7836
 21
20.9369
  0
LINE
  8
0
 10
59.7836
 20
20.9369
 11
59.7839
 21
20.9598
  0
LINE
  8
0
 10
59.7839
 20
20.9598
 11
59.7826
 21
20.9826
  0
LINE
  8
0
 10
59.7826
 20
20.9826
 11
59.7799
 21
21.0054
  0
LINE
  8
0
 10
59.7799
 20
21.0054
 11
59.7756
 21
21.0279
  0
LINE
  8
0
 10
59.7756
 20
21.0279
 11
59.77
 21
21.0501
  0
LINE
  8
0
 10
59.77
 20
21.0501
 11
59.7628
 21
21.0718
  0
LINE
  8
0
 10
59.7628
 20
21.0718
 11
59.7543
 21
21.0931
  0
LINE
  8
0
 10
59.7543
 20
21.0931
 11
59.7444
 21
21.1137
  0
LINE
  8
0
 10
59.7444
 20
21.1137
 11
59.7332
 21
21.1337
  0
LINE
  8
0
 10
59.7332
 20
21.1337
 11
59.7206
 21
21.1529
  0
LINE
  8
0
 10
59.7206
 20
21.1529
 11
62
 21
22.7489
  0
LINE
  8
0
 10
62
 20
22.7489
 11
62
 21
25
  0
LINE
  8
0
 10
62
 20
25
 11
3.00124
 21
25
  0
LINE
  8
0
 10
3.00124
 20
25
 11
3.00124
 21
24
  0
LINE
  8
0
 10
56.95
 20
23
 11
57.0209
 21
23.3793
  0
LINE
  8
0
 10
57.0209
 20
23.3793
 11
57.224
 21
23.7074
  0
LINE
  8
0
 10
57.224
 20
23.7074
 11
57.532
 21
23.9399
  0
LINE
  8
0
 10
57.532
 20
23.9399
 11
57.9031
 21
24.0455
  0
LINE
  8
0
 10
57.9031
 20
24.0455
 11
58.2873
 21
24.0099
  0
LINE
  8
0
 10
58.2873
 20
24.0099
 11
58.6328
 21
23.8379
  0
LINE
  8
0
 10
58.6328
 20
23.8379
 11
58.8927
 21
23.5528
  0
LINE
  8
0
 10
58.8927
 20
23.5528
 11
59.0321
 21
23.1929
  0
LINE
  8
0
 10
59.0321
 20
23.1929
 11
59.0321
 21
22.8071
  0
LINE
  8
0
 10
59.0321
 20
22.8071
 11
58.8927
 21
22.4472
  0
LINE
  8
0
 10
58.8927
 20
22.4472
 11
58.6328
 21
22.1621
  0
LINE
  8
0
 10
58.6328
 20
22.1621
 11
58.2873
 21
21.9901
  0
LINE
  8
0
 10
58.2873
 20
21.9901
 11
57.9031
 21
21.9545
  0
LINE
  8
0
 10
57.9031
 20
21.9545
 11
57.532
 21
22.0601
  0
LINE
  8
0
 10
57.532
 20
22.0601
 11
57.224
 21
22.2926
  0
LINE
  8
0
 10
57.224
 20
22.2926
 11
57.0209
 21
22.6207
  0
LINE
  8
0
 10
57.0209
 20
22.6207
 11
56.95
 21
23
  0
ENDSEC
  0
SECTION
  2
OBJECTS
  0
DICTIONARY
  0
ENDSEC
  0
EOF
