  0
SECTION
  2
BLOCKS
  0
ENDSEC
  0
SECTION
  2
ENTITIES
  0
LINE
  8
0
 10
-45.946
 20
4.80122
 11
-45.9145
 21
4.40492
  0
LINE
  8
0
 10
-45.9145
 20
4.40492
 11
-45.8515
 21
4.01237
  0
LINE
  8
0
 10
-45.8515
 20
4.01237
 11
-45.7575
 21
3.62607
  0
LINE
  8
0
 10
-45.7575
 20
3.62607
 11
-45.6332
 21
3.24846
  0
LINE
  8
0
 10
-45.6332
 20
3.24846
 11
-45.4792
 21
2.88191
  0
LINE
  8
0
 10
-45.4792
 20
2.88191
 11
-45.2966
 21
2.52876
  0
LINE
  8
0
 10
-45.2966
 20
2.52876
 11
-45.0865
 21
2.19124
  0
LINE
  8
0
 10
-45.0865
 20
2.19124
 11
-44.8503
 21
1.87146
  0
LINE
  8
0
 10
-44.8503
 20
1.87146
 11
-44.5894
 21
1.57147
  0
LINE
  8
0
 10
-44.5894
 20
1.57147
 11
-44.3055
 21
1.29317
  0
LINE
  8
0
 10
-44.3055
 20
1.29317
 11
-44.0004
 21
1.03828
  0
LINE
  8
0
 10
-44.0004
 20
1.03828
 11
-43.676
 21
0.808456
  0
LINE
  8
0
 10
-43.676
 20
0.808456
 11
-43.3343
 21
0.605133
  0
LINE
  8
0
 10
-43.3343
 20
0.605133
 11
-42.9776
 21
0.429596
  0
LINE
  8
0
 10
-42.9776
 20
0.429596
 11
-42.6081
 21
0.282944
  0
LINE
  8
0
 10
-42.6081
 20
0.282944
 11
-42.2281
 21
0.166122
  0
LINE
  8
0
 10
-42.2281
 20
0.166122
 11
-41.84
 21
0.0798492
  0
LINE
  8
0
 10
-41.84
 20
0.0798492
 11
-41.4463
 21
0.024704
  0
LINE
  8
0
 10
-41.4463
 20
0.024704
 11
-41.0494
 21
0.000991821
  0
LINE
  8
0
 10
-41.0494
 20
0.000991821
 11
40.8506
 21
0.000991821
  0
LINE
  8
0
 10
40.8506
 20
0.000991821
 11
41.2481
 21
0.00889587
  0
LINE
  8
0
 10
41.2481
 20
0.00889587
 11
41.6437
 21
0.0483551
  0
LINE
  8
0
 10
41.6437
 20
0.0483551
 11
42.0349
 21
0.119125
  0
LINE
  8
0
 10
42.0349
 20
0.119125
 11
42.4193
 21
0.220749
  0
LINE
  8
0
 10
42.4193
 20
0.220749
 11
42.7943
 21
0.352585
  0
LINE
  8
0
 10
42.7943
 20
0.352585
 11
43.1577
 21
0.513809
  0
LINE
  8
0
 10
43.1577
 20
0.513809
 11
43.5072
 21
0.7034
  0
LINE
  8
0
 10
43.5072
 20
0.7034
 11
43.8405
 21
0.920151
  0
LINE
  8
0
 10
43.8405
 20
0.920151
 11
44.1555
 21
1.16269
  0
LINE
  8
0
 10
44.1555
 20
1.16269
 11
44.4502
 21
1.4295
  0
LINE
  8
0
 10
44.4502
 20
1.4295
 11
44.7228
 21
1.71887
  0
LINE
  8
0
 10
44.7228
 20
1.71887
 11
44.9716
 21
2.02901
  0
LINE
  8
0
 10
44.9716
 20
2.02901
 11
45.1949
 21
2.35791
  0
LINE
  8
0
 10
45.1949
 20
2.35791
 11
45.3914
 21
2.70352
  0
LINE
  8
0
 10
45.3914
 20
2.70352
 11
45.5598
 21
3.06364
  0
LINE
  8
0
 10
45.5598
 20
3.06364
 11
45.6991
 21
3.43602
  0
LINE
  8
0
 10
45.6991
 20
3.43602
 11
45.8083
 21
3.81828
  0
LINE
  8
0
 10
45.8083
 20
3.81828
 11
45.8869
 21
4.20802
  0
LINE
  8
0
 10
45.8869
 20
4.20802
 11
45.9342
 21
4.60275
  0
LINE
  8
0
 10
45.9342
 20
4.60275
 11
45.95
 21
5
  0
LINE
  8
0
 10
45.95
 20
5
 11
45.95
 21
105.5
  0
LINE
  8
0
 10
45.95
 20
105.5
 11
45.9342
 21
105.897
  0
LINE
  8
0
 10
45.9342
 20
105.897
 11
45.8869
 21
106.292
  0
LINE
  8
0
 10
45.8869
 20
106.292
 11
45.8083
 21
106.682
  0
LINE
  8
0
 10
45.8083
 20
106.682
 11
45.6991
 21
107.064
  0
LINE
  8
0
 10
45.6991
 20
107.064
 11
45.5598
 21
107.436
  0
LINE
  8
0
 10
45.5598
 20
107.436
 11
45.3914
 21
107.796
  0
LINE
  8
0
 10
45.3914
 20
107.796
 11
45.1949
 21
108.142
  0
LINE
  8
0
 10
45.1949
 20
108.142
 11
44.9716
 21
108.471
  0
LINE
  8
0
 10
44.9716
 20
108.471
 11
44.7228
 21
108.781
  0
LINE
  8
0
 10
44.7228
 20
108.781
 11
44.4502
 21
109.07
  0
LINE
  8
0
 10
44.4502
 20
109.07
 11
44.1555
 21
109.337
  0
LINE
  8
0
 10
44.1555
 20
109.337
 11
43.8405
 21
109.58
  0
LINE
  8
0
 10
43.8405
 20
109.58
 11
43.5072
 21
109.797
  0
LINE
  8
0
 10
43.5072
 20
109.797
 11
43.1577
 21
109.986
  0
LINE
  8
0
 10
43.1577
 20
109.986
 11
42.7943
 21
110.147
  0
LINE
  8
0
 10
42.7943
 20
110.147
 11
42.4193
 21
110.279
  0
LINE
  8
0
 10
42.4193
 20
110.279
 11
42.0349
 21
110.381
  0
LINE
  8
0
 10
42.0349
 20
110.381
 11
41.6437
 21
110.452
  0
LINE
  8
0
 10
41.6437
 20
110.452
 11
41.2481
 21
110.491
  0
LINE
  8
0
 10
41.2481
 20
110.491
 11
40.8506
 21
110.499
  0
LINE
  8
0
 10
40.8506
 20
110.499
 11
-41.0494
 21
110.499
  0
LINE
  8
0
 10
-41.0494
 20
110.499
 11
-41.4463
 21
110.475
  0
LINE
  8
0
 10
-41.4463
 20
110.475
 11
-41.84
 21
110.42
  0
LINE
  8
0
 10
-41.84
 20
110.42
 11
-42.2281
 21
110.334
  0
LINE
  8
0
 10
-42.2281
 20
110.334
 11
-42.6081
 21
110.217
  0
LINE
  8
0
 10
-42.6081
 20
110.217
 11
-42.9776
 21
110.07
  0
LINE
  8
0
 10
-42.9776
 20
110.07
 11
-43.3343
 21
109.895
  0
LINE
  8
0
 10
-43.3343
 20
109.895
 11
-43.676
 21
109.692
  0
LINE
  8
0
 10
-43.676
 20
109.692
 11
-44.0004
 21
109.462
  0
LINE
  8
0
 10
-44.0004
 20
109.462
 11
-44.3055
 21
109.207
  0
LINE
  8
0
 10
-44.3055
 20
109.207
 11
-44.5894
 21
108.929
  0
LINE
  8
0
 10
-44.5894
 20
108.929
 11
-44.8503
 21
108.629
  0
LINE
  8
0
 10
-44.8503
 20
108.629
 11
-45.0865
 21
108.309
  0
LINE
  8
0
 10
-45.0865
 20
108.309
 11
-45.2966
 21
107.971
  0
LINE
  8
0
 10
-45.2966
 20
107.971
 11
-45.4792
 21
107.618
  0
LINE
  8
0
 10
-45.4792
 20
107.618
 11
-45.6332
 21
107.252
  0
LINE
  8
0
 10
-45.6332
 20
107.252
 11
-45.7575
 21
106.874
  0
LINE
  8
0
 10
-45.7575
 20
106.874
 11
-45.8515
 21
106.488
  0
LINE
  8
0
 10
-45.8515
 20
106.488
 11
-45.9145
 21
106.095
  0
LINE
  8
0
 10
-45.9145
 20
106.095
 11
-45.946
 21
105.699
  0
LINE
  8
0
 10
-45.946
 20
105.699
 11
-45.946
 21
4.80122
  0
LINE
  8
0
 10
-44.96
 20
40.75
 11
-44.96
 21
89.75
  0
LINE
  8
0
 10
-44.96
 20
89.75
 11
-41.95
 21
89.75
  0
LINE
  8
0
 10
-41.95
 20
89.75
 11
-41.95
 21
99.6142
  0
LINE
  8
0
 10
-41.95
 20
99.6142
 11
-42.1492
 21
99.6142
  0
LINE
  8
0
 10
-42.1492
 20
99.6142
 11
-42.5316
 21
99.7265
  0
LINE
  8
0
 10
-42.5316
 20
99.7265
 11
-42.8668
 21
99.9419
  0
LINE
  8
0
 10
-42.8668
 20
99.9419
 11
-43.1277
 21
100.243
  0
LINE
  8
0
 10
-43.1277
 20
100.243
 11
-43.2933
 21
100.606
  0
LINE
  8
0
 10
-43.2933
 20
100.606
 11
-43.35
 21
101
  0
LINE
  8
0
 10
-43.35
 20
101
 11
-43.2933
 21
101.394
  0
LINE
  8
0
 10
-43.2933
 20
101.394
 11
-43.1277
 21
101.757
  0
LINE
  8
0
 10
-43.1277
 20
101.757
 11
-42.8668
 21
102.058
  0
LINE
  8
0
 10
-42.8668
 20
102.058
 11
-42.5316
 21
102.273
  0
LINE
  8
0
 10
-42.5316
 20
102.273
 11
-42.1492
 21
102.386
  0
LINE
  8
0
 10
-42.1492
 20
102.386
 11
-41.7508
 21
102.386
  0
LINE
  8
0
 10
-41.7508
 20
102.386
 11
-41.3684
 21
102.273
  0
LINE
  8
0
 10
-41.3684
 20
102.273
 11
-41.0332
 21
102.058
  0
LINE
  8
0
 10
-41.0332
 20
102.058
 11
-40.7722
 21
101.757
  0
LINE
  8
0
 10
-40.7722
 20
101.757
 11
-40.6067
 21
101.394
  0
LINE
  8
0
 10
-40.6067
 20
101.394
 11
-40.55
 21
101
  0
LINE
  8
0
 10
-40.55
 20
101
 11
34.15
 21
101
  0
LINE
  8
0
 10
34.15
 20
101
 11
34.2067
 21
101.394
  0
LINE
  8
0
 10
34.2067
 20
101.394
 11
34.3722
 21
101.757
  0
LINE
  8
0
 10
34.3722
 20
101.757
 11
34.6332
 21
102.058
  0
LINE
  8
0
 10
34.6332
 20
102.058
 11
34.9684
 21
102.273
  0
LINE
  8
0
 10
34.9684
 20
102.273
 11
35.3507
 21
102.386
  0
LINE
  8
0
 10
35.3507
 20
102.386
 11
35.7492
 21
102.386
  0
LINE
  8
0
 10
35.7492
 20
102.386
 11
36.1316
 21
102.273
  0
LINE
  8
0
 10
36.1316
 20
102.273
 11
36.4668
 21
102.058
  0
LINE
  8
0
 10
36.4668
 20
102.058
 11
36.7277
 21
101.757
  0
LINE
  8
0
 10
36.7277
 20
101.757
 11
36.8933
 21
101.394
  0
LINE
  8
0
 10
36.8933
 20
101.394
 11
36.95
 21
101
  0
LINE
  8
0
 10
36.95
 20
101
 11
36.8933
 21
100.606
  0
LINE
  8
0
 10
36.8933
 20
100.606
 11
36.7277
 21
100.243
  0
LINE
  8
0
 10
36.7277
 20
100.243
 11
36.4668
 21
99.9419
  0
LINE
  8
0
 10
36.4668
 20
99.9419
 11
36.1316
 21
99.7265
  0
LINE
  8
0
 10
36.1316
 20
99.7265
 11
35.7492
 21
99.6142
  0
LINE
  8
0
 10
35.7492
 20
99.6142
 11
35.55
 21
99.6142
  0
LINE
  8
0
 10
35.55
 20
99.6142
 11
35.55
 21
10.8858
  0
LINE
  8
0
 10
35.55
 20
10.8858
 11
35.7492
 21
10.8858
  0
LINE
  8
0
 10
35.7492
 20
10.8858
 11
36.1316
 21
10.7735
  0
LINE
  8
0
 10
36.1316
 20
10.7735
 11
36.4668
 21
10.5581
  0
LINE
  8
0
 10
36.4668
 20
10.5581
 11
36.7277
 21
10.2569
  0
LINE
  8
0
 10
36.7277
 20
10.2569
 11
36.8933
 21
9.89444
  0
LINE
  8
0
 10
36.8933
 20
9.89444
 11
36.95
 21
9.5
  0
LINE
  8
0
 10
36.95
 20
9.5
 11
36.8933
 21
9.10558
  0
LINE
  8
0
 10
36.8933
 20
9.10558
 11
36.7277
 21
8.7431
  0
LINE
  8
0
 10
36.7277
 20
8.7431
 11
36.4668
 21
8.44196
  0
LINE
  8
0
 10
36.4668
 20
8.44196
 11
36.1316
 21
8.22652
  0
LINE
  8
0
 10
36.1316
 20
8.22652
 11
35.7492
 21
8.11426
  0
LINE
  8
0
 10
35.7492
 20
8.11426
 11
35.3507
 21
8.11426
  0
LINE
  8
0
 10
35.3507
 20
8.11426
 11
34.9684
 21
8.22652
  0
LINE
  8
0
 10
34.9684
 20
8.22652
 11
34.6332
 21
8.44196
  0
LINE
  8
0
 10
34.6332
 20
8.44196
 11
34.3722
 21
8.7431
  0
LINE
  8
0
 10
34.3722
 20
8.7431
 11
34.2067
 21
9.10558
  0
LINE
  8
0
 10
34.2067
 20
9.10558
 11
34.15
 21
9.5
  0
LINE
  8
0
 10
34.15
 20
9.5
 11
-40.55
 21
9.5
  0
LINE
  8
0
 10
-40.55
 20
9.5
 11
-40.6067
 21
9.10558
  0
LINE
  8
0
 10
-40.6067
 20
9.10558
 11
-40.7722
 21
8.7431
  0
LINE
  8
0
 10
-40.7722
 20
8.7431
 11
-41.0332
 21
8.44196
  0
LINE
  8
0
 10
-41.0332
 20
8.44196
 11
-41.3684
 21
8.22652
  0
LINE
  8
0
 10
-41.3684
 20
8.22652
 11
-41.7508
 21
8.11426
  0
LINE
  8
0
 10
-41.7508
 20
8.11426
 11
-42.1492
 21
8.11426
  0
LINE
  8
0
 10
-42.1492
 20
8.11426
 11
-42.5316
 21
8.22652
  0
LINE
  8
0
 10
-42.5316
 20
8.22652
 11
-42.8668
 21
8.44196
  0
LINE
  8
0
 10
-42.8668
 20
8.44196
 11
-43.1277
 21
8.7431
  0
LINE
  8
0
 10
-43.1277
 20
8.7431
 11
-43.2933
 21
9.10558
  0
LINE
  8
0
 10
-43.2933
 20
9.10558
 11
-43.35
 21
9.5
  0
LINE
  8
0
 10
-43.35
 20
9.5
 11
-43.2933
 21
9.89444
  0
LINE
  8
0
 10
-43.2933
 20
9.89444
 11
-43.1277
 21
10.2569
  0
LINE
  8
0
 10
-43.1277
 20
10.2569
 11
-42.8668
 21
10.5581
  0
LINE
  8
0
 10
-42.8668
 20
10.5581
 11
-42.5316
 21
10.7735
  0
LINE
  8
0
 10
-42.5316
 20
10.7735
 11
-42.1492
 21
10.8858
  0
LINE
  8
0
 10
-42.1492
 20
10.8858
 11
-41.95
 21
10.8858
  0
LINE
  8
0
 10
-41.95
 20
10.8858
 11
-41.95
 21
40.75
  0
LINE
  8
0
 10
-41.95
 20
40.75
 11
-44.96
 21
40.75
  0
ENDSEC
  0
SECTION
  2
OBJECTS
  0
DICTIONARY
  0
ENDSEC
  0
EOF
