999
DXF from OpenSCAD
  0
SECTION
  2
HEADER
  9
$ACADVER
  1
AC1006
  9
$INSBASE
 10
0.0
 20
0.0
 30
0.0
  9
$EXTMIN
 10
0.000988349
 20
0
  9
$EXTMAX
 10
110.499
 20
25
  9
$LINMIN
 10
0.000988349
 20
0
  9
$LINMAX
 10
110.499
 20
25
  0
ENDSEC
  0
SECTION
  2
TABLES
  0
TABLE
  2
LTYPE
 70
1
  0
LTYPE
  2
CONTINUOUS
 70
64
  3
Solid line
 72
65
 73
0
 40
0.000000
  0
ENDTAB
  0
TABLE
  2
LAYER
 70
6
  0
LAYER
  2
0
 70
64
 62
7
  6
CONTINUOUS
  0
ENDTAB
  0
TABLE
  2
STYLE
 70
0
  0
ENDTAB
  0
ENDSEC
  0
SECTION
  2
BLOCKS
  0
ENDSEC
  0
SECTION
  2
ENTITIES
  0
LWPOLYLINE
100
AcDbEntity
  8
0
100
AcDbPolyline
 90
29
 70
1
 10
11.55
 20
0.91
 10
11.55
 20
1.4
 10
9.5
 20
1.4
 10
9.5
 20
2.65
 10
9
 20
2.65
 10
9
 20
22.45
 10
1.75
 20
22.45
 10
1.75
 20
23.6
 10
1.9
 20
23.6
 10
1.9
 20
22.6
 10
9.5
 20
22.6
 10
9.5
 20
18.7
 10
67.85
 20
18.7
 10
67.85
 20
22.6
 10
89
 20
22.6
 10
89
 20
23.8
 10
89.5
 20
23.8
 10
89.5
 20
25
 10
63.5
 20
25
 10
63.5
 20
20.5
 10
11.3
 20
20.5
 10
11.3
 20
23.6
 10
2.5
 20
23.6
 10
2.5
 20
25
 10
1.9916
 20
25
 10
0.000988349
 20
23.0109
 10
0.000988349
 20
0.8
 10
0.799765
 20
0
 10
10.9683
 20
0
  0
LWPOLYLINE
100
AcDbEntity
  8
0
100
AcDbPolyline
 90
15
 70
1
 10
110.499
 20
0.8
 10
110.499
 20
23.0109
 10
108.508
 20
25
 10
94.5
 20
25
 10
94.5
 20
23.8
 10
95
 20
23.8
 10
95
 20
22.6
 10
101.5
 20
22.6
 10
101.5
 20
2.65
 10
101
 20
2.65
 10
101
 20
1.4
 10
98.95
 20
1.4
 10
98.95
 20
0.91
 10
99.5317
 20
0
 10
109.7
 20
0
  0
LWPOLYLINE
100
AcDbEntity
  8
0
100
AcDbPolyline
 90
4
 70
1
 10
102.35
 20
22.6
 10
102.35
 20
23.6
 10
102.5
 20
23.6
 10
102.5
 20
22.6
  0
LWPOLYLINE
100
AcDbEntity
  8
0
100
AcDbPolyline
 90
4
 70
1
 10
103.5
 20
4.65
 10
103.5
 20
23.6
 10
108
 20
23.6
 10
108
 20
4.65
  0
ENDSEC
  0
EOF
