  0
SECTION
  2
BLOCKS
  0
ENDSEC
  0
SECTION
  2
ENTITIES
  0
LINE
  8
0
 10
0.000991821
 20
0.799999
 11
0.799772
 21
0
  0
LINE
  8
0
 10
0.799772
 20
0
 11
10.9683
 21
0
  0
LINE
  8
0
 10
10.9683
 20
0
 11
11.55
 21
0.91
  0
LINE
  8
0
 10
11.55
 20
0.91
 11
11.55
 21
1.4
  0
LINE
  8
0
 10
11.55
 20
1.4
 11
9.5
 21
1.4
  0
LINE
  8
0
 10
9.5
 20
1.4
 11
9.5
 21
2.65
  0
LINE
  8
0
 10
9.5
 20
2.65
 11
9
 21
2.65
  0
LINE
  8
0
 10
9
 20
2.65
 11
9
 21
22.45
  0
LINE
  8
0
 10
9
 20
22.45
 11
7
 21
22.45
  0
LINE
  8
0
 10
7
 20
22.45
 11
7
 21
4.65
  0
LINE
  8
0
 10
7
 20
4.65
 11
2.5
 21
4.65
  0
LINE
  8
0
 10
2.5
 20
4.65
 11
2.5
 21
22.45
  0
LINE
  8
0
 10
2.5
 20
22.45
 11
0.349999
 21
22.45
  0
LINE
  8
0
 10
0.349999
 20
22.45
 11
0.349999
 21
23.3597
  0
LINE
  8
0
 10
0.349999
 20
23.3597
 11
0.000991821
 21
23.0109
  0
LINE
  8
0
 10
0.000991821
 20
23.0109
 11
0.000991821
 21
0.799999
  0
LINE
  8
0
 10
0.5
 20
22.6
 11
9.5
 21
22.6
  0
LINE
  8
0
 10
9.5
 20
22.6
 11
9.5
 21
23.6
  0
LINE
  8
0
 10
9.5
 20
23.6
 11
1.5
 21
23.6
  0
LINE
  8
0
 10
1.5
 20
23.6
 11
1.5
 21
24.5088
  0
LINE
  8
0
 10
1.5
 20
24.5088
 11
0.5
 21
23.5096
  0
LINE
  8
0
 10
0.5
 20
23.5096
 11
0.5
 21
22.6
  0
LINE
  8
0
 10
4.7
 20
24.65
 11
6.3
 21
24.65
  0
LINE
  8
0
 10
6.3
 20
24.65
 11
6.3
 21
25
  0
LINE
  8
0
 10
6.3
 20
25
 11
4.7
 21
25
  0
LINE
  8
0
 10
4.7
 20
25
 11
4.7
 21
24.65
  0
LINE
  8
0
 10
9.5
 20
18.7
 11
67.85
 21
18.7
  0
LINE
  8
0
 10
67.85
 20
18.7
 11
67.85
 21
22.6
  0
LINE
  8
0
 10
67.85
 20
22.6
 11
89
 21
22.6
  0
LINE
  8
0
 10
89
 20
22.6
 11
89
 21
23.8
  0
LINE
  8
0
 10
89
 20
23.8
 11
89.6
 21
23.8
  0
LINE
  8
0
 10
89.6
 20
23.8
 11
89.6
 21
25
  0
LINE
  8
0
 10
89.6
 20
25
 11
63.5
 21
25
  0
LINE
  8
0
 10
63.5
 20
25
 11
63.5
 21
20.5
  0
LINE
  8
0
 10
63.5
 20
20.5
 11
59.2594
 21
20.5
  0
LINE
  8
0
 10
59.2594
 20
20.5
 11
59.2384
 21
20.4888
  0
LINE
  8
0
 10
59.2384
 20
20.4888
 11
59.0715
 21
20.4131
  0
LINE
  8
0
 10
59.0715
 20
20.4131
 11
58.9
 21
20.3486
  0
LINE
  8
0
 10
58.9
 20
20.3486
 11
58.7247
 21
20.2954
  0
LINE
  8
0
 10
58.7247
 20
20.2954
 11
58.5463
 21
20.2538
  0
LINE
  8
0
 10
58.5463
 20
20.2538
 11
58.45
 21
20.2379
  0
LINE
  8
0
 10
58.45
 20
20.2379
 11
58.45
 21
20.03
  0
LINE
  8
0
 10
58.45
 20
20.03
 11
57.55
 21
20.03
  0
LINE
  8
0
 10
57.55
 20
20.03
 11
57.55
 21
20.2379
  0
LINE
  8
0
 10
57.55
 20
20.2379
 11
57.4537
 21
20.2538
  0
LINE
  8
0
 10
57.4537
 20
20.2538
 11
57.2753
 21
20.2954
  0
LINE
  8
0
 10
57.2753
 20
20.2954
 11
57.1
 21
20.3486
  0
LINE
  8
0
 10
57.1
 20
20.3486
 11
56.9285
 21
20.4131
  0
LINE
  8
0
 10
56.9285
 20
20.4131
 11
56.7616
 21
20.4888
  0
LINE
  8
0
 10
56.7616
 20
20.4888
 11
56.7406
 21
20.5
  0
LINE
  8
0
 10
56.7406
 20
20.5
 11
9.5
 21
20.5
  0
LINE
  8
0
 10
9.5
 20
20.5
 11
9.5
 21
18.7
  0
LINE
  8
0
 10
94.4
 20
23.8
 11
95
 21
23.8
  0
LINE
  8
0
 10
95
 20
23.8
 11
95
 21
22.6
  0
LINE
  8
0
 10
95
 20
22.6
 11
101.5
 21
22.6
  0
LINE
  8
0
 10
101.5
 20
22.6
 11
101.5
 21
2.65
  0
LINE
  8
0
 10
101.5
 20
2.65
 11
101
 21
2.65
  0
LINE
  8
0
 10
101
 20
2.65
 11
101
 21
1.4
  0
LINE
  8
0
 10
101
 20
1.4
 11
98.95
 21
1.4
  0
LINE
  8
0
 10
98.95
 20
1.4
 11
98.95
 21
0.91
  0
LINE
  8
0
 10
98.95
 20
0.91
 11
99.5317
 21
0
  0
LINE
  8
0
 10
99.5317
 20
0
 11
109.7
 21
0
  0
LINE
  8
0
 10
109.7
 20
0
 11
110.499
 21
0.799999
  0
LINE
  8
0
 10
110.499
 20
0.799999
 11
110.499
 21
23.0109
  0
LINE
  8
0
 10
110.499
 20
23.0109
 11
108.508
 21
25
  0
LINE
  8
0
 10
108.508
 20
25
 11
94.4
 21
25
  0
LINE
  8
0
 10
94.4
 20
25
 11
94.4
 21
23.8
  0
LINE
  8
0
 10
102.35
 20
22.6
 11
102.35
 21
23.6
  0
LINE
  8
0
 10
102.35
 20
23.6
 11
102.5
 21
23.6
  0
LINE
  8
0
 10
102.5
 20
23.6
 11
102.5
 21
22.6
  0
LINE
  8
0
 10
102.5
 20
22.6
 11
102.35
 21
22.6
  0
LINE
  8
0
 10
103.5
 20
4.65
 11
103.5
 21
23.6
  0
LINE
  8
0
 10
103.5
 20
23.6
 11
108
 21
23.6
  0
LINE
  8
0
 10
108
 20
23.6
 11
108
 21
4.65
  0
LINE
  8
0
 10
108
 20
4.65
 11
103.5
 21
4.65
  0
ENDSEC
  0
SECTION
  2
OBJECTS
  0
DICTIONARY
  0
ENDSEC
  0
EOF
