<?xml version="1.0" encoding="UTF-8"?>
<svg class="dwg" width="1072" height="760" id="s2" viewBox="0 0 268 190" xmlns="http://www.w3.org/2000/svg" role="img"><rect class="ghost" x="28.00" y="14.00" width="91.90" height="108.40" rx="5.00"/><rect class="part" x="31.00" y="16.20" width="79.50" height="104.00" rx="1.50"/><circle class="hid" cx="73.95" cy="76.45" r="31.65"/><rect class="cell" x="48.75" y="69.70" width="44.00" height="49.00" rx="2.00"/><text class="cmp" x="70.75" y="92.80" text-anchor="middle" font-size="3.0">LiPo 2000 mAh  &#183;  694449</text><text class="cmpsub" x="70.75" y="96.80" text-anchor="middle" font-size="2.6">44 x 49 x 6.9</text><text class="cmpsub" x="70.75" y="100.40" text-anchor="middle" font-size="2.25">red +  &#183;  black -  &#183;  yellow NTC</text><rect class="boss" x="46.95" y="69.70" width="1.00" height="49.00" rx="0.00"/><rect class="boss" x="93.55" y="69.70" width="1.00" height="49.00" rx="0.00"/><rect class="pcb" x="31.50" y="17.20" width="43.20" height="50.80" rx="1.50"/><text class="cmp" x="53.10" y="30.70" text-anchor="middle" font-size="3.0">PERMA-PROTO</text><text class="cmpsub" x="53.10" y="34.70" text-anchor="middle" font-size="2.6">quarter 43.2 x 50.8</text><rect class="chg" x="32.50" y="38.70" width="32.00" height="26.30" rx="1.00"/><text class="cmp" x="48.50" y="51.25" text-anchor="middle" font-size="2.8">bq25185</text><text class="cmpsub" x="48.50" y="54.85" text-anchor="middle" font-size="2.5">32 x 26.3</text><circle class="cut" cx="53.10" cy="60.40" r="1.60"/><circle class="cut" cx="53.10" cy="24.80" r="1.60"/><rect class="pcb" x="77.40" y="17.20" width="29.46" height="48.25" rx="1.50"/><text class="cmp" x="92.13" y="37.93" text-anchor="middle" font-size="2.9">WAVESHARE</text><text class="cmp" x="92.13" y="41.53" text-anchor="middle" font-size="2.9">ESP32 DRIVER</text><text class="cmpsub" x="92.13" y="45.12" text-anchor="middle" font-size="2.6">29.46 x 48.25</text><rect class="cut" x="87.63" y="14.60" width="9.00" height="1.40" rx="0.00"/><rect class="boss" x="75.00" y="17.70" width="3.00" height="47.25" rx="0.00"/><rect class="boss" x="106.26" y="17.70" width="3.00" height="47.25" rx="0.00"/><rect class="pad" x="32.95" y="71.20" width="13.00" height="22.00" rx="0.80"/><rect class="pad" x="95.55" y="85.20" width="13.00" height="22.00" rx="0.80"/><rect class="chg" x="33.05" y="108.80" width="13.00" height="5.20" rx="0.80"/><rect class="warn" x="60.75" y="109.20" width="20.00" height="7.00" rx="0.00"/><g class="hatch" clip-path="url(#c52214)"><clipPath id="c52214"><rect x="60.75" y="109.20" width="20.00" height="7.00"/></clipPath><line class="hl" x1="53.75" y1="116.20" x2="60.75" y2="109.20"/><line class="hl" x1="55.75" y1="116.20" x2="62.75" y2="109.20"/><line class="hl" x1="57.75" y1="116.20" x2="64.75" y2="109.20"/><line class="hl" x1="59.75" y1="116.20" x2="66.75" y2="109.20"/><line class="hl" x1="61.75" y1="116.20" x2="68.75" y2="109.20"/><line class="hl" x1="63.75" y1="116.20" x2="70.75" y2="109.20"/><line class="hl" x1="65.75" y1="116.20" x2="72.75" y2="109.20"/><line class="hl" x1="67.75" y1="116.20" x2="74.75" y2="109.20"/><line class="hl" x1="69.75" y1="116.20" x2="76.75" y2="109.20"/><line class="hl" x1="71.75" y1="116.20" x2="78.75" y2="109.20"/><line class="hl" x1="73.75" y1="116.20" x2="80.75" y2="109.20"/><line class="hl" x1="75.75" y1="116.20" x2="82.75" y2="109.20"/><line class="hl" x1="77.75" y1="116.20" x2="84.75" y2="109.20"/><line class="hl" x1="79.75" y1="116.20" x2="86.75" y2="109.20"/></g><line class="ext" x1="31.00" y1="118.70" x2="31.00" y2="129.20"/><line class="ext" x1="48.75" y1="118.70" x2="48.75" y2="129.20"/><line class="dim" x1="31.00" y1="128.00" x2="48.75" y2="128.00"/><path class="arrow" d="M31.00,128.00 L32.60,127.49 L32.60,128.51 Z"/><path class="arrow" d="M48.75,128.00 L47.15,128.51 L47.15,127.49 Z"/><text class="dimtxt" x="39.88" y="126.70" text-anchor="middle" font-size="3.0">17.75</text><line class="ext" x1="48.75" y1="118.70" x2="48.75" y2="129.20"/><line class="ext" x1="92.75" y1="118.70" x2="92.75" y2="129.20"/><line class="dim" x1="48.75" y1="128.00" x2="92.75" y2="128.00"/><path class="arrow" d="M48.75,128.00 L50.35,127.49 L50.35,128.51 Z"/><path class="arrow" d="M92.75,128.00 L91.15,128.51 L91.15,127.49 Z"/><text class="dimtxt" x="70.75" y="126.70" text-anchor="middle" font-size="3.0">44</text><line class="ext" x1="92.75" y1="118.70" x2="92.75" y2="129.20"/><line class="ext" x1="110.50" y1="118.70" x2="110.50" y2="129.20"/><line class="dim" x1="92.75" y1="128.00" x2="110.50" y2="128.00"/><path class="arrow" d="M92.75,128.00 L94.35,127.49 L94.35,128.51 Z"/><path class="arrow" d="M110.50,128.00 L108.90,128.51 L108.90,127.49 Z"/><text class="dimtxt" x="101.62" y="126.70" text-anchor="middle" font-size="3.0">17.75</text><line class="ext" x1="31.50" y1="68.00" x2="31.50" y2="137.70"/><line class="ext" x1="74.70" y1="68.00" x2="74.70" y2="137.70"/><line class="dim" x1="31.50" y1="136.50" x2="74.70" y2="136.50"/><path class="arrow" d="M31.50,136.50 L33.10,135.99 L33.10,137.01 Z"/><path class="arrow" d="M74.70,136.50 L73.10,137.01 L73.10,135.99 Z"/><text class="dimtxt" x="53.10" y="135.20" text-anchor="middle" font-size="3.0">43.2</text><line class="ext" x1="74.70" y1="68.00" x2="74.70" y2="137.70"/><line class="ext" x1="77.40" y1="68.00" x2="77.40" y2="137.70"/><line class="dim" x1="74.70" y1="136.50" x2="77.40" y2="136.50"/><line class="dim" x1="70.70" y1="136.50" x2="74.70" y2="136.50"/><line class="dim" x1="77.40" y1="136.50" x2="81.40" y2="136.50"/><path class="arrow" d="M74.70,136.50 L73.10,137.01 L73.10,135.99 Z"/><path class="arrow" d="M77.40,136.50 L79.00,135.99 L79.00,137.01 Z"/><text class="dimtxt" x="76.05" y="134.90" text-anchor="middle" font-size="3.0">2.7</text><line class="ext" x1="77.40" y1="65.45" x2="77.40" y2="137.70"/><line class="ext" x1="106.86" y1="65.45" x2="106.86" y2="137.70"/><line class="dim" x1="77.40" y1="136.50" x2="106.86" y2="136.50"/><path class="arrow" d="M77.40,136.50 L79.00,135.99 L79.00,137.01 Z"/><path class="arrow" d="M106.86,136.50 L105.26,137.01 L105.26,135.99 Z"/><text class="dimtxt" x="92.13" y="135.20" text-anchor="middle" font-size="3.0">29.46</text><line class="ext" x1="31.00" y1="120.20" x2="31.00" y2="146.20"/><line class="ext" x1="110.50" y1="120.20" x2="110.50" y2="146.20"/><line class="dim" x1="31.00" y1="145.00" x2="110.50" y2="145.00"/><path class="arrow" d="M31.00,145.00 L32.60,144.49 L32.60,145.51 Z"/><path class="arrow" d="M110.50,145.00 L108.90,145.51 L108.90,144.49 Z"/><text class="dimtxt" x="70.75" y="143.70" text-anchor="middle" font-size="3.0">79.5</text><line class="ext" x1="31.50" y1="17.20" x2="20.80" y2="17.20"/><line class="ext" x1="31.50" y1="68.00" x2="20.80" y2="68.00"/><line class="dim" x1="22.00" y1="17.20" x2="22.00" y2="68.00"/><path class="arrow" d="M22.00,17.20 L22.51,18.80 L21.49,18.80 Z"/><path class="arrow" d="M22.00,68.00 L21.49,66.40 L22.51,66.40 Z"/><text class="dimtxt" x="20.70" y="42.60" text-anchor="middle" font-size="3.0" transform="rotate(-90 20.70 42.60)">50.8</text><line class="ext" x1="39.55" y1="111.40" x2="20.80" y2="111.40"/><line class="ext" x1="39.55" y1="122.40" x2="20.80" y2="122.40"/><line class="dim" x1="22.00" y1="111.40" x2="22.00" y2="122.40"/><path class="arrow" d="M22.00,111.40 L22.51,113.00 L21.49,113.00 Z"/><path class="arrow" d="M22.00,122.40 L21.49,120.80 L22.51,120.80 Z"/><text class="dimtxt" x="20.70" y="116.90" text-anchor="middle" font-size="3.0" transform="rotate(-90 20.70 116.90)">11</text><line class="ext" x1="106.86" y1="17.20" x2="115.20" y2="17.20"/><line class="ext" x1="106.86" y1="65.45" x2="115.20" y2="65.45"/><line class="dim" x1="114.00" y1="17.20" x2="114.00" y2="65.45"/><path class="arrow" d="M114.00,17.20 L114.51,18.80 L113.49,18.80 Z"/><path class="arrow" d="M114.00,65.45 L113.49,63.85 L114.51,63.85 Z"/><text class="dimtxt" x="112.70" y="41.33" text-anchor="middle" font-size="3.0" transform="rotate(-90 112.70 41.33)">48.25</text><line class="ext" x1="92.75" y1="69.70" x2="115.20" y2="69.70"/><line class="ext" x1="92.75" y1="118.70" x2="115.20" y2="118.70"/><line class="dim" x1="114.00" y1="69.70" x2="114.00" y2="118.70"/><path class="arrow" d="M114.00,69.70 L114.51,71.30 L113.49,71.30 Z"/><path class="arrow" d="M114.00,118.70 L113.49,117.10 L114.51,117.10 Z"/><text class="dimtxt" x="112.70" y="94.20" text-anchor="middle" font-size="3.0" transform="rotate(-90 112.70 94.20)">49</text><line class="ext" x1="110.50" y1="16.20" x2="125.20" y2="16.20"/><line class="ext" x1="110.50" y1="120.20" x2="125.20" y2="120.20"/><line class="dim" x1="124.00" y1="16.20" x2="124.00" y2="120.20"/><path class="arrow" d="M124.00,16.20 L124.51,17.80 L123.49,17.80 Z"/><path class="arrow" d="M124.00,120.20 L123.49,118.60 L124.51,118.60 Z"/><text class="dimtxt" x="122.70" y="68.20" text-anchor="middle" font-size="3.0" transform="rotate(-90 122.70 68.20)">104</text><line class="dim" x1="39.55" y1="111.40" x2="9.00" y2="120.40"/><path class="arrow" d="M39.55,111.40 L38.16,112.34 L37.87,111.36 Z"/><circle class="balloon" cx="9.00" cy="120.40" r="2.80"/><text class="baltxt" x="9.00" y="121.55" text-anchor="middle" font-size="3.1">1</text><line class="dim" x1="102.05" y1="96.20" x2="133.00" y2="100.00"/><path class="arrow" d="M102.05,96.20 L103.70,95.89 L103.58,96.90 Z"/><circle class="balloon" cx="133.00" cy="100.00" r="2.80"/><text class="baltxt" x="133.00" y="101.15" text-anchor="middle" font-size="3.1">2</text><line class="dim" x1="90.36" y1="98.33" x2="132.00" y2="119.00"/><path class="arrow" d="M90.36,98.33 L92.02,98.58 L91.57,99.50 Z"/><circle class="balloon" cx="132.00" cy="119.00" r="2.80"/><text class="baltxt" x="132.00" y="120.15" text-anchor="middle" font-size="3.1">3</text><line class="dim" x1="53.10" y1="24.80" x2="12.00" y2="27.80"/><path class="arrow" d="M53.10,24.80 L51.54,25.43 L51.47,24.41 Z"/><circle class="balloon" cx="12.00" cy="27.80" r="2.80"/><text class="baltxt" x="12.00" y="28.95" text-anchor="middle" font-size="3.1">4</text><line class="dim" x1="34.50" y1="40.70" x2="10.00" y2="46.00"/><path class="arrow" d="M34.50,40.70 L33.04,41.54 L32.83,40.54 Z"/><circle class="balloon" cx="10.00" cy="46.00" r="2.80"/><text class="baltxt" x="10.00" y="47.15" text-anchor="middle" font-size="3.1">5</text><line class="dim" x1="105.36" y1="25.33" x2="132.00" y2="40.00"/><path class="arrow" d="M105.36,25.33 L107.01,25.65 L106.51,26.55 Z"/><circle class="balloon" cx="132.00" cy="40.00" r="2.80"/><text class="baltxt" x="132.00" y="41.15" text-anchor="middle" font-size="3.1">6</text><line class="dim" x1="80.75" y1="112.70" x2="133.00" y2="113.00"/><path class="arrow" d="M80.75,112.70 L82.35,112.20 L82.35,113.22 Z"/><circle class="balloon" cx="133.00" cy="113.00" r="2.80"/><text class="baltxt" x="133.00" y="114.15" text-anchor="middle" font-size="3.1">7</text><text class="vlabel" x="73.95" y="9.00" text-anchor="middle" font-size="3.0">LOOKING INTO THE OPEN BACK</text><text class="vlabel" x="150.00" y="20.00" text-anchor="start" font-size="3.2">NOTES</text><circle class="balloon" cx="152.80" cy="25.50" r="2.80"/><text class="baltxt" x="152.80" y="26.65" text-anchor="middle" font-size="3.1">1</text><text class="note" x="159.00" y="26.50" text-anchor="start" font-size="2.7">USB-C charge breakout, on edge in printed rails,</text><text class="note" x="159.00" y="30.20" text-anchor="start" font-size="2.7">receptacle flush with the back cover. Two wires up the</text><text class="note" x="159.00" y="33.90" text-anchor="start" font-size="2.7">-X wall to the bq24074</text><circle class="balloon" cx="152.80" cy="39.40" r="2.80"/><text class="baltxt" x="152.80" y="40.55" text-anchor="middle" font-size="3.1">2</text><text class="note" x="159.00" y="40.40" text-anchor="start" font-size="2.7">module retention pads 13 x 22, one each side of the</text><text class="note" x="159.00" y="44.10" text-anchor="start" font-size="2.7">cell. Foam tape on the faces takes up the tolerance</text><text class="note" x="159.00" y="47.80" text-anchor="start" font-size="2.7">stack</text><circle class="balloon" cx="152.80" cy="53.30" r="2.80"/><text class="baltxt" x="152.80" y="54.45" text-anchor="middle" font-size="3.1">3</text><text class="note" x="159.00" y="54.30" text-anchor="start" font-size="2.7">stand puck, dia 63.3, bulges 5.95 into the interior</text><text class="note" x="159.00" y="58.00" text-anchor="start" font-size="2.7">behind everything on this sheet</text><circle class="balloon" cx="152.80" cy="63.50" r="2.80"/><text class="baltxt" x="152.80" y="64.65" text-anchor="middle" font-size="3.1">4</text><text class="note" x="159.00" y="64.50" text-anchor="start" font-size="2.7">2 x M2.5 posts, 35.6 apart, behind the Perma-Proto; the</text><text class="note" x="159.00" y="68.20" text-anchor="start" font-size="2.7">bq24074 rides on its front face</text><circle class="balloon" cx="152.80" cy="73.70" r="2.80"/><text class="baltxt" x="152.80" y="74.85" text-anchor="middle" font-size="3.1">5</text><text class="note" x="159.00" y="74.70" text-anchor="start" font-size="2.7">bq25185 charger breakout 32 x 26.3 x 7.2, low end of the</text><text class="note" x="159.00" y="78.40" text-anchor="start" font-size="2.7">Perma-Proto, nearest the charge port</text><circle class="balloon" cx="152.80" cy="83.90" r="2.80"/><text class="baltxt" x="152.80" y="85.05" text-anchor="middle" font-size="3.1">6</text><text class="note" x="159.00" y="84.90" text-anchor="start" font-size="2.7">driver-board rails 3 wide, overlapping the PCB 2 each</text><text class="note" x="159.00" y="88.60" text-anchor="start" font-size="2.7">side</text><circle class="balloon" cx="152.80" cy="94.10" r="2.80"/><text class="baltxt" x="152.80" y="95.25" text-anchor="middle" font-size="3.1">7</text><text class="note" x="159.00" y="95.10" text-anchor="start" font-size="2.7">MODULE 8-PIN HEADER KEEP-OUT 20 x 7 x 9 deep, position</text><text class="note" x="159.00" y="98.80" text-anchor="start" font-size="2.7">ASSUMED. Clashes with the cell by 1.1 - DO NOT PRINT,</text><text class="note" x="159.00" y="102.50" text-anchor="start" font-size="2.7">see below</text><text class="vlabel" x="150.00" y="111.00" text-anchor="start" font-size="3.2">MEASURE BEFORE YOU PRINT</text><text class="note" x="150.00" y="117.00" text-anchor="start" font-size="2.65">Three numbers on the module settle this sheet:</text><text class="note" x="150.00" y="123.50" text-anchor="start" font-size="2.65">a   header edge, and where across X</text><text class="val" x="157.00" y="127.20" text-anchor="start" font-size="2.65">conn_dz, conn_dx</text><text class="note" x="150.00" y="130.90" text-anchor="start" font-size="2.65">b   header stand-off, mated, with the bend</text><text class="val" x="157.00" y="134.60" text-anchor="start" font-size="2.65">conn_h  (assumed 9)</text><text class="note" x="150.00" y="138.30" text-anchor="start" font-size="2.65">c   is the glass centred on the PCB in Z?</text><text class="val" x="157.00" y="142.00" text-anchor="start" font-size="2.65">pan_off_z, act_off_z</text><text class="note" x="150.00" y="147.00" text-anchor="start" font-size="2.65">The board band clears a 9 mm header (12.7 available);</text><text class="note" x="150.00" y="150.80" text-anchor="start" font-size="2.65">the cell band does not (7.9). If the header is on</text><text class="note" x="150.00" y="154.60" text-anchor="start" font-size="2.65">the cell's edge the two bands swap, which also</text><text class="note" x="150.00" y="158.40" text-anchor="start" font-size="2.65">moves the flash port to the opposite wall. Or</text><text class="note" x="150.00" y="162.20" text-anchor="start" font-size="2.65">keep this layout and set depth = 26.6.</text><text class="note" x="166.00" y="164.60" text-anchor="start" font-size="2.35">STLs export flat-face-down and MIRRORED IN X (print_mirror = true)</text><rect class="tbframe" x="166.00" y="167.00" width="96.00" height="18.00" rx="0.00"/><line class="tbrule" x1="166.00" y1="176.00" x2="262.00" y2="176.00"/><line class="tbrule" x1="218.80" y1="176.00" x2="218.80" y2="185.00"/><line class="tbrule" x1="240.88" y1="176.00" x2="240.88" y2="185.00"/><text class="tbname" x="168.00" y="173.12" text-anchor="start" font-size="3.6">INTERNAL LAYOUT</text><text class="tbmeta" x="168.00" y="182.30" text-anchor="start" font-size="2.4">UNITS mm &#183; SCALE 1:1</text><text class="tbmeta" x="221.20" y="182.30" text-anchor="start" font-size="2.4">SHEET 2/8</text><text class="tbmeta" x="242.80" y="182.30" text-anchor="start" font-size="2.4">REV E</text></svg>