<?xml version="1.0" encoding="UTF-8"?>
<svg class="dwg" width="1072" height="760" id="s5" viewBox="0 0 268 190" xmlns="http://www.w3.org/2000/svg" role="img"><style>
svg{font-family:"IBM Plex Mono",ui-monospace,monospace}
.bg{fill:#F1F3F0;stroke:none}
.part{fill:#E4E8E3;stroke:#171B18;stroke-width:.55}
.edge{fill:none;stroke:#171B18;stroke-width:.5}
.inkline{fill:none;stroke:#171B18;stroke-width:1.1}
.ghost{fill:none;stroke:#D3D8D2;stroke-width:.45}
.hid{fill:none;stroke:#59635C;stroke-width:.35;stroke-dasharray:2.2 1.4}
.cl{fill:none;stroke:#59635C;stroke-width:.28;stroke-dasharray:6 1.6 1 1.6;opacity:.75}
.cut{fill:#F1F3F0;stroke:#171B18;stroke-width:.45}
.ink{fill:#171B18;opacity:.86;stroke:none}
.glass{fill:#D9E4E6;stroke:#171B18;stroke-width:.4}
.pcb{fill:#CBDCCF;stroke:#171B18;stroke-width:.45}
.cell{fill:#D2D6D8;stroke:#171B18;stroke-width:.45}
.chg{fill:#C7D8E4;stroke:#171B18;stroke-width:.4}
.plat{fill:#EDEFEA;stroke:#59635C;stroke-width:.35}
.boss{fill:#DCE2DA;stroke:#59635C;stroke-width:.35}
.pad{fill:#D8DED6;stroke:#59635C;stroke-width:.35}
.voidfill{fill:#E7EAE5;stroke:#59635C;stroke-width:.35}
.warn{fill:none;stroke:#A8631A;stroke-width:.6;stroke-dasharray:2 1.2}
.wire{fill:none;stroke:#171B18;stroke-width:.62;stroke-linejoin:round}
.wire.ntc{stroke:#A8631A}
.clash{fill:#A8631A;fill-opacity:.30;stroke:#A8631A;stroke-width:.7}
.clashtxt{fill:#A8631A;font-weight:600;letter-spacing:.02em}
.res{fill:#FAFBF9;stroke:#171B18;stroke-width:.5}
.leg{stroke:#171B18;stroke-width:2.6;stroke-linecap:round;fill:none}
.table{stroke:#59635C;stroke-width:.6}
.com{fill:#A8631A;stroke:#171B18;stroke-width:.3}
.hl{stroke:#D3D8D2;stroke-width:.3;fill:none}
.hatch{opacity:.9}
.dim{fill:none;stroke:#0E6B57;stroke-width:.32}
.ext{fill:none;stroke:#0E6B57;stroke-width:.22;opacity:.55}
.arrow{fill:#0E6B57;stroke:none}
.dimtxt{fill:#0E6B57;letter-spacing:.02em}
.note{fill:#59635C}
.val{fill:#171B18;font-weight:600}
.val.warn{fill:#A8631A;stroke:none}
.balloon{fill:#FAFBF9;stroke:#0E6B57;stroke-width:.45}
.baltxt{fill:#0E6B57;font-weight:600;text-anchor:middle}
.vlabel{fill:#171B18;font-weight:600;letter-spacing:.09em}
.cmp{fill:#171B18;font-weight:600}
.cmpsub{fill:#59635C}
.tbframe{fill:none;stroke:#171B18;stroke-width:.5}
.tbrule{stroke:#D3D8D2;stroke-width:.35;fill:none}
.tbname{fill:#171B18;font-weight:700;letter-spacing:.03em}
.tbmeta{fill:#59635C;letter-spacing:.09em}
@media (prefers-color-scheme:dark){
svg{font-family:"IBM Plex Mono",ui-monospace,monospace}
.bg{fill:#0F1211;stroke:none}
.part{fill:#232A26;stroke:#E8ECE7;stroke-width:.55}
.edge{fill:none;stroke:#E8ECE7;stroke-width:.5}
.inkline{fill:none;stroke:#E8ECE7;stroke-width:1.1}
.ghost{fill:none;stroke:#2C332E;stroke-width:.45}
.hid{fill:none;stroke:#93A099;stroke-width:.35;stroke-dasharray:2.2 1.4}
.cl{fill:none;stroke:#93A099;stroke-width:.28;stroke-dasharray:6 1.6 1 1.6;opacity:.75}
.cut{fill:#0F1211;stroke:#E8ECE7;stroke-width:.45}
.ink{fill:#E8ECE7;opacity:.86;stroke:none}
.glass{fill:#243233;stroke:#E8ECE7;stroke-width:.4}
.pcb{fill:#1F3327;stroke:#E8ECE7;stroke-width:.45}
.cell{fill:#2A3033;stroke:#E8ECE7;stroke-width:.45}
.chg{fill:#1E2E3A;stroke:#E8ECE7;stroke-width:.4}
.plat{fill:#1C221E;stroke:#93A099;stroke-width:.35}
.boss{fill:#28302B;stroke:#93A099;stroke-width:.35}
.pad{fill:#2A322C;stroke:#93A099;stroke-width:.35}
.voidfill{fill:#101413;stroke:#93A099;stroke-width:.35}
.warn{fill:none;stroke:#E0A64B;stroke-width:.6;stroke-dasharray:2 1.2}
.wire{fill:none;stroke:#E8ECE7;stroke-width:.62;stroke-linejoin:round}
.wire.ntc{stroke:#E0A64B}
.clash{fill:#E0A64B;fill-opacity:.30;stroke:#E0A64B;stroke-width:.7}
.clashtxt{fill:#E0A64B;font-weight:600;letter-spacing:.02em}
.res{fill:#171B18;stroke:#E8ECE7;stroke-width:.5}
.leg{stroke:#E8ECE7;stroke-width:2.6;stroke-linecap:round;fill:none}
.table{stroke:#93A099;stroke-width:.6}
.com{fill:#E0A64B;stroke:#E8ECE7;stroke-width:.3}
.hl{stroke:#2C332E;stroke-width:.3;fill:none}
.hatch{opacity:.9}
.dim{fill:none;stroke:#57CFA9;stroke-width:.32}
.ext{fill:none;stroke:#57CFA9;stroke-width:.22;opacity:.55}
.arrow{fill:#57CFA9;stroke:none}
.dimtxt{fill:#57CFA9;letter-spacing:.02em}
.note{fill:#93A099}
.val{fill:#E8ECE7;font-weight:600}
.val.warn{fill:#E0A64B;stroke:none}
.balloon{fill:#171B18;stroke:#57CFA9;stroke-width:.45}
.baltxt{fill:#57CFA9;font-weight:600;text-anchor:middle}
.vlabel{fill:#E8ECE7;font-weight:600;letter-spacing:.09em}
.cmp{fill:#E8ECE7;font-weight:600}
.cmpsub{fill:#93A099}
.tbframe{fill:none;stroke:#E8ECE7;stroke-width:.5}
.tbrule{stroke:#2C332E;stroke-width:.35;fill:none}
.tbname{fill:#E8ECE7;font-weight:700;letter-spacing:.03em}
.tbmeta{fill:#93A099;letter-spacing:.09em}
}</style><rect class="bg" x="0" y="0" width="268" height="190"/><rect class="part" x="22.00" y="14.00" width="91.90" height="108.40" rx="5.00"/><rect class="hid" x="28.00" y="22.80" width="81.60" height="92.50" rx="1.50"/><circle class="edge" cx="67.95" cy="76.45" r="31.65"/><circle class="cut" cx="67.95" cy="76.45" r="27.35"/><circle class="hid" cx="67.95" cy="76.45" r="28.65"/><circle class="cut" cx="31.65" cy="117.90" r="3.00"/><circle class="cut" cx="104.25" cy="117.90" r="3.00"/><circle class="cut" cx="31.65" cy="18.50" r="3.00"/><circle class="cut" cx="104.25" cy="18.50" r="3.00"/><rect class="plat" x="27.45" y="52.85" width="80.30" height="52.60" rx="1.00"/><circle class="boss" cx="70.25" cy="48.35" r="3.00"/><circle class="boss" cx="70.25" cy="29.05" r="3.00"/><circle class="boss" cx="95.25" cy="48.35" r="3.00"/><circle class="boss" cx="95.25" cy="29.05" r="3.00"/><rect class="chg" x="66.75" y="25.55" width="32.00" height="26.30" rx="1.00"/><rect class="boss" x="26.22" y="42.95" width="3.00" height="47.25" rx="0.00"/><rect class="boss" x="57.08" y="42.95" width="3.00" height="47.25" rx="0.00"/><rect class="boss" x="81.45" y="110.85" width="17.00" height="2.00" rx="0.00"/><rect class="boss" x="81.45" y="106.95" width="17.00" height="2.00" rx="0.00"/><rect class="cut" x="85.20" y="108.05" width="9.50" height="3.70" rx="1.20"/><text class="vlabel" x="67.95" y="6.00" text-anchor="middle" font-size="3.0">BACK COVER  &#183;  inner face</text><line class="ext" x1="22.00" y1="76.45" x2="8.80" y2="76.45"/><line class="ext" x1="22.00" y1="122.40" x2="8.80" y2="122.40"/><line class="dim" x1="10.00" y1="76.45" x2="10.00" y2="122.40"/><path class="arrow" d="M10.00,76.45 L10.51,78.05 L9.49,78.05 Z"/><path class="arrow" d="M10.00,122.40 L9.49,120.80 L10.51,120.80 Z"/><text class="dimtxt" x="8.70" y="99.43" text-anchor="middle" font-size="3.0" transform="rotate(-90 8.70 99.43)">45.95</text><line class="ext" x1="22.00" y1="122.40" x2="22.00" y2="138.60"/><line class="ext" x1="113.90" y1="122.40" x2="113.90" y2="138.60"/><line class="dim" x1="22.00" y1="137.40" x2="113.90" y2="137.40"/><path class="arrow" d="M22.00,137.40 L23.60,136.89 L23.60,137.91 Z"/><path class="arrow" d="M113.90,137.40 L112.30,137.91 L112.30,136.89 Z"/><text class="dimtxt" x="67.95" y="136.10" text-anchor="middle" font-size="3.0">91.9</text><line class="ext" x1="82.75" y1="38.70" x2="82.75" y2="131.60"/><line class="ext" x1="113.90" y1="38.70" x2="113.90" y2="131.60"/><line class="dim" x1="82.75" y1="130.40" x2="113.90" y2="130.40"/><path class="arrow" d="M82.75,130.40 L84.35,129.89 L84.35,130.91 Z"/><path class="arrow" d="M113.90,130.40 L112.30,130.91 L112.30,129.89 Z"/><text class="dimtxt" x="98.33" y="129.10" text-anchor="middle" font-size="3.0">31.15</text><line class="ext" x1="82.75" y1="38.70" x2="122.10" y2="38.70"/><line class="ext" x1="82.75" y1="122.40" x2="122.10" y2="122.40"/><line class="dim" x1="120.90" y1="38.70" x2="120.90" y2="122.40"/><path class="arrow" d="M120.90,38.70 L121.41,40.30 L120.39,40.30 Z"/><path class="arrow" d="M120.90,122.40 L120.39,120.80 L121.41,120.80 Z"/><text class="dimtxt" x="119.60" y="80.55" text-anchor="middle" font-size="3.0" transform="rotate(-90 119.60 80.55)">83.7</text><line class="dim" x1="87.37" y1="57.03" x2="95.37" y2="50.03"/><path class="arrow" d="M87.37,57.03 L88.24,55.59 L88.91,56.36 Z"/><circle class="balloon" cx="95.37" cy="50.03" r="2.80"/><text class="baltxt" x="95.37" y="51.18" text-anchor="middle" font-size="3.1">1</text><line class="dim" x1="82.75" y1="29.05" x2="94.75" y2="44.70"/><path class="arrow" d="M82.75,29.05 L84.13,30.01 L83.32,30.63 Z"/><circle class="balloon" cx="94.75" cy="44.70" r="2.80"/><text class="baltxt" x="94.75" y="45.85" text-anchor="middle" font-size="3.1">2</text><line class="dim" x1="59.88" y1="66.58" x2="68.88" y2="60.58"/><path class="arrow" d="M59.88,66.58 L60.93,65.26 L61.50,66.11 Z"/><circle class="balloon" cx="68.88" cy="60.58" r="2.80"/><text class="baltxt" x="68.88" y="61.73" text-anchor="middle" font-size="3.1">3</text><line class="dim" x1="89.95" y1="106.90" x2="78.95" y2="102.90"/><path class="arrow" d="M89.95,106.90 L88.27,106.83 L88.62,105.87 Z"/><circle class="balloon" cx="78.95" cy="102.90" r="2.80"/><text class="baltxt" x="78.95" y="104.05" text-anchor="middle" font-size="3.1">4</text><line class="dim" x1="75.95" y1="53.65" x2="66.95" y2="45.65"/><path class="arrow" d="M75.95,53.65 L74.41,52.97 L75.09,52.20 Z"/><circle class="balloon" cx="66.95" cy="45.65" r="2.80"/><text class="baltxt" x="66.95" y="46.80" text-anchor="middle" font-size="3.1">5</text><line class="dim" x1="104.25" y1="117.90" x2="90.25" y2="111.90"/><path class="arrow" d="M104.25,117.90 L102.58,117.74 L102.98,116.80 Z"/><circle class="balloon" cx="90.25" cy="111.90" r="2.80"/><text class="baltxt" x="90.25" y="113.05" text-anchor="middle" font-size="3.1">6</text><text class="vlabel" x="150.00" y="22.00" text-anchor="start" font-size="3.2">NOTES</text><circle class="balloon" cx="152.80" cy="27.50" r="2.80"/><text class="baltxt" x="152.80" y="28.65" text-anchor="middle" font-size="3.1">1</text><text class="note" x="159.00" y="28.50" text-anchor="start" font-size="2.7">pocket bore dia 54.7 x 4.15 deep. Bayonet</text><text class="note" x="159.00" y="32.20" text-anchor="start" font-size="2.7">groove dia 57.3 with three 34 deg entry gaps</text><text class="note" x="159.00" y="35.90" text-anchor="start" font-size="2.7">at 45 / 165 / 285 deg</text><circle class="balloon" cx="152.80" cy="41.40" r="2.80"/><text class="baltxt" x="152.80" y="42.55" text-anchor="middle" font-size="3.1">2</text><text class="note" x="159.00" y="42.40" text-anchor="start" font-size="2.7">four standoff pads under the bq25185</text><text class="note" x="159.00" y="46.10" text-anchor="start" font-size="2.7">charger, 32 x 26.3. Foam tape or a strap</text><text class="note" x="159.00" y="49.80" text-anchor="start" font-size="2.7">holds it - no screw posts, its hole spacing</text><text class="note" x="159.00" y="53.50" text-anchor="start" font-size="2.7">is not a measured number</text><circle class="balloon" cx="152.80" cy="59.00" r="2.80"/><text class="baltxt" x="152.80" y="60.15" text-anchor="middle" font-size="3.1">3</text><text class="note" x="159.00" y="60.00" text-anchor="start" font-size="2.7">driver-board rails - the board slides down</text><text class="note" x="159.00" y="63.70" text-anchor="start" font-size="2.7">from the top, stop at the bottom</text><circle class="balloon" cx="152.80" cy="69.20" r="2.80"/><text class="baltxt" x="152.80" y="70.35" text-anchor="middle" font-size="3.1">4</text><text class="note" x="159.00" y="70.20" text-anchor="start" font-size="2.7">USB-C breakout rails; the port opening is</text><text class="note" x="159.00" y="73.90" text-anchor="start" font-size="2.7">through the skin below them</text><circle class="balloon" cx="152.80" cy="79.40" r="2.80"/><text class="baltxt" x="152.80" y="80.55" text-anchor="middle" font-size="3.1">5</text><text class="note" x="159.00" y="80.40" text-anchor="start" font-size="2.7">cell platform, level with the puck face so</text><text class="note" x="159.00" y="84.10" text-anchor="start" font-size="2.7">the cell does not straddle the step, with a</text><text class="note" x="159.00" y="87.80" text-anchor="start" font-size="2.7">1 fence</text><circle class="balloon" cx="152.80" cy="93.30" r="2.80"/><text class="baltxt" x="152.80" y="94.45" text-anchor="middle" font-size="3.1">7</text><text class="note" x="159.00" y="94.30" text-anchor="start" font-size="2.7">not fitted</text><circle class="balloon" cx="152.80" cy="99.80" r="2.80"/><text class="baltxt" x="152.80" y="100.95" text-anchor="middle" font-size="3.1">6</text><text class="note" x="159.00" y="100.80" text-anchor="start" font-size="2.7">the four corner screw holes, counterbored</text><text class="note" x="166.00" y="164.60" text-anchor="start" font-size="2.35">STLs export flat-face-down and MIRRORED IN X (print_mirror = true)</text><rect class="tbframe" x="166.00" y="167.00" width="96.00" height="18.00" rx="0.00"/><line class="tbrule" x1="166.00" y1="176.00" x2="262.00" y2="176.00"/><line class="tbrule" x1="218.80" y1="176.00" x2="218.80" y2="185.00"/><line class="tbrule" x1="240.88" y1="176.00" x2="240.88" y2="185.00"/><text class="tbname" x="168.00" y="173.12" text-anchor="start" font-size="3.6">BACK COVER</text><text class="tbmeta" x="168.00" y="182.30" text-anchor="start" font-size="2.4">UNITS mm &#183; SCALE 1:1</text><text class="tbmeta" x="221.20" y="182.30" text-anchor="start" font-size="2.4">SHEET 5/8</text><text class="tbmeta" x="242.80" y="182.30" text-anchor="start" font-size="2.4">REV E</text></svg>