<?xml version="1.0" encoding="UTF-8"?>
<svg class="dwg" width="1072" height="760" id="s4" viewBox="0 0 268 190" xmlns="http://www.w3.org/2000/svg" role="img"><style>
svg{font-family:"IBM Plex Mono",ui-monospace,monospace}
.bg{fill:#F1F3F0;stroke:none}
.part{fill:#E4E8E3;stroke:#171B18;stroke-width:.55}
.edge{fill:none;stroke:#171B18;stroke-width:.5}
.inkline{fill:none;stroke:#171B18;stroke-width:1.1}
.ghost{fill:none;stroke:#D3D8D2;stroke-width:.45}
.hid{fill:none;stroke:#59635C;stroke-width:.35;stroke-dasharray:2.2 1.4}
.cl{fill:none;stroke:#59635C;stroke-width:.28;stroke-dasharray:6 1.6 1 1.6;opacity:.75}
.cut{fill:#F1F3F0;stroke:#171B18;stroke-width:.45}
.ink{fill:#171B18;opacity:.86;stroke:none}
.glass{fill:#D9E4E6;stroke:#171B18;stroke-width:.4}
.pcb{fill:#CBDCCF;stroke:#171B18;stroke-width:.45}
.cell{fill:#D2D6D8;stroke:#171B18;stroke-width:.45}
.chg{fill:#C7D8E4;stroke:#171B18;stroke-width:.4}
.plat{fill:#EDEFEA;stroke:#59635C;stroke-width:.35}
.boss{fill:#DCE2DA;stroke:#59635C;stroke-width:.35}
.pad{fill:#D8DED6;stroke:#59635C;stroke-width:.35}
.voidfill{fill:#E7EAE5;stroke:#59635C;stroke-width:.35}
.warn{fill:none;stroke:#A8631A;stroke-width:.6;stroke-dasharray:2 1.2}
.wire{fill:none;stroke:#171B18;stroke-width:.62;stroke-linejoin:round}
.wire.ntc{stroke:#A8631A}
.clash{fill:#A8631A;fill-opacity:.30;stroke:#A8631A;stroke-width:.7}
.clashtxt{fill:#A8631A;font-weight:600;letter-spacing:.02em}
.res{fill:#FAFBF9;stroke:#171B18;stroke-width:.5}
.leg{stroke:#171B18;stroke-width:2.6;stroke-linecap:round;fill:none}
.table{stroke:#59635C;stroke-width:.6}
.com{fill:#A8631A;stroke:#171B18;stroke-width:.3}
.hl{stroke:#D3D8D2;stroke-width:.3;fill:none}
.hatch{opacity:.9}
.dim{fill:none;stroke:#0E6B57;stroke-width:.32}
.ext{fill:none;stroke:#0E6B57;stroke-width:.22;opacity:.55}
.arrow{fill:#0E6B57;stroke:none}
.dimtxt{fill:#0E6B57;letter-spacing:.02em}
.note{fill:#59635C}
.val{fill:#171B18;font-weight:600}
.val.warn{fill:#A8631A;stroke:none}
.balloon{fill:#FAFBF9;stroke:#0E6B57;stroke-width:.45}
.baltxt{fill:#0E6B57;font-weight:600;text-anchor:middle}
.vlabel{fill:#171B18;font-weight:600;letter-spacing:.09em}
.cmp{fill:#171B18;font-weight:600}
.cmpsub{fill:#59635C}
.tbframe{fill:none;stroke:#171B18;stroke-width:.5}
.tbrule{stroke:#D3D8D2;stroke-width:.35;fill:none}
.tbname{fill:#171B18;font-weight:700;letter-spacing:.03em}
.tbmeta{fill:#59635C;letter-spacing:.09em}
@media (prefers-color-scheme:dark){
svg{font-family:"IBM Plex Mono",ui-monospace,monospace}
.bg{fill:#0F1211;stroke:none}
.part{fill:#232A26;stroke:#E8ECE7;stroke-width:.55}
.edge{fill:none;stroke:#E8ECE7;stroke-width:.5}
.inkline{fill:none;stroke:#E8ECE7;stroke-width:1.1}
.ghost{fill:none;stroke:#2C332E;stroke-width:.45}
.hid{fill:none;stroke:#93A099;stroke-width:.35;stroke-dasharray:2.2 1.4}
.cl{fill:none;stroke:#93A099;stroke-width:.28;stroke-dasharray:6 1.6 1 1.6;opacity:.75}
.cut{fill:#0F1211;stroke:#E8ECE7;stroke-width:.45}
.ink{fill:#E8ECE7;opacity:.86;stroke:none}
.glass{fill:#243233;stroke:#E8ECE7;stroke-width:.4}
.pcb{fill:#1F3327;stroke:#E8ECE7;stroke-width:.45}
.cell{fill:#2A3033;stroke:#E8ECE7;stroke-width:.45}
.chg{fill:#1E2E3A;stroke:#E8ECE7;stroke-width:.4}
.plat{fill:#1C221E;stroke:#93A099;stroke-width:.35}
.boss{fill:#28302B;stroke:#93A099;stroke-width:.35}
.pad{fill:#2A322C;stroke:#93A099;stroke-width:.35}
.voidfill{fill:#101413;stroke:#93A099;stroke-width:.35}
.warn{fill:none;stroke:#E0A64B;stroke-width:.6;stroke-dasharray:2 1.2}
.wire{fill:none;stroke:#E8ECE7;stroke-width:.62;stroke-linejoin:round}
.wire.ntc{stroke:#E0A64B}
.clash{fill:#E0A64B;fill-opacity:.30;stroke:#E0A64B;stroke-width:.7}
.clashtxt{fill:#E0A64B;font-weight:600;letter-spacing:.02em}
.res{fill:#171B18;stroke:#E8ECE7;stroke-width:.5}
.leg{stroke:#E8ECE7;stroke-width:2.6;stroke-linecap:round;fill:none}
.table{stroke:#93A099;stroke-width:.6}
.com{fill:#E0A64B;stroke:#E8ECE7;stroke-width:.3}
.hl{stroke:#2C332E;stroke-width:.3;fill:none}
.hatch{opacity:.9}
.dim{fill:none;stroke:#57CFA9;stroke-width:.32}
.ext{fill:none;stroke:#57CFA9;stroke-width:.22;opacity:.55}
.arrow{fill:#57CFA9;stroke:none}
.dimtxt{fill:#57CFA9;letter-spacing:.02em}
.note{fill:#93A099}
.val{fill:#E8ECE7;font-weight:600}
.val.warn{fill:#E0A64B;stroke:none}
.balloon{fill:#171B18;stroke:#57CFA9;stroke-width:.45}
.baltxt{fill:#57CFA9;font-weight:600;text-anchor:middle}
.vlabel{fill:#E8ECE7;font-weight:600;letter-spacing:.09em}
.cmp{fill:#E8ECE7;font-weight:600}
.cmpsub{fill:#93A099}
.tbframe{fill:none;stroke:#E8ECE7;stroke-width:.5}
.tbrule{stroke:#2C332E;stroke-width:.35;fill:none}
.tbname{fill:#E8ECE7;font-weight:700;letter-spacing:.03em}
.tbmeta{fill:#93A099;letter-spacing:.09em}
}</style><rect class="bg" x="0" y="0" width="268" height="190"/><rect class="part" x="16.00" y="24.00" width="91.90" height="108.40" rx="5.00"/><rect class="cut" x="29.45" y="34.50" width="65.00" height="87.40" rx="3.00"/><rect class="hid" x="19.00" y="26.20" width="79.50" height="104.00" rx="1.50"/><circle class="hid" cx="19.00" cy="130.20" r="0.00"/><circle class="hid" cx="19.00" cy="26.20" r="0.00"/><circle class="hid" cx="98.50" cy="130.20" r="0.00"/><circle class="hid" cx="98.50" cy="26.20" r="0.00"/><rect class="hid" x="20.00" y="32.45" width="77.50" height="91.50" rx="0.50"/><circle class="hid" cx="20.00" cy="123.95" r="1.40"/><circle class="hid" cx="20.00" cy="32.45" r="1.40"/><circle class="hid" cx="97.50" cy="123.95" r="1.40"/><circle class="hid" cx="97.50" cy="32.45" r="1.40"/><rect class="cut" x="17.00" y="68.20" width="3.00" height="40.00" rx="0.00"/><line class="ext" x1="20.00" y1="123.95" x2="12.80" y2="123.95"/><line class="ext" x1="20.00" y1="108.20" x2="12.80" y2="108.20"/><line class="dim" x1="14.00" y1="123.95" x2="14.00" y2="108.20"/><path class="arrow" d="M14.00,123.95 L13.49,122.35 L14.51,122.35 Z"/><path class="arrow" d="M14.00,108.20 L14.51,109.80 L13.49,109.80 Z"/><text class="dimtxt" x="12.70" y="116.08" text-anchor="middle" font-size="3.0" transform="rotate(-90 12.70 116.08)">15</text><line class="ext" x1="17.00" y1="68.20" x2="4.80" y2="68.20"/><line class="ext" x1="17.00" y1="108.20" x2="4.80" y2="108.20"/><line class="dim" x1="6.00" y1="68.20" x2="6.00" y2="108.20"/><path class="arrow" d="M6.00,68.20 L6.51,69.80 L5.49,69.80 Z"/><path class="arrow" d="M6.00,108.20 L5.49,106.60 L6.51,106.60 Z"/><text class="dimtxt" x="4.70" y="88.20" text-anchor="middle" font-size="3.0" transform="rotate(-90 4.70 88.20)">40</text><line class="ext" x1="20.00" y1="32.45" x2="12.80" y2="32.45"/><line class="ext" x1="20.00" y1="68.20" x2="12.80" y2="68.20"/><line class="dim" x1="14.00" y1="32.45" x2="14.00" y2="68.20"/><path class="arrow" d="M14.00,32.45 L14.51,34.05 L13.49,34.05 Z"/><path class="arrow" d="M14.00,68.20 L13.49,66.60 L14.51,66.60 Z"/><text class="dimtxt" x="12.70" y="50.33" text-anchor="middle" font-size="3.0" transform="rotate(-90 12.70 50.33)">35</text><circle class="cut" cx="102.20" cy="118.40" r="1.05"/><circle class="cut" cx="102.20" cy="78.20" r="1.05"/><circle class="cut" cx="102.20" cy="38.00" r="1.05"/><rect class="hid" x="73.90" y="24.00" width="13.00" height="2.20" rx="0.00"/><text class="vlabel" x="61.95" y="10.00" text-anchor="middle" font-size="3.0">FRAME  &#183;  view on the open back</text><line class="ext" x1="16.00" y1="132.40" x2="16.00" y2="148.60"/><line class="ext" x1="107.90" y1="132.40" x2="107.90" y2="148.60"/><line class="dim" x1="16.00" y1="147.40" x2="107.90" y2="147.40"/><path class="arrow" d="M16.00,147.40 L17.60,146.89 L17.60,147.91 Z"/><path class="arrow" d="M107.90,147.40 L106.30,147.91 L106.30,146.89 Z"/><text class="dimtxt" x="61.95" y="146.10" text-anchor="middle" font-size="3.0">91.9</text><line class="ext" x1="16.00" y1="24.00" x2="2.80" y2="24.00"/><line class="ext" x1="16.00" y1="132.40" x2="2.80" y2="132.40"/><line class="dim" x1="4.00" y1="24.00" x2="4.00" y2="132.40"/><path class="arrow" d="M4.00,24.00 L4.51,25.60 L3.49,25.60 Z"/><path class="arrow" d="M4.00,132.40 L3.49,130.80 L4.51,130.80 Z"/><text class="dimtxt" x="2.70" y="78.20" text-anchor="middle" font-size="3.0" transform="rotate(-90 2.70 78.20)">108.4</text><line class="ext" x1="19.00" y1="26.20" x2="19.00" y2="21.00"/><line class="ext" x1="98.50" y1="26.20" x2="98.50" y2="21.00"/><line class="dim" x1="19.00" y1="22.20" x2="98.50" y2="22.20"/><path class="arrow" d="M19.00,22.20 L20.60,21.69 L20.60,22.71 Z"/><path class="arrow" d="M98.50,22.20 L96.90,22.71 L96.90,21.69 Z"/><text class="dimtxt" x="58.75" y="20.90" text-anchor="middle" font-size="3.0">79.5</text><line class="ext" x1="98.50" y1="26.20" x2="112.70" y2="26.20"/><line class="ext" x1="98.50" y1="130.20" x2="112.70" y2="130.20"/><line class="dim" x1="111.50" y1="26.20" x2="111.50" y2="130.20"/><path class="arrow" d="M111.50,26.20 L112.01,27.80 L110.99,27.80 Z"/><path class="arrow" d="M111.50,130.20 L110.99,128.60 L112.01,128.60 Z"/><text class="dimtxt" x="110.20" y="78.20" text-anchor="middle" font-size="3.0" transform="rotate(-90 110.20 78.20)">104</text><line class="ext" x1="16.00" y1="130.20" x2="16.00" y2="140.60"/><line class="ext" x1="19.00" y1="130.20" x2="19.00" y2="140.60"/><line class="dim" x1="16.00" y1="139.40" x2="19.00" y2="139.40"/><line class="dim" x1="12.00" y1="139.40" x2="16.00" y2="139.40"/><line class="dim" x1="19.00" y1="139.40" x2="23.00" y2="139.40"/><path class="arrow" d="M16.00,139.40 L14.40,139.91 L14.40,138.89 Z"/><path class="arrow" d="M19.00,139.40 L20.60,138.89 L20.60,139.91 Z"/><text class="dimtxt" x="17.50" y="137.80" text-anchor="middle" font-size="3.0">3</text><line class="ext" x1="98.50" y1="130.20" x2="98.50" y2="140.60"/><line class="ext" x1="107.90" y1="130.20" x2="107.90" y2="140.60"/><line class="dim" x1="98.50" y1="139.40" x2="107.90" y2="139.40"/><path class="arrow" d="M98.50,139.40 L100.10,138.89 L100.10,139.91 Z"/><path class="arrow" d="M107.90,139.40 L106.30,139.91 L106.30,138.89 Z"/><text class="dimtxt" x="103.20" y="138.10" text-anchor="middle" font-size="3.0">9.4</text><line class="ext" x1="102.20" y1="38.00" x2="122.10" y2="38.00"/><line class="ext" x1="102.20" y1="78.20" x2="122.10" y2="78.20"/><line class="dim" x1="120.90" y1="38.00" x2="120.90" y2="78.20"/><path class="arrow" d="M120.90,38.00 L121.41,39.60 L120.39,39.60 Z"/><path class="arrow" d="M120.90,78.20 L120.39,76.60 L121.41,76.60 Z"/><text class="dimtxt" x="119.60" y="58.10" text-anchor="middle" font-size="3.0" transform="rotate(-90 119.60 58.10)">40.2</text><line class="ext" x1="102.20" y1="78.20" x2="122.10" y2="78.20"/><line class="ext" x1="102.20" y1="118.40" x2="122.10" y2="118.40"/><line class="dim" x1="120.90" y1="78.20" x2="120.90" y2="118.40"/><path class="arrow" d="M120.90,78.20 L121.41,79.80 L120.39,79.80 Z"/><path class="arrow" d="M120.90,118.40 L120.39,116.80 L121.41,116.80 Z"/><text class="dimtxt" x="119.60" y="98.30" text-anchor="middle" font-size="3.0" transform="rotate(-90 119.60 98.30)">40.2</text><line class="ext" x1="102.20" y1="118.40" x2="122.10" y2="118.40"/><line class="ext" x1="102.20" y1="132.40" x2="122.10" y2="132.40"/><line class="dim" x1="120.90" y1="118.40" x2="120.90" y2="132.40"/><path class="arrow" d="M120.90,118.40 L121.41,120.00 L120.39,120.00 Z"/><path class="arrow" d="M120.90,132.40 L120.39,130.80 L121.41,130.80 Z"/><text class="dimtxt" x="119.60" y="125.40" text-anchor="middle" font-size="3.0" transform="rotate(-90 119.60 125.40)">14</text><line class="dim" x1="102.20" y1="38.00" x2="93.20" y2="31.00"/><path class="arrow" d="M102.20,38.00 L100.62,37.42 L101.25,36.61 Z"/><circle class="balloon" cx="93.20" cy="31.00" r="2.80"/><text class="baltxt" x="93.20" y="32.15" text-anchor="middle" font-size="3.1">1</text><line class="dim" x1="80.40" y1="25.00" x2="98.40" y2="18.00"/><path class="arrow" d="M80.40,25.00 L81.71,23.94 L82.08,24.90 Z"/><circle class="balloon" cx="98.40" cy="18.00" r="2.80"/><text class="baltxt" x="98.40" y="19.15" text-anchor="middle" font-size="3.1">2</text><line class="dim" x1="17.90" y1="48.20" x2="10.00" y2="40.20"/><path class="arrow" d="M17.90,48.20 L16.41,47.42 L17.14,46.70 Z"/><circle class="balloon" cx="10.00" cy="40.20" r="2.80"/><text class="baltxt" x="10.00" y="41.35" text-anchor="middle" font-size="3.1">3</text><rect class="part" x="130.00" y="34.00" width="10.08" height="87.00" rx="0.00"/><g class="hatch" clip-path="url(#c73504)"><clipPath id="c73504"><rect x="130.00" y="34.00" width="10.08" height="87.00"/></clipPath><line class="hl" x1="43.00" y1="121.00" x2="130.00" y2="34.00"/><line class="hl" x1="44.60" y1="121.00" x2="131.60" y2="34.00"/><line class="hl" x1="46.20" y1="121.00" x2="133.20" y2="34.00"/><line class="hl" x1="47.80" y1="121.00" x2="134.80" y2="34.00"/><line class="hl" x1="49.40" y1="121.00" x2="136.40" y2="34.00"/><line class="hl" x1="51.00" y1="121.00" x2="138.00" y2="34.00"/><line class="hl" x1="52.60" y1="121.00" x2="139.60" y2="34.00"/><line class="hl" x1="54.20" y1="121.00" x2="141.20" y2="34.00"/><line class="hl" x1="55.80" y1="121.00" x2="142.80" y2="34.00"/><line class="hl" x1="57.40" y1="121.00" x2="144.40" y2="34.00"/><line class="hl" x1="59.00" y1="121.00" x2="146.00" y2="34.00"/><line class="hl" x1="60.60" y1="121.00" x2="147.60" y2="34.00"/><line class="hl" x1="62.20" y1="121.00" x2="149.20" y2="34.00"/><line class="hl" x1="63.80" y1="121.00" x2="150.80" y2="34.00"/><line class="hl" x1="65.40" y1="121.00" x2="152.40" y2="34.00"/><line class="hl" x1="67.00" y1="121.00" x2="154.00" y2="34.00"/><line class="hl" x1="68.60" y1="121.00" x2="155.60" y2="34.00"/><line class="hl" x1="70.20" y1="121.00" x2="157.20" y2="34.00"/><line class="hl" x1="71.80" y1="121.00" x2="158.80" y2="34.00"/><line class="hl" x1="73.40" y1="121.00" x2="160.40" y2="34.00"/><line class="hl" x1="75.00" y1="121.00" x2="162.00" y2="34.00"/><line class="hl" x1="76.60" y1="121.00" x2="163.60" y2="34.00"/><line class="hl" x1="78.20" y1="121.00" x2="165.20" y2="34.00"/><line class="hl" x1="79.80" y1="121.00" x2="166.80" y2="34.00"/><line class="hl" x1="81.40" y1="121.00" x2="168.40" y2="34.00"/><line class="hl" x1="83.00" y1="121.00" x2="170.00" y2="34.00"/><line class="hl" x1="84.60" y1="121.00" x2="171.60" y2="34.00"/><line class="hl" x1="86.20" y1="121.00" x2="173.20" y2="34.00"/><line class="hl" x1="87.80" y1="121.00" x2="174.80" y2="34.00"/><line class="hl" x1="89.40" y1="121.00" x2="176.40" y2="34.00"/><line class="hl" x1="91.00" y1="121.00" x2="178.00" y2="34.00"/><line class="hl" x1="92.60" y1="121.00" x2="179.60" y2="34.00"/><line class="hl" x1="94.20" y1="121.00" x2="181.20" y2="34.00"/><line class="hl" x1="95.80" y1="121.00" x2="182.80" y2="34.00"/><line class="hl" x1="97.40" y1="121.00" x2="184.40" y2="34.00"/><line class="hl" x1="99.00" y1="121.00" x2="186.00" y2="34.00"/><line class="hl" x1="100.60" y1="121.00" x2="187.60" y2="34.00"/><line class="hl" x1="102.20" y1="121.00" x2="189.20" y2="34.00"/><line class="hl" x1="103.80" y1="121.00" x2="190.80" y2="34.00"/><line class="hl" x1="105.40" y1="121.00" x2="192.40" y2="34.00"/><line class="hl" x1="107.00" y1="121.00" x2="194.00" y2="34.00"/><line class="hl" x1="108.60" y1="121.00" x2="195.60" y2="34.00"/><line class="hl" x1="110.20" y1="121.00" x2="197.20" y2="34.00"/><line class="hl" x1="111.80" y1="121.00" x2="198.80" y2="34.00"/><line class="hl" x1="113.40" y1="121.00" x2="200.40" y2="34.00"/><line class="hl" x1="115.00" y1="121.00" x2="202.00" y2="34.00"/><line class="hl" x1="116.60" y1="121.00" x2="203.60" y2="34.00"/><line class="hl" x1="118.20" y1="121.00" x2="205.20" y2="34.00"/><line class="hl" x1="119.80" y1="121.00" x2="206.80" y2="34.00"/><line class="hl" x1="121.40" y1="121.00" x2="208.40" y2="34.00"/><line class="hl" x1="123.00" y1="121.00" x2="210.00" y2="34.00"/><line class="hl" x1="124.60" y1="121.00" x2="211.60" y2="34.00"/><line class="hl" x1="126.20" y1="121.00" x2="213.20" y2="34.00"/><line class="hl" x1="127.80" y1="121.00" x2="214.80" y2="34.00"/><line class="hl" x1="129.40" y1="121.00" x2="216.40" y2="34.00"/><line class="hl" x1="131.00" y1="121.00" x2="218.00" y2="34.00"/><line class="hl" x1="132.60" y1="121.00" x2="219.60" y2="34.00"/><line class="hl" x1="134.20" y1="121.00" x2="221.20" y2="34.00"/><line class="hl" x1="135.80" y1="121.00" x2="222.80" y2="34.00"/><line class="hl" x1="137.40" y1="121.00" x2="224.40" y2="34.00"/><line class="hl" x1="139.00" y1="121.00" x2="226.00" y2="34.00"/></g><rect class="part" x="130.00" y="34.00" width="19.08" height="20.30" rx="0.00"/><g class="hatch" clip-path="url(#c45890)"><clipPath id="c45890"><rect x="130.00" y="34.00" width="19.08" height="20.30"/></clipPath><line class="hl" x1="109.70" y1="54.30" x2="130.00" y2="34.00"/><line class="hl" x1="111.30" y1="54.30" x2="131.60" y2="34.00"/><line class="hl" x1="112.90" y1="54.30" x2="133.20" y2="34.00"/><line class="hl" x1="114.50" y1="54.30" x2="134.80" y2="34.00"/><line class="hl" x1="116.10" y1="54.30" x2="136.40" y2="34.00"/><line class="hl" x1="117.70" y1="54.30" x2="138.00" y2="34.00"/><line class="hl" x1="119.30" y1="54.30" x2="139.60" y2="34.00"/><line class="hl" x1="120.90" y1="54.30" x2="141.20" y2="34.00"/><line class="hl" x1="122.50" y1="54.30" x2="142.80" y2="34.00"/><line class="hl" x1="124.10" y1="54.30" x2="144.40" y2="34.00"/><line class="hl" x1="125.70" y1="54.30" x2="146.00" y2="34.00"/><line class="hl" x1="127.30" y1="54.30" x2="147.60" y2="34.00"/><line class="hl" x1="128.90" y1="54.30" x2="149.20" y2="34.00"/><line class="hl" x1="130.50" y1="54.30" x2="150.80" y2="34.00"/><line class="hl" x1="132.10" y1="54.30" x2="152.40" y2="34.00"/><line class="hl" x1="133.70" y1="54.30" x2="154.00" y2="34.00"/><line class="hl" x1="135.30" y1="54.30" x2="155.60" y2="34.00"/><line class="hl" x1="136.90" y1="54.30" x2="157.20" y2="34.00"/><line class="hl" x1="138.50" y1="54.30" x2="158.80" y2="34.00"/><line class="hl" x1="140.10" y1="54.30" x2="160.40" y2="34.00"/><line class="hl" x1="141.70" y1="54.30" x2="162.00" y2="34.00"/><line class="hl" x1="143.30" y1="54.30" x2="163.60" y2="34.00"/><line class="hl" x1="144.90" y1="54.30" x2="165.20" y2="34.00"/><line class="hl" x1="146.50" y1="54.30" x2="166.80" y2="34.00"/><line class="hl" x1="148.10" y1="54.30" x2="168.40" y2="34.00"/></g><rect class="part" x="130.00" y="100.70" width="19.08" height="20.30" rx="0.00"/><g class="hatch" clip-path="url(#c59930)"><clipPath id="c59930"><rect x="130.00" y="100.70" width="19.08" height="20.30"/></clipPath><line class="hl" x1="109.70" y1="121.00" x2="130.00" y2="100.70"/><line class="hl" x1="111.30" y1="121.00" x2="131.60" y2="100.70"/><line class="hl" x1="112.90" y1="121.00" x2="133.20" y2="100.70"/><line class="hl" x1="114.50" y1="121.00" x2="134.80" y2="100.70"/><line class="hl" x1="116.10" y1="121.00" x2="136.40" y2="100.70"/><line class="hl" x1="117.70" y1="121.00" x2="138.00" y2="100.70"/><line class="hl" x1="119.30" y1="121.00" x2="139.60" y2="100.70"/><line class="hl" x1="120.90" y1="121.00" x2="141.20" y2="100.70"/><line class="hl" x1="122.50" y1="121.00" x2="142.80" y2="100.70"/><line class="hl" x1="124.10" y1="121.00" x2="144.40" y2="100.70"/><line class="hl" x1="125.70" y1="121.00" x2="146.00" y2="100.70"/><line class="hl" x1="127.30" y1="121.00" x2="147.60" y2="100.70"/><line class="hl" x1="128.90" y1="121.00" x2="149.20" y2="100.70"/><line class="hl" x1="130.50" y1="121.00" x2="150.80" y2="100.70"/><line class="hl" x1="132.10" y1="121.00" x2="152.40" y2="100.70"/><line class="hl" x1="133.70" y1="121.00" x2="154.00" y2="100.70"/><line class="hl" x1="135.30" y1="121.00" x2="155.60" y2="100.70"/><line class="hl" x1="136.90" y1="121.00" x2="157.20" y2="100.70"/><line class="hl" x1="138.50" y1="121.00" x2="158.80" y2="100.70"/><line class="hl" x1="140.10" y1="121.00" x2="160.40" y2="100.70"/><line class="hl" x1="141.70" y1="121.00" x2="162.00" y2="100.70"/><line class="hl" x1="143.30" y1="121.00" x2="163.60" y2="100.70"/><line class="hl" x1="144.90" y1="121.00" x2="165.20" y2="100.70"/><line class="hl" x1="146.50" y1="121.00" x2="166.80" y2="100.70"/><line class="hl" x1="148.10" y1="121.00" x2="168.40" y2="100.70"/></g><rect class="glass" x="140.08" y="57.20" width="7.56" height="40.60" rx="0.00"/><rect class="pcb" x="149.08" y="48.50" width="11.52" height="58.00" rx="0.00"/><text class="vlabel" x="130.00" y="25.00" text-anchor="start" font-size="3.0">SECTION B-B  &#183;  front lip</text><line class="ext" x1="130.00" y1="121.00" x2="130.00" y2="132.20"/><line class="ext" x1="140.08" y1="121.00" x2="140.08" y2="132.20"/><line class="dim" x1="130.00" y1="131.00" x2="140.08" y2="131.00"/><path class="arrow" d="M130.00,131.00 L131.60,130.49 L131.60,131.51 Z"/><path class="arrow" d="M140.08,131.00 L138.48,131.51 L138.48,130.49 Z"/><text class="dimtxt" x="135.04" y="129.70" text-anchor="middle" font-size="3.0">1.4</text><line class="ext" x1="140.08" y1="121.00" x2="140.08" y2="132.20"/><line class="ext" x1="149.08" y1="121.00" x2="149.08" y2="132.20"/><line class="dim" x1="140.08" y1="131.00" x2="149.08" y2="131.00"/><line class="dim" x1="136.08" y1="131.00" x2="140.08" y2="131.00"/><line class="dim" x1="149.08" y1="131.00" x2="153.08" y2="131.00"/><path class="arrow" d="M140.08,131.00 L138.48,131.51 L138.48,130.49 Z"/><path class="arrow" d="M149.08,131.00 L150.68,130.49 L150.68,131.51 Z"/><text class="dimtxt" x="144.58" y="129.40" text-anchor="middle" font-size="3.0">1.25</text><line class="ext" x1="149.08" y1="121.00" x2="149.08" y2="132.20"/><line class="ext" x1="160.60" y1="121.00" x2="160.60" y2="132.20"/><line class="dim" x1="149.08" y1="131.00" x2="160.60" y2="131.00"/><path class="arrow" d="M149.08,131.00 L150.68,130.49 L150.68,131.51 Z"/><path class="arrow" d="M160.60,131.00 L159.00,131.51 L159.00,130.49 Z"/><text class="dimtxt" x="154.84" y="129.70" text-anchor="middle" font-size="3.0">1.6</text><line class="dim" x1="135.04" y1="52.85" x2="126.04" y2="44.15"/><path class="arrow" d="M135.04,52.85 L133.53,52.11 L134.25,51.37 Z"/><circle class="balloon" cx="126.04" cy="44.15" r="2.80"/><text class="baltxt" x="126.04" y="45.30" text-anchor="middle" font-size="3.1">4</text><line class="dim" x1="139.54" y1="105.05" x2="130.54" y2="113.75"/><path class="arrow" d="M139.54,105.05 L138.75,106.53 L138.03,105.79 Z"/><circle class="balloon" cx="130.54" cy="113.75" r="2.80"/><text class="baltxt" x="130.54" y="114.90" text-anchor="middle" font-size="3.1">5</text><line class="dim" x1="18.50" y1="88.20" x2="7.00" y2="88.20"/><path class="arrow" d="M18.50,88.20 L16.90,88.71 L16.90,87.69 Z"/><circle class="balloon" cx="7.00" cy="88.20" r="2.80"/><text class="baltxt" x="7.00" y="89.35" text-anchor="middle" font-size="3.1">6</text><line class="dim" x1="20.00" y1="32.45" x2="7.00" y2="40.45"/><path class="arrow" d="M20.00,32.45 L18.91,33.72 L18.37,32.85 Z"/><circle class="balloon" cx="7.00" cy="40.45" r="2.80"/><text class="baltxt" x="7.00" y="41.60" text-anchor="middle" font-size="3.1">7</text><text class="vlabel" x="192.00" y="24.00" text-anchor="start" font-size="3.2">NOTES</text><circle class="balloon" cx="194.80" cy="29.50" r="2.80"/><text class="baltxt" x="194.80" y="30.65" text-anchor="middle" font-size="3.1">1</text><text class="note" x="201.00" y="30.50" text-anchor="start" font-size="2.7">3 x dia 2.1 pilot holes, 8 deep,</text><text class="note" x="201.00" y="34.20" text-anchor="start" font-size="2.7">drilled from the back face</text><circle class="balloon" cx="194.80" cy="39.70" r="2.80"/><text class="baltxt" x="194.80" y="40.85" text-anchor="middle" font-size="3.1">2</text><text class="note" x="201.00" y="40.70" text-anchor="start" font-size="2.7">blind pocket 13 wide for the driver</text><text class="note" x="201.00" y="44.40" text-anchor="start" font-size="2.7">board's own USB-C; the top wall</text><text class="note" x="201.00" y="48.10" text-anchor="start" font-size="2.7">stays solid, 1.5 of skin outboard of</text><text class="note" x="201.00" y="51.80" text-anchor="start" font-size="2.7">the jack</text><circle class="balloon" cx="194.80" cy="57.30" r="2.80"/><text class="baltxt" x="194.80" y="58.45" text-anchor="middle" font-size="3.1">3</text><text class="note" x="201.00" y="58.30" text-anchor="start" font-size="2.7">cavity 79.5 x 104, corners R1.5 -</text><text class="note" x="201.00" y="62.00" text-anchor="start" font-size="2.7">inside the 1.707 limit for a sharp</text><text class="note" x="201.00" y="65.70" text-anchor="start" font-size="2.7">PCB corner in a 0.25 clearance</text><text class="note" x="201.00" y="69.40" text-anchor="start" font-size="2.7">pocket, so no corner relief is</text><text class="note" x="201.00" y="73.10" text-anchor="start" font-size="2.7">needed here</text><circle class="balloon" cx="194.80" cy="78.60" r="2.80"/><text class="baltxt" x="194.80" y="79.75" text-anchor="middle" font-size="3.1">4</text><text class="note" x="201.00" y="79.60" text-anchor="start" font-size="2.7">panel recess - the glass stands 1.05</text><text class="note" x="201.00" y="83.30" text-anchor="start" font-size="2.7">proud of the PCB, so the seat is</text><text class="note" x="201.00" y="87.00" text-anchor="start" font-size="2.7">stepped</text><circle class="balloon" cx="194.80" cy="92.50" r="2.80"/><text class="baltxt" x="194.80" y="93.65" text-anchor="middle" font-size="3.1">5</text><text class="note" x="201.00" y="93.50" text-anchor="start" font-size="2.7">PCB pocket</text><circle class="balloon" cx="194.80" cy="99.00" r="2.80"/><text class="baltxt" x="194.80" y="100.15" text-anchor="middle" font-size="3.1">6</text><text class="note" x="201.00" y="100.00" text-anchor="start" font-size="2.7">ribbon relief 3 out x 40 along the</text><text class="note" x="201.00" y="103.70" text-anchor="start" font-size="2.7">thick-bezel edge - a LONG-AXIS edge</text><text class="note" x="201.00" y="107.40" text-anchor="start" font-size="2.7">- 15 from one end, 35 from the</text><text class="note" x="201.00" y="111.10" text-anchor="start" font-size="2.7">other, 3 past the glass back face. A</text><text class="note" x="201.00" y="114.80" text-anchor="start" font-size="2.7">slot rather than a local pocket</text><text class="note" x="201.00" y="118.50" text-anchor="start" font-size="2.7">because the ribbon runs ALONG this</text><text class="note" x="201.00" y="122.20" text-anchor="start" font-size="2.7">edge; it also sets the frame width</text><circle class="balloon" cx="194.80" cy="127.70" r="2.80"/><text class="baltxt" x="194.80" y="128.85" text-anchor="middle" font-size="3.1">7</text><text class="note" x="201.00" y="128.70" text-anchor="start" font-size="2.7">corner relief R1.4 at all four GLASS</text><text class="note" x="201.00" y="132.40" text-anchor="start" font-size="2.7">pocket corners, so the glass's sharp</text><text class="note" x="201.00" y="136.10" text-anchor="start" font-size="2.7">corners seat</text><text class="vlabel" x="192.00" y="145.00" text-anchor="start" font-size="3.2">LIP OVERLAP ON THE GLASS</text><text class="note" x="192.00" y="152.00" text-anchor="start" font-size="2.7">top / bottom   1.3</text><text class="note" x="192.00" y="155.80" text-anchor="start" font-size="2.7">ribbon side    8.7</text><text class="note" x="192.00" y="159.60" text-anchor="start" font-size="2.7">opposite side  2.3</text><text class="vlabel" x="16.00" y="149.00" text-anchor="start" font-size="3.2">THE MODULE, AND THE RIBBON ROUTE</text><text class="note" x="16.00" y="155.00" text-anchor="start" font-size="2.7">glass 76 x 90, sharp corners. Dead border</text><text class="note" x="16.00" y="158.60" text-anchor="start" font-size="2.7">3 on three sides, 9.4 on the ribbon side.</text><text class="note" x="16.00" y="162.20" text-anchor="start" font-size="2.7">Pocket margin 1.5 on the width, 1.5 on the height.</text><text class="note" x="16.00" y="165.80" text-anchor="start" font-size="2.7">Seen from the rear, the ribbon leaves</text><text class="note" x="16.00" y="169.40" text-anchor="start" font-size="2.7">the thick-bezel edge - a LONG-AXIS edge</text><text class="note" x="16.00" y="173.00" text-anchor="start" font-size="2.7">- folds back behind the glass, turns 90</text><text class="note" x="16.00" y="176.60" text-anchor="start" font-size="2.7">deg to run ALONG that edge, then 90 deg</text><text class="note" x="16.00" y="180.20" text-anchor="start" font-size="2.7">back out to the header. That run is why</text><text class="note" x="16.00" y="183.80" text-anchor="start" font-size="2.7">the relief is a 40 slot, not a pocket.</text><text class="vlabel" x="88.00" y="152.00" text-anchor="start" font-size="3.2">DETAIL C  &#183;  pocket corner  &#183;  6:1</text><rect class="part" x="106.00" y="157.60" width="8.40" height="21.60" rx="0.00"/><rect class="part" x="92.80" y="157.60" width="13.20" height="8.40" rx="0.00"/><path class="cut" d="M92.80,166.00 L103.00,166.00 A3.00,3.00 0 0 0 106.00,169.00 L106.00,179.20"/><circle class="cut" cx="106.00" cy="166.00" r="8.40"/><rect class="glass" x="92.80" y="170.50" width="8.70" height="8.70" rx="0.00"/><text class="cmp" x="98.08" y="173.92" text-anchor="middle" font-size="2.5">glass</text><line class="dim" x1="112.05" y1="159.95" x2="115.40" y2="155.10"/><path class="arrow" d="M112.05,159.95 L112.54,158.34 L113.38,158.93 Z"/><text class="note" x="116.60" y="156.10" text-anchor="start" font-size="3.0">R1.4</text><text class="note" x="124.00" y="158.00" text-anchor="start" font-size="2.6">Relief is centred ON</text><text class="note" x="124.00" y="161.80" text-anchor="start" font-size="2.6">the theoretical sharp</text><text class="note" x="124.00" y="165.60" text-anchor="start" font-size="2.6">corner, so it</text><text class="note" x="124.00" y="169.40" text-anchor="start" font-size="2.6">undercuts equally in</text><text class="note" x="124.00" y="173.20" text-anchor="start" font-size="2.6">both axes.</text><text class="note" x="124.00" y="177.00" text-anchor="start" font-size="2.6"></text><text class="note" x="124.00" y="180.80" text-anchor="start" font-size="2.6">All four corners are</text><text class="note" x="124.00" y="184.60" text-anchor="start" font-size="2.6">identical.</text><text class="note" x="124.00" y="188.40" text-anchor="start" font-size="2.6"></text><text class="note" x="166.00" y="164.60" text-anchor="start" font-size="2.35">STLs export flat-face-down and MIRRORED IN X (print_mirror = true)</text><rect class="tbframe" x="166.00" y="167.00" width="96.00" height="18.00" rx="0.00"/><line class="tbrule" x1="166.00" y1="176.00" x2="262.00" y2="176.00"/><line class="tbrule" x1="218.80" y1="176.00" x2="218.80" y2="185.00"/><line class="tbrule" x1="240.88" y1="176.00" x2="240.88" y2="185.00"/><text class="tbname" x="168.00" y="173.12" text-anchor="start" font-size="3.6">FRAME</text><text class="tbmeta" x="168.00" y="182.30" text-anchor="start" font-size="2.4">UNITS mm &#183; SCALE 1:1</text><text class="tbmeta" x="221.20" y="182.30" text-anchor="start" font-size="2.4">SHEET 4/8</text><text class="tbmeta" x="242.80" y="182.30" text-anchor="start" font-size="2.4">REV E</text></svg>