<?xml version="1.0" encoding="UTF-8"?>
<svg class="dwg" width="1072" height="928" id="s8" viewBox="0 0 268 232" xmlns="http://www.w3.org/2000/svg" role="img"><style>
svg{font-family:"IBM Plex Mono",ui-monospace,monospace}
.bg{fill:#F1F3F0;stroke:none}
.part{fill:#E4E8E3;stroke:#171B18;stroke-width:.55}
.edge{fill:none;stroke:#171B18;stroke-width:.5}
.inkline{fill:none;stroke:#171B18;stroke-width:1.1}
.ghost{fill:none;stroke:#D3D8D2;stroke-width:.45}
.hid{fill:none;stroke:#59635C;stroke-width:.35;stroke-dasharray:2.2 1.4}
.cl{fill:none;stroke:#59635C;stroke-width:.28;stroke-dasharray:6 1.6 1 1.6;opacity:.75}
.cut{fill:#F1F3F0;stroke:#171B18;stroke-width:.45}
.ink{fill:#171B18;opacity:.86;stroke:none}
.glass{fill:#D9E4E6;stroke:#171B18;stroke-width:.4}
.pcb{fill:#CBDCCF;stroke:#171B18;stroke-width:.45}
.cell{fill:#D2D6D8;stroke:#171B18;stroke-width:.45}
.chg{fill:#C7D8E4;stroke:#171B18;stroke-width:.4}
.plat{fill:#EDEFEA;stroke:#59635C;stroke-width:.35}
.boss{fill:#DCE2DA;stroke:#59635C;stroke-width:.35}
.pad{fill:#D8DED6;stroke:#59635C;stroke-width:.35}
.voidfill{fill:#E7EAE5;stroke:#59635C;stroke-width:.35}
.warn{fill:none;stroke:#A8631A;stroke-width:.6;stroke-dasharray:2 1.2}
.wire{fill:none;stroke:#171B18;stroke-width:.62;stroke-linejoin:round}
.wire.ntc{stroke:#A8631A}
.clash{fill:#A8631A;fill-opacity:.30;stroke:#A8631A;stroke-width:.7}
.clashtxt{fill:#A8631A;font-weight:600;letter-spacing:.02em}
.res{fill:#FAFBF9;stroke:#171B18;stroke-width:.5}
.leg{stroke:#171B18;stroke-width:2.6;stroke-linecap:round;fill:none}
.table{stroke:#59635C;stroke-width:.6}
.com{fill:#A8631A;stroke:#171B18;stroke-width:.3}
.hl{stroke:#D3D8D2;stroke-width:.3;fill:none}
.hatch{opacity:.9}
.dim{fill:none;stroke:#0E6B57;stroke-width:.32}
.ext{fill:none;stroke:#0E6B57;stroke-width:.22;opacity:.55}
.arrow{fill:#0E6B57;stroke:none}
.dimtxt{fill:#0E6B57;letter-spacing:.02em}
.note{fill:#59635C}
.val{fill:#171B18;font-weight:600}
.val.warn{fill:#A8631A;stroke:none}
.balloon{fill:#FAFBF9;stroke:#0E6B57;stroke-width:.45}
.baltxt{fill:#0E6B57;font-weight:600;text-anchor:middle}
.vlabel{fill:#171B18;font-weight:600;letter-spacing:.09em}
.cmp{fill:#171B18;font-weight:600}
.cmpsub{fill:#59635C}
.tbframe{fill:none;stroke:#171B18;stroke-width:.5}
.tbrule{stroke:#D3D8D2;stroke-width:.35;fill:none}
.tbname{fill:#171B18;font-weight:700;letter-spacing:.03em}
.tbmeta{fill:#59635C;letter-spacing:.09em}
@media (prefers-color-scheme:dark){
svg{font-family:"IBM Plex Mono",ui-monospace,monospace}
.bg{fill:#0F1211;stroke:none}
.part{fill:#232A26;stroke:#E8ECE7;stroke-width:.55}
.edge{fill:none;stroke:#E8ECE7;stroke-width:.5}
.inkline{fill:none;stroke:#E8ECE7;stroke-width:1.1}
.ghost{fill:none;stroke:#2C332E;stroke-width:.45}
.hid{fill:none;stroke:#93A099;stroke-width:.35;stroke-dasharray:2.2 1.4}
.cl{fill:none;stroke:#93A099;stroke-width:.28;stroke-dasharray:6 1.6 1 1.6;opacity:.75}
.cut{fill:#0F1211;stroke:#E8ECE7;stroke-width:.45}
.ink{fill:#E8ECE7;opacity:.86;stroke:none}
.glass{fill:#243233;stroke:#E8ECE7;stroke-width:.4}
.pcb{fill:#1F3327;stroke:#E8ECE7;stroke-width:.45}
.cell{fill:#2A3033;stroke:#E8ECE7;stroke-width:.45}
.chg{fill:#1E2E3A;stroke:#E8ECE7;stroke-width:.4}
.plat{fill:#1C221E;stroke:#93A099;stroke-width:.35}
.boss{fill:#28302B;stroke:#93A099;stroke-width:.35}
.pad{fill:#2A322C;stroke:#93A099;stroke-width:.35}
.voidfill{fill:#101413;stroke:#93A099;stroke-width:.35}
.warn{fill:none;stroke:#E0A64B;stroke-width:.6;stroke-dasharray:2 1.2}
.wire{fill:none;stroke:#E8ECE7;stroke-width:.62;stroke-linejoin:round}
.wire.ntc{stroke:#E0A64B}
.clash{fill:#E0A64B;fill-opacity:.30;stroke:#E0A64B;stroke-width:.7}
.clashtxt{fill:#E0A64B;font-weight:600;letter-spacing:.02em}
.res{fill:#171B18;stroke:#E8ECE7;stroke-width:.5}
.leg{stroke:#E8ECE7;stroke-width:2.6;stroke-linecap:round;fill:none}
.table{stroke:#93A099;stroke-width:.6}
.com{fill:#E0A64B;stroke:#E8ECE7;stroke-width:.3}
.hl{stroke:#2C332E;stroke-width:.3;fill:none}
.hatch{opacity:.9}
.dim{fill:none;stroke:#57CFA9;stroke-width:.32}
.ext{fill:none;stroke:#57CFA9;stroke-width:.22;opacity:.55}
.arrow{fill:#57CFA9;stroke:none}
.dimtxt{fill:#57CFA9;letter-spacing:.02em}
.note{fill:#93A099}
.val{fill:#E8ECE7;font-weight:600}
.val.warn{fill:#E0A64B;stroke:none}
.balloon{fill:#171B18;stroke:#57CFA9;stroke-width:.45}
.baltxt{fill:#57CFA9;font-weight:600;text-anchor:middle}
.vlabel{fill:#E8ECE7;font-weight:600;letter-spacing:.09em}
.cmp{fill:#E8ECE7;font-weight:600}
.cmpsub{fill:#93A099}
.tbframe{fill:none;stroke:#E8ECE7;stroke-width:.5}
.tbrule{stroke:#2C332E;stroke-width:.35;fill:none}
.tbname{fill:#E8ECE7;font-weight:700;letter-spacing:.03em}
.tbmeta{fill:#93A099;letter-spacing:.09em}
}</style><rect class="bg" x="0" y="0" width="268" height="232"/><rect class="part" x="14.00" y="38.00" width="40.00" height="28.00" rx="1.50"/><text class="cmp" x="34.00" y="45.00" text-anchor="middle" font-size="3.3">USB-C</text><text class="cmpsub" x="34.00" y="49.40" text-anchor="middle" font-size="2.6">breakout</text><rect class="part" x="80.00" y="30.00" width="58.00" height="54.00" rx="1.50"/><text class="cmp" x="109.00" y="37.00" text-anchor="middle" font-size="3.3">bq25185</text><text class="cmpsub" x="109.00" y="41.40" text-anchor="middle" font-size="2.6">charger + power path</text><rect class="part" x="80.00" y="108.00" width="58.00" height="26.00" rx="1.50"/><text class="cmp" x="109.00" y="115.00" text-anchor="middle" font-size="3.3">1S LiPo  &#183;  694449</text><text class="cmpsub" x="109.00" y="119.40" text-anchor="middle" font-size="2.6">2000 mAh, salvaged</text><rect class="part" x="170.00" y="38.00" width="58.00" height="46.00" rx="1.50"/><text class="cmp" x="199.00" y="45.00" text-anchor="middle" font-size="3.3">Waveshare</text><text class="cmpsub" x="199.00" y="49.40" text-anchor="middle" font-size="2.6">ESP32 driver board</text><circle class="cut" cx="54.00" cy="48.00" r="0.80"/><text class="note" x="56.00" y="49.00" text-anchor="start" font-size="2.6">VBUS</text><circle class="cut" cx="80.00" cy="48.00" r="0.80"/><text class="note" x="78.00" y="49.00" text-anchor="end" font-size="2.6">VBUS</text><circle class="cut" cx="54.00" cy="58.00" r="0.80"/><text class="note" x="56.00" y="59.00" text-anchor="start" font-size="2.6">GND</text><circle class="cut" cx="80.00" cy="58.00" r="0.80"/><text class="note" x="78.00" y="59.00" text-anchor="end" font-size="2.6">GND</text><circle class="cut" cx="80.00" cy="70.00" r="0.80"/><text class="note" x="78.00" y="71.00" text-anchor="end" font-size="2.6">BATT</text><circle class="cut" cx="138.00" cy="48.00" r="0.80"/><text class="note" x="140.00" y="49.00" text-anchor="start" font-size="2.6">LOAD</text><circle class="cut" cx="170.00" cy="48.00" r="0.80"/><text class="note" x="168.00" y="49.00" text-anchor="end" font-size="2.6">5V</text><circle class="cut" cx="138.00" cy="70.00" r="0.80"/><text class="note" x="140.00" y="71.00" text-anchor="start" font-size="2.6">GND</text><circle class="cut" cx="170.00" cy="60.00" r="0.80"/><text class="note" x="168.00" y="61.00" text-anchor="end" font-size="2.6">GND</text><circle class="cut" cx="170.00" cy="72.00" r="0.80"/><text class="note" x="168.00" y="73.00" text-anchor="end" font-size="2.6">GPIO 32-39</text><circle class="cut" cx="80.00" cy="80.00" r="0.80"/><text class="note" x="78.00" y="81.00" text-anchor="end" font-size="2.6">TH</text><circle class="cut" cx="98.00" cy="108.00" r="0.80"/><text class="note" x="100.00" y="105.40" text-anchor="start" font-size="2.6">+ red</text><circle class="cut" cx="114.00" cy="134.00" r="0.80"/><text class="note" x="116.40" y="135.00" text-anchor="start" font-size="2.6">- black</text><circle class="cut" cx="126.00" cy="108.00" r="0.80"/><text class="note" x="128.40" y="105.40" text-anchor="start" font-size="2.6">NTC</text><path class="wire" d="M54.00,48.00 L80.00,48.00"/><text class="dimtxt" x="67.00" y="45.60" text-anchor="middle" font-size="2.7">5 V</text><path class="wire" d="M54.00,58.00 L80.00,58.00"/><path class="wire" d="M80.00,70.00 L66.00,70.00 L66.00,98.00 L98.00,98.00 L98.00,108.00"/><path class="wire ntc" d="M126,108 L126,94 L60,94 L60,80 L80,80"/><text class="dimtxt" x="93.00" y="92.40" text-anchor="middle" font-size="2.6">yellow  &#183;  10k NTC</text><path class="wire" d="M138.00,48.00 L170.00,48.00"/><text class="dimtxt" x="152.00" y="45.60" text-anchor="middle" font-size="2.7">3.0-4.5 V</text><path class="wire" d="M138.00,70.00 L150.00,70.00 L150.00,60.00 L170.00,60.00"/><rect class="res" x="159.00" y="88.00" width="6.00" height="11.00" rx="0.00"/><text class="note" x="168.00" y="94.60" text-anchor="start" font-size="2.6">100k</text><rect class="res" x="159.00" y="107.00" width="6.00" height="11.00" rx="0.00"/><text class="note" x="168.00" y="113.60" text-anchor="start" font-size="2.6">100k</text><path class="wire" d="M162.00,48.00 L162.00,88.00"/><path class="wire" d="M162.00,99.00 L162.00,107.00"/><path class="wire" d="M162.00,103.00 L166.00,103.00 L166.00,72.00 L170.00,72.00"/><path class="wire" d="M162.00,118.00 L162.00,142.00"/><path class="wire" d="M80.00,58.00 L56.00,58.00 L56.00,142.00 L162.00,142.00"/><path class="wire" d="M114.00,134.00 L114.00,142.00"/><line class="wire" x1="108.00" y1="142.00" x2="120.00" y2="142.00"/><line class="edge" x1="110.50" y1="145.00" x2="117.50" y2="145.00"/><line class="edge" x1="113.00" y1="148.00" x2="115.00" y2="148.00"/><text class="note" x="114.00" y="153.00" text-anchor="middle" font-size="2.6">GND</text><line class="dim" x1="67.00" y1="48.00" x2="40.00" y2="24.00"/><path class="arrow" d="M67.00,48.00 L65.46,47.32 L66.14,46.55 Z"/><circle class="balloon" cx="40.00" cy="24.00" r="2.80"/><text class="baltxt" x="40.00" y="25.15" text-anchor="middle" font-size="3.1">1</text><line class="dim" x1="109.00" y1="30.00" x2="109.00" y2="18.00"/><path class="arrow" d="M109.00,30.00 L108.49,28.40 L109.51,28.40 Z"/><circle class="balloon" cx="109.00" cy="18.00" r="2.80"/><text class="baltxt" x="109.00" y="19.15" text-anchor="middle" font-size="3.1">2</text><line class="dim" x1="152.00" y1="48.00" x2="152.00" y2="22.00"/><path class="arrow" d="M152.00,48.00 L151.49,46.40 L152.51,46.40 Z"/><circle class="balloon" cx="152.00" cy="22.00" r="2.80"/><text class="baltxt" x="152.00" y="23.15" text-anchor="middle" font-size="3.1">3</text><line class="dim" x1="162.00" y1="103.00" x2="144.00" y2="103.00"/><path class="arrow" d="M162.00,103.00 L160.40,103.51 L160.40,102.49 Z"/><circle class="balloon" cx="144.00" cy="103.00" r="2.80"/><text class="baltxt" x="144.00" y="104.15" text-anchor="middle" font-size="3.1">4</text><line class="dim" x1="80.00" y1="80.00" x2="40.00" y2="80.00"/><path class="arrow" d="M80.00,80.00 L78.40,80.51 L78.40,79.49 Z"/><circle class="balloon" cx="40.00" cy="80.00" r="2.80"/><text class="baltxt" x="40.00" y="81.15" text-anchor="middle" font-size="3.1">6</text><line class="dim" x1="170.00" y1="48.00" x2="200.00" y2="22.00"/><path class="arrow" d="M170.00,48.00 L170.87,46.57 L171.54,47.34 Z"/><circle class="balloon" cx="200.00" cy="22.00" r="2.80"/><text class="baltxt" x="200.00" y="23.15" text-anchor="middle" font-size="3.1">5</text><text class="vlabel" x="120.00" y="12.00" text-anchor="middle" font-size="3.0">POWER WIRING  &#183;  charge and run from one cell</text><text class="vlabel" x="14.00" y="164.00" text-anchor="start" font-size="3.2">NOTES</text><circle class="balloon" cx="16.80" cy="169.50" r="2.80"/><text class="baltxt" x="16.80" y="170.65" text-anchor="middle" font-size="3.1">1</text><text class="note" x="23.00" y="170.50" text-anchor="start" font-size="2.7">USB-C breakout needs 5.1k from CC1 and CC2 to GND or a USB-C</text><text class="note" x="23.00" y="174.20" text-anchor="start" font-size="2.7">source will never turn its 5 V on. VBUS and GND only, no data</text><circle class="balloon" cx="16.80" cy="179.70" r="2.80"/><text class="baltxt" x="16.80" y="180.85" text-anchor="middle" font-size="3.1">2</text><text class="note" x="23.00" y="180.70" text-anchor="start" font-size="2.7">charge current: Adafruit's pinout page says it ships at 500</text><text class="note" x="23.00" y="184.40" text-anchor="start" font-size="2.7">mA, the product page says 1 A - CHECK THE BOARD. 1 A is 0.5C</text><text class="note" x="23.00" y="188.10" text-anchor="start" font-size="2.7">for this cell and is what you want. Solar capability is input</text><text class="note" x="23.00" y="191.80" text-anchor="start" font-size="2.7">voltage regulation and is inert on USB</text><circle class="balloon" cx="16.80" cy="197.30" r="2.80"/><text class="baltxt" x="16.80" y="198.45" text-anchor="middle" font-size="3.1">6</text><text class="note" x="23.00" y="198.30" text-anchor="start" font-size="2.7">THREE WIRES, all three verified on this pack: red positive to</text><text class="note" x="23.00" y="202.00" text-anchor="start" font-size="2.7">black, and yellow-to-black 10k at room temperature - an NTC.</text><text class="note" x="23.00" y="205.70" text-anchor="start" font-size="2.7">Cut the TH jumper and wire yellow to TH; the charger then</text><text class="note" x="23.00" y="209.40" text-anchor="start" font-size="2.7">refuses to charge outside roughly 0-45 C. The pack carries its</text><text class="note" x="23.00" y="213.10" text-anchor="start" font-size="2.7">own protection PCB at the tab end</text><text class="vlabel" x="142.00" y="164.00" text-anchor="start" font-size="3.2"> </text><circle class="balloon" cx="144.80" cy="169.50" r="2.80"/><text class="baltxt" x="144.80" y="170.65" text-anchor="middle" font-size="3.1">3</text><text class="note" x="151.00" y="170.50" text-anchor="start" font-size="2.7">LOAD is 4.5 V max - from the input when plugged in, from</text><text class="note" x="151.00" y="174.20" text-anchor="start" font-size="2.7">the cell otherwise. The 5V pin takes 3.6-5.5 V and browns</text><text class="note" x="151.00" y="177.90" text-anchor="start" font-size="2.7">out near 3.6 V</text><circle class="balloon" cx="144.80" cy="183.40" r="2.80"/><text class="baltxt" x="144.80" y="184.55" text-anchor="middle" font-size="3.1">4</text><text class="note" x="151.00" y="184.40" text-anchor="start" font-size="2.7">divider must land on ADC1 (GPIO 32-39) - ADC2 is dead</text><text class="note" x="151.00" y="188.10" text-anchor="start" font-size="2.7">while WiFi is on. Below 3.6 V firmware MUST deep-sleep for</text><text class="note" x="151.00" y="191.80" text-anchor="start" font-size="2.7">good, or the cell gets dragged to its protection cut</text><circle class="balloon" cx="144.80" cy="197.30" r="2.80"/><text class="baltxt" x="144.80" y="198.45" text-anchor="middle" font-size="3.1">5</text><text class="note" x="151.00" y="198.30" text-anchor="start" font-size="2.7">PWR / CHRG / FAULT LEDs onboard; S1 and S2 pads mirror</text><text class="note" x="151.00" y="202.00" text-anchor="start" font-size="2.7">them. /CE pulled high disables charging</text><text class="note" x="166.00" y="206.60" text-anchor="start" font-size="2.35">STLs export flat-face-down and MIRRORED IN X (print_mirror = true)</text><rect class="tbframe" x="166.00" y="209.00" width="96.00" height="18.00" rx="0.00"/><line class="tbrule" x1="166.00" y1="218.00" x2="262.00" y2="218.00"/><line class="tbrule" x1="218.80" y1="218.00" x2="218.80" y2="227.00"/><line class="tbrule" x1="240.88" y1="218.00" x2="240.88" y2="227.00"/><text class="tbname" x="168.00" y="215.12" text-anchor="start" font-size="3.6">POWER WIRING</text><text class="tbmeta" x="168.00" y="224.30" text-anchor="start" font-size="2.4">UNITS mm &#183; SCALE N.T.S.</text><text class="tbmeta" x="221.20" y="224.30" text-anchor="start" font-size="2.4">SHEET 8/8</text><text class="tbmeta" x="242.80" y="224.30" text-anchor="start" font-size="2.4">REV E</text></svg>