<?xml version="1.0" encoding="UTF-8"?>
<svg class="dwg" width="1072" height="760" id="s1" viewBox="0 0 268 190" xmlns="http://www.w3.org/2000/svg" role="img"><rect class="part" x="24.00" y="15.00" width="93.90" height="108.40" rx="5.00"/><rect class="edge" x="37.85" y="25.50" width="66.20" height="87.40" rx="3.00"/><rect class="ink" x="39.15" y="26.80" width="63.60" height="84.80" rx="0.00"/><rect class="hid" x="28.50" y="17.70" width="78.50" height="103.00" rx="0.00"/><line class="cl" x1="70.95" y1="11.00" x2="70.95" y2="127.40"/><line class="cl" x1="20.00" y1="69.20" x2="121.90" y2="69.20"/><text class="vlabel" x="70.95" y="7.00" text-anchor="middle" font-size="3.0">FRONT</text><line class="ext" x1="24.00" y1="123.40" x2="24.00" y2="140.60"/><line class="ext" x1="117.90" y1="123.40" x2="117.90" y2="140.60"/><line class="dim" x1="24.00" y1="139.40" x2="117.90" y2="139.40"/><path class="arrow" d="M24.00,139.40 L25.60,138.89 L25.60,139.91 Z"/><path class="arrow" d="M117.90,139.40 L116.30,139.91 L116.30,138.89 Z"/><text class="dimtxt" x="70.95" y="138.10" text-anchor="middle" font-size="3.0">93.9</text><line class="ext" x1="24.00" y1="15.00" x2="9.80" y2="15.00"/><line class="ext" x1="24.00" y1="123.40" x2="9.80" y2="123.40"/><line class="dim" x1="11.00" y1="15.00" x2="11.00" y2="123.40"/><path class="arrow" d="M11.00,15.00 L11.51,16.60 L10.49,16.60 Z"/><path class="arrow" d="M11.00,123.40 L10.49,121.80 L11.51,121.80 Z"/><text class="dimtxt" x="9.70" y="69.20" text-anchor="middle" font-size="3.0" transform="rotate(-90 9.70 69.20)">108.4</text><line class="ext" x1="37.85" y1="112.90" x2="37.85" y2="132.60"/><line class="ext" x1="104.05" y1="112.90" x2="104.05" y2="132.60"/><line class="dim" x1="37.85" y1="131.40" x2="104.05" y2="131.40"/><path class="arrow" d="M37.85,131.40 L39.45,130.89 L39.45,131.91 Z"/><path class="arrow" d="M104.05,131.40 L102.45,131.91 L102.45,130.89 Z"/><text class="dimtxt" x="70.95" y="130.10" text-anchor="middle" font-size="3.0">66.2</text><line class="ext" x1="37.85" y1="25.50" x2="17.80" y2="25.50"/><line class="ext" x1="37.85" y1="112.90" x2="17.80" y2="112.90"/><line class="dim" x1="19.00" y1="25.50" x2="19.00" y2="112.90"/><path class="arrow" d="M19.00,25.50 L19.51,27.10 L18.49,27.10 Z"/><path class="arrow" d="M19.00,112.90 L18.49,111.30 L19.51,111.30 Z"/><text class="dimtxt" x="17.70" y="69.20" text-anchor="middle" font-size="3.0" transform="rotate(-90 17.70 69.20)">87.4</text><line class="ext" x1="24.00" y1="25.50" x2="24.00" y2="8.80"/><line class="ext" x1="37.85" y1="25.50" x2="37.85" y2="8.80"/><line class="dim" x1="24.00" y1="10.00" x2="37.85" y2="10.00"/><path class="arrow" d="M24.00,10.00 L25.60,9.49 L25.60,10.51 Z"/><path class="arrow" d="M37.85,10.00 L36.25,10.51 L36.25,9.49 Z"/><text class="dimtxt" x="30.93" y="8.70" text-anchor="middle" font-size="3.0">13.85</text><line class="ext" x1="104.05" y1="25.50" x2="104.05" y2="8.80"/><line class="ext" x1="117.90" y1="25.50" x2="117.90" y2="8.80"/><line class="dim" x1="104.05" y1="10.00" x2="117.90" y2="10.00"/><path class="arrow" d="M104.05,10.00 L105.65,9.49 L105.65,10.51 Z"/><path class="arrow" d="M117.90,10.00 L116.30,10.51 L116.30,9.49 Z"/><text class="dimtxt" x="110.98" y="8.70" text-anchor="middle" font-size="3.0">13.85</text><line class="ext" x1="104.05" y1="15.00" x2="125.10" y2="15.00"/><line class="ext" x1="104.05" y1="25.50" x2="125.10" y2="25.50"/><line class="dim" x1="123.90" y1="15.00" x2="123.90" y2="25.50"/><path class="arrow" d="M123.90,15.00 L124.41,16.60 L123.39,16.60 Z"/><path class="arrow" d="M123.90,25.50 L123.39,23.90 L124.41,23.90 Z"/><text class="dimtxt" x="122.60" y="20.25" text-anchor="middle" font-size="3.0" transform="rotate(-90 122.60 20.25)">10.5</text><line class="ext" x1="104.05" y1="112.90" x2="125.10" y2="112.90"/><line class="ext" x1="104.05" y1="123.40" x2="125.10" y2="123.40"/><line class="dim" x1="123.90" y1="112.90" x2="123.90" y2="123.40"/><path class="arrow" d="M123.90,112.90 L124.41,114.50 L123.39,114.50 Z"/><path class="arrow" d="M123.90,123.40 L123.39,121.80 L124.41,121.80 Z"/><text class="dimtxt" x="122.60" y="118.15" text-anchor="middle" font-size="3.0" transform="rotate(-90 122.60 118.15)">10.5</text><line class="dim" x1="38.55" y1="29.50" x2="31.85" y2="18.50"/><path class="arrow" d="M38.55,29.50 L37.28,28.40 L38.15,27.87 Z"/><circle class="balloon" cx="31.85" cy="18.50" r="2.80"/><text class="baltxt" x="31.85" y="19.65" text-anchor="middle" font-size="3.1">1</text><line class="dim" x1="26.40" y1="121.00" x2="35.00" y2="112.40"/><path class="arrow" d="M26.40,121.00 L27.17,119.51 L27.89,120.23 Z"/><circle class="balloon" cx="35.00" cy="112.40" r="2.80"/><text class="baltxt" x="35.00" y="113.55" text-anchor="middle" font-size="3.1">2</text><rect class="part" x="124.00" y="15.00" width="25.00" height="108.40" rx="0.00"/><line class="hid" x1="147.60" y1="15.00" x2="147.60" y2="123.40"/><line class="edge" x1="124.00" y1="15.80" x2="124.80" y2="15.00"/><line class="edge" x1="124.00" y1="122.60" x2="124.80" y2="123.40"/><line class="edge" x1="147.00" y1="15.00" x2="149.00" y2="17.00"/><line class="edge" x1="147.00" y1="123.40" x2="149.00" y2="121.40"/><rect class="cut" x="134.60" y="15.00" width="6.80" height="1.60" rx="0.00"/><rect class="cut" x="148.00" y="110.55" width="1.00" height="3.70" rx="0.00"/><text class="vlabel" x="136.50" y="7.00" text-anchor="middle" font-size="3.0">RIGHT</text><line class="ext" x1="124.00" y1="123.40" x2="124.00" y2="140.60"/><line class="ext" x1="149.00" y1="123.40" x2="149.00" y2="140.60"/><line class="dim" x1="124.00" y1="139.40" x2="149.00" y2="139.40"/><path class="arrow" d="M124.00,139.40 L125.60,138.89 L125.60,139.91 Z"/><path class="arrow" d="M149.00,139.40 L147.40,139.91 L147.40,138.89 Z"/><text class="dimtxt" x="136.50" y="138.10" text-anchor="middle" font-size="3.0">25</text><line class="dim" x1="148.00" y1="16.00" x2="158.00" y2="9.00"/><path class="arrow" d="M148.00,16.00 L149.02,14.66 L149.60,15.50 Z"/><circle class="balloon" cx="158.00" cy="9.00" r="2.80"/><text class="baltxt" x="158.00" y="10.15" text-anchor="middle" font-size="3.1">3</text><line class="dim" x1="124.40" y1="123.00" x2="158.00" y2="131.40"/><path class="arrow" d="M124.40,123.00 L126.08,122.89 L125.83,123.88 Z"/><circle class="balloon" cx="158.00" cy="131.40" r="2.80"/><text class="baltxt" x="158.00" y="132.55" text-anchor="middle" font-size="3.1">4</text><line class="dim" x1="138.00" y1="15.80" x2="158.00" y2="24.00"/><path class="arrow" d="M138.00,15.80 L139.67,15.93 L139.29,16.88 Z"/><circle class="balloon" cx="158.00" cy="24.00" r="2.80"/><text class="baltxt" x="158.00" y="25.15" text-anchor="middle" font-size="3.1">5</text><line class="dim" x1="149.00" y1="112.40" x2="158.00" y2="114.40"/><path class="arrow" d="M149.00,112.40 L150.67,112.25 L150.45,113.25 Z"/><circle class="balloon" cx="158.00" cy="114.40" r="2.80"/><text class="baltxt" x="158.00" y="115.55" text-anchor="middle" font-size="3.1">6</text><line class="dim" x1="147.60" y1="93.40" x2="158.00" y2="93.40"/><path class="arrow" d="M147.60,93.40 L149.20,92.89 L149.20,93.91 Z"/><circle class="balloon" cx="158.00" cy="93.40" r="2.80"/><text class="baltxt" x="158.00" y="94.55" text-anchor="middle" font-size="3.1">7</text><rect class="part" x="156.00" y="15.00" width="93.90" height="108.40" rx="5.00"/><circle class="edge" cx="202.95" cy="76.45" r="27.00"/><circle class="hid" cx="202.95" cy="76.45" r="28.65"/><rect class="cut" x="163.80" y="110.55" width="9.50" height="3.70" rx="1.20"/><circle class="cut" cx="244.70" cy="109.40" r="2.70"/><circle class="cut" cx="244.70" cy="69.20" r="2.70"/><circle class="cut" cx="244.70" cy="29.00" r="2.70"/><line class="cl" x1="202.95" y1="11.00" x2="202.95" y2="127.40"/><line class="cl" x1="152.00" y1="76.45" x2="253.90" y2="76.45"/><text class="vlabel" x="202.95" y="7.00" text-anchor="middle" font-size="3.0">BACK</text><line class="ext" x1="156.00" y1="76.45" x2="146.80" y2="76.45"/><line class="ext" x1="156.00" y1="123.40" x2="146.80" y2="123.40"/><line class="dim" x1="148.00" y1="76.45" x2="148.00" y2="123.40"/><path class="arrow" d="M148.00,76.45 L148.51,78.05 L147.49,78.05 Z"/><path class="arrow" d="M148.00,123.40 L147.49,121.80 L148.51,121.80 Z"/><text class="dimtxt" x="146.70" y="99.93" text-anchor="middle" font-size="3.0" transform="rotate(-90 146.70 99.93)">46.95</text><line class="ext" x1="202.95" y1="112.40" x2="202.95" y2="132.60"/><line class="ext" x1="168.55" y1="112.40" x2="168.55" y2="132.60"/><line class="dim" x1="202.95" y1="131.40" x2="168.55" y2="131.40"/><path class="arrow" d="M202.95,131.40 L201.35,131.91 L201.35,130.89 Z"/><path class="arrow" d="M168.55,131.40 L170.15,130.89 L170.15,131.91 Z"/><text class="dimtxt" x="185.75" y="130.10" text-anchor="middle" font-size="3.0">34.4</text><line class="ext" x1="168.55" y1="112.40" x2="159.35" y2="112.40"/><line class="ext" x1="168.55" y1="123.40" x2="159.35" y2="123.40"/><line class="dim" x1="160.55" y1="112.40" x2="160.55" y2="123.40"/><path class="arrow" d="M160.55,112.40 L161.06,114.00 L160.04,114.00 Z"/><path class="arrow" d="M160.55,123.40 L160.04,121.80 L161.06,121.80 Z"/><text class="dimtxt" x="159.25" y="117.90" text-anchor="middle" font-size="3.0" transform="rotate(-90 159.25 117.90)">11</text><line class="ext" x1="244.70" y1="29.00" x2="244.70" y2="8.80"/><line class="ext" x1="249.90" y1="29.00" x2="249.90" y2="8.80"/><line class="dim" x1="244.70" y1="10.00" x2="249.90" y2="10.00"/><line class="dim" x1="240.70" y1="10.00" x2="244.70" y2="10.00"/><line class="dim" x1="249.90" y1="10.00" x2="253.90" y2="10.00"/><path class="arrow" d="M244.70,10.00 L243.10,10.51 L243.10,9.49 Z"/><path class="arrow" d="M249.90,10.00 L251.50,9.49 L251.50,10.51 Z"/><text class="dimtxt" x="247.30" y="8.40" text-anchor="middle" font-size="3.0">5.2</text><line class="dim" x1="173.30" y1="112.40" x2="184.55" y2="104.40"/><path class="arrow" d="M173.30,112.40 L174.31,111.06 L174.90,111.89 Z"/><circle class="balloon" cx="184.55" cy="104.40" r="2.80"/><text class="baltxt" x="184.55" y="105.55" text-anchor="middle" font-size="3.1">6</text><line class="dim" x1="244.70" y1="69.20" x2="233.70" y2="77.20"/><path class="arrow" d="M244.70,69.20 L243.71,70.56 L243.10,69.73 Z"/><circle class="balloon" cx="233.70" cy="77.20" r="2.80"/><text class="baltxt" x="233.70" y="78.35" text-anchor="middle" font-size="3.1">8</text><line class="dim" x1="222.12" y1="57.28" x2="229.12" y2="50.28"/><path class="arrow" d="M222.12,57.28 L222.89,55.79 L223.61,56.51 Z"/><circle class="balloon" cx="229.12" cy="50.28" r="2.80"/><text class="baltxt" x="229.12" y="51.43" text-anchor="middle" font-size="3.1">9</text><text class="vlabel" x="22.00" y="143.00" text-anchor="start" font-size="3.2">NOTES</text><circle class="balloon" cx="24.80" cy="148.50" r="2.80"/><text class="baltxt" x="24.80" y="149.65" text-anchor="middle" font-size="3.1">1</text><text class="note" x="31.00" y="149.50" text-anchor="start" font-size="2.7">panel white border 1.3 visible all round the</text><text class="note" x="31.00" y="153.20" text-anchor="start" font-size="2.7">ink</text><circle class="balloon" cx="24.80" cy="158.70" r="2.80"/><text class="baltxt" x="24.80" y="159.85" text-anchor="middle" font-size="3.1">2</text><text class="note" x="31.00" y="159.70" text-anchor="start" font-size="2.7">outer corners R5</text><circle class="balloon" cx="24.80" cy="165.20" r="2.80"/><text class="baltxt" x="24.80" y="166.35" text-anchor="middle" font-size="3.1">3</text><text class="note" x="31.00" y="166.20" text-anchor="start" font-size="2.7">2 x 45 deg chamfer on all four back edges.</text><text class="note" x="31.00" y="169.90" text-anchor="start" font-size="2.7">It moves the contact edge forward - see</text><text class="note" x="31.00" y="173.60" text-anchor="start" font-size="2.7">sheet 7</text><circle class="balloon" cx="24.80" cy="179.10" r="2.80"/><text class="baltxt" x="24.80" y="180.25" text-anchor="middle" font-size="3.1">4</text><text class="note" x="31.00" y="180.10" text-anchor="start" font-size="2.7">0.8 x 45 deg chamfer on the front face</text><text class="vlabel" x="108.00" y="143.00" text-anchor="start" font-size="3.2"> </text><circle class="balloon" cx="110.80" cy="148.50" r="2.80"/><text class="baltxt" x="110.80" y="149.65" text-anchor="middle" font-size="3.1">5</text><text class="note" x="117.00" y="149.50" text-anchor="start" font-size="2.7">USB-C flash port, 13 wide, top wall (driver</text><text class="note" x="117.00" y="153.20" text-anchor="start" font-size="2.7">board)</text><circle class="balloon" cx="110.80" cy="158.70" r="2.80"/><text class="baltxt" x="110.80" y="159.85" text-anchor="middle" font-size="3.1">6</text><text class="note" x="117.00" y="159.70" text-anchor="start" font-size="2.7">USB-C charge port 9.5 x 3.7, back face</text><circle class="balloon" cx="110.80" cy="165.20" r="2.80"/><text class="baltxt" x="110.80" y="166.35" text-anchor="middle" font-size="3.1">7</text><text class="note" x="117.00" y="166.20" text-anchor="start" font-size="2.7">frame / cover seam</text><text class="vlabel" x="190.00" y="143.00" text-anchor="start" font-size="3.2"> </text><circle class="balloon" cx="192.80" cy="148.50" r="2.80"/><text class="baltxt" x="192.80" y="149.65" text-anchor="middle" font-size="3.1">8</text><text class="note" x="199.00" y="149.50" text-anchor="start" font-size="2.7">3 x M2.5 cover screws, 41.75 from the</text><text class="note" x="199.00" y="153.20" text-anchor="start" font-size="2.7">centreline</text><circle class="balloon" cx="192.80" cy="158.70" r="2.80"/><text class="baltxt" x="192.80" y="159.85" text-anchor="middle" font-size="3.1">9</text><text class="note" x="199.00" y="159.70" text-anchor="start" font-size="2.7">kickstand disc, dia 54, hub 46.95 up</text><text class="note" x="199.00" y="163.40" text-anchor="start" font-size="2.7">from the bottom</text><text class="note" x="166.00" y="164.60" text-anchor="start" font-size="2.35">STLs export flat-face-down and MIRRORED IN X (print_mirror = true)</text><rect class="tbframe" x="166.00" y="167.00" width="96.00" height="18.00" rx="0.00"/><line class="tbrule" x1="166.00" y1="176.00" x2="262.00" y2="176.00"/><line class="tbrule" x1="218.80" y1="176.00" x2="218.80" y2="185.00"/><line class="tbrule" x1="240.88" y1="176.00" x2="240.88" y2="185.00"/><text class="tbname" x="168.00" y="173.12" text-anchor="start" font-size="3.6">ASSEMBLY / ENVELOPE</text><text class="tbmeta" x="168.00" y="182.30" text-anchor="start" font-size="2.4">UNITS mm &#183; SCALE 1:1</text><text class="tbmeta" x="221.20" y="182.30" text-anchor="start" font-size="2.4">SHEET 1/8</text><text class="tbmeta" x="242.80" y="182.30" text-anchor="start" font-size="2.4">REV E</text></svg>