<?xml version="1.0" encoding="UTF-8"?>
<svg class="dwg" width="1072" height="760" id="s5" viewBox="0 0 268 190" xmlns="http://www.w3.org/2000/svg" role="img"><rect class="part" x="22.00" y="14.00" width="91.90" height="108.40" rx="5.00"/><rect class="hid" x="25.85" y="17.05" width="79.50" height="104.00" rx="1.50"/><circle class="edge" cx="67.95" cy="76.45" r="31.65"/><circle class="cut" cx="67.95" cy="76.45" r="27.35"/><circle class="hid" cx="67.95" cy="76.45" r="28.65"/><circle class="cut" cx="109.20" cy="108.40" r="2.70"/><circle class="cut" cx="109.20" cy="68.20" r="2.70"/><circle class="cut" cx="109.20" cy="28.00" r="2.70"/><rect class="plat" x="25.30" y="67.90" width="63.25" height="52.60" rx="1.00"/><circle class="boss" cx="47.10" cy="60.40" r="3.25"/><circle class="boss" cx="47.10" cy="24.80" r="3.25"/><circle class="boss" cx="29.50" cy="64.00" r="3.00"/><circle class="boss" cx="29.50" cy="21.20" r="3.00"/><circle class="boss" cx="64.70" cy="64.00" r="3.00"/><circle class="boss" cx="64.70" cy="21.20" r="3.00"/><rect class="boss" x="69.20" y="17.70" width="3.00" height="47.25" rx="0.00"/><rect class="boss" x="100.06" y="17.70" width="3.00" height="47.25" rx="0.00"/><rect class="boss" x="25.05" y="112.35" width="17.00" height="2.00" rx="0.00"/><rect class="boss" x="25.05" y="108.45" width="17.00" height="2.00" rx="0.00"/><rect class="cut" x="28.80" y="109.55" width="9.50" height="3.70" rx="1.20"/><rect class="pad" x="43.75" y="110.20" width="42.00" height="7.00" rx="0.80"/><rect class="pad" x="43.75" y="19.20" width="42.00" height="7.00" rx="0.80"/><text class="vlabel" x="67.95" y="6.00" text-anchor="middle" font-size="3.0">BACK COVER  &#183;  inner face</text><line class="ext" x1="22.00" y1="76.45" x2="8.80" y2="76.45"/><line class="ext" x1="22.00" y1="122.40" x2="8.80" y2="122.40"/><line class="dim" x1="10.00" y1="76.45" x2="10.00" y2="122.40"/><path class="arrow" d="M10.00,76.45 L10.51,78.05 L9.49,78.05 Z"/><path class="arrow" d="M10.00,122.40 L9.49,120.80 L10.51,120.80 Z"/><text class="dimtxt" x="8.70" y="99.43" text-anchor="middle" font-size="3.0" transform="rotate(-90 8.70 99.43)">45.95</text><line class="ext" x1="22.00" y1="122.40" x2="22.00" y2="138.60"/><line class="ext" x1="113.90" y1="122.40" x2="113.90" y2="138.60"/><line class="dim" x1="22.00" y1="137.40" x2="113.90" y2="137.40"/><path class="arrow" d="M22.00,137.40 L23.60,136.89 L23.60,137.91 Z"/><path class="arrow" d="M113.90,137.40 L112.30,137.91 L112.30,136.89 Z"/><text class="dimtxt" x="67.95" y="136.10" text-anchor="middle" font-size="3.0">91.9</text><line class="ext" x1="47.10" y1="42.60" x2="47.10" y2="131.60"/><line class="ext" x1="113.90" y1="42.60" x2="113.90" y2="131.60"/><line class="dim" x1="47.10" y1="130.40" x2="113.90" y2="130.40"/><path class="arrow" d="M47.10,130.40 L48.70,129.89 L48.70,130.91 Z"/><path class="arrow" d="M113.90,130.40 L112.30,130.91 L112.30,129.89 Z"/><text class="dimtxt" x="80.50" y="129.10" text-anchor="middle" font-size="3.0">66.8</text><line class="ext" x1="47.10" y1="42.60" x2="122.10" y2="42.60"/><line class="ext" x1="47.10" y1="122.40" x2="122.10" y2="122.40"/><line class="dim" x1="120.90" y1="42.60" x2="120.90" y2="122.40"/><path class="arrow" d="M120.90,42.60 L121.41,44.20 L120.39,44.20 Z"/><path class="arrow" d="M120.90,122.40 L120.39,120.80 L121.41,120.80 Z"/><text class="dimtxt" x="119.60" y="82.50" text-anchor="middle" font-size="3.0" transform="rotate(-90 119.60 82.50)">79.8</text><line class="dim" x1="87.37" y1="57.03" x2="95.37" y2="50.03"/><path class="arrow" d="M87.37,57.03 L88.24,55.59 L88.91,56.36 Z"/><circle class="balloon" cx="95.37" cy="50.03" r="2.80"/><text class="baltxt" x="95.37" y="51.18" text-anchor="middle" font-size="3.1">1</text><line class="dim" x1="47.10" y1="24.80" x2="59.10" y2="30.80"/><path class="arrow" d="M47.10,24.80 L48.76,25.06 L48.30,25.97 Z"/><circle class="balloon" cx="59.10" cy="30.80" r="2.80"/><text class="baltxt" x="59.10" y="31.95" text-anchor="middle" font-size="3.1">2</text><line class="dim" x1="102.86" y1="41.33" x2="111.86" y2="35.33"/><path class="arrow" d="M102.86,41.33 L103.91,40.01 L104.48,40.86 Z"/><circle class="balloon" cx="111.86" cy="35.33" r="2.80"/><text class="baltxt" x="111.86" y="36.48" text-anchor="middle" font-size="3.1">3</text><line class="dim" x1="33.55" y1="108.40" x2="22.55" y2="104.40"/><path class="arrow" d="M33.55,108.40 L31.87,108.33 L32.22,107.37 Z"/><circle class="balloon" cx="22.55" cy="104.40" r="2.80"/><text class="baltxt" x="22.55" y="105.55" text-anchor="middle" font-size="3.1">4</text><line class="dim" x1="56.75" y1="68.70" x2="47.75" y2="60.70"/><path class="arrow" d="M56.75,68.70 L55.21,68.02 L55.89,67.25 Z"/><circle class="balloon" cx="47.75" cy="60.70" r="2.80"/><text class="baltxt" x="47.75" y="61.85" text-anchor="middle" font-size="3.1">5</text><line class="dim" x1="64.75" y1="116.20" x2="77.75" y2="110.20"/><path class="arrow" d="M64.75,116.20 L65.99,115.06 L66.42,115.99 Z"/><circle class="balloon" cx="77.75" cy="110.20" r="2.80"/><text class="baltxt" x="77.75" y="111.35" text-anchor="middle" font-size="3.1">6</text><text class="vlabel" x="150.00" y="22.00" text-anchor="start" font-size="3.2">NOTES</text><circle class="balloon" cx="152.80" cy="27.50" r="2.80"/><text class="baltxt" x="152.80" y="28.65" text-anchor="middle" font-size="3.1">1</text><text class="note" x="159.00" y="28.50" text-anchor="start" font-size="2.7">pocket bore dia 54.7 x 4.15 deep. Bayonet</text><text class="note" x="159.00" y="32.20" text-anchor="start" font-size="2.7">groove dia 57.3 with three 34 deg entry gaps</text><text class="note" x="159.00" y="35.90" text-anchor="start" font-size="2.7">at 45 / 165 / 285 deg</text><circle class="balloon" cx="152.80" cy="41.40" r="2.80"/><text class="baltxt" x="152.80" y="42.55" text-anchor="middle" font-size="3.1">2</text><text class="note" x="159.00" y="42.40" text-anchor="start" font-size="2.7">2 x M2.5 posts, 35.6 apart, plus four corner</text><text class="note" x="159.00" y="46.10" text-anchor="start" font-size="2.7">pads</text><circle class="balloon" cx="152.80" cy="51.60" r="2.80"/><text class="baltxt" x="152.80" y="52.75" text-anchor="middle" font-size="3.1">3</text><text class="note" x="159.00" y="52.60" text-anchor="start" font-size="2.7">driver-board rails - the board slides down</text><text class="note" x="159.00" y="56.30" text-anchor="start" font-size="2.7">from the top, stop at the bottom</text><circle class="balloon" cx="152.80" cy="61.80" r="2.80"/><text class="baltxt" x="152.80" y="62.95" text-anchor="middle" font-size="3.1">4</text><text class="note" x="159.00" y="62.80" text-anchor="start" font-size="2.7">USB-C breakout rails; the port opening is</text><text class="note" x="159.00" y="66.50" text-anchor="start" font-size="2.7">through the skin below them</text><circle class="balloon" cx="152.80" cy="72.00" r="2.80"/><text class="baltxt" x="152.80" y="73.15" text-anchor="middle" font-size="3.1">5</text><text class="note" x="159.00" y="73.00" text-anchor="start" font-size="2.7">cell platform, level with the puck face so</text><text class="note" x="159.00" y="76.70" text-anchor="start" font-size="2.7">the cell does not straddle the step, with a</text><text class="note" x="159.00" y="80.40" text-anchor="start" font-size="2.7">1 fence</text><circle class="balloon" cx="152.80" cy="85.90" r="2.80"/><text class="baltxt" x="152.80" y="87.05" text-anchor="middle" font-size="3.1">6</text><text class="note" x="159.00" y="86.90" text-anchor="start" font-size="2.7">module retention pad</text><text class="note" x="166.00" y="164.60" text-anchor="start" font-size="2.35">STLs export flat-face-down and MIRRORED IN X (print_mirror = true)</text><rect class="tbframe" x="166.00" y="167.00" width="96.00" height="18.00" rx="0.00"/><line class="tbrule" x1="166.00" y1="176.00" x2="262.00" y2="176.00"/><line class="tbrule" x1="218.80" y1="176.00" x2="218.80" y2="185.00"/><line class="tbrule" x1="240.88" y1="176.00" x2="240.88" y2="185.00"/><text class="tbname" x="168.00" y="173.12" text-anchor="start" font-size="3.6">BACK COVER</text><text class="tbmeta" x="168.00" y="182.30" text-anchor="start" font-size="2.4">UNITS mm &#183; SCALE 1:1</text><text class="tbmeta" x="221.20" y="182.30" text-anchor="start" font-size="2.4">SHEET 5/8</text><text class="tbmeta" x="242.80" y="182.30" text-anchor="start" font-size="2.4">REV E</text></svg>